<?xml version="1.0" standalone="no"?>
<!DOCTYPE svg PUBLIC "-//W3C//DTD SVG 20010904//EN"
 "http://www.w3.org/TR/2001/REC-SVG-20010904/DTD/svg10.dtd">
<svg version="1.0" xmlns="http://www.w3.org/2000/svg"
 width="512.000000pt" height="512.000000pt" viewBox="0 0 512.000000 512.000000"
 preserveAspectRatio="xMidYMid meet">

<g transform="translate(0.000000,512.000000) scale(0.100000,-0.100000)"
fill="#000000" stroke="none">
<path d="M105 5015 l-25 -24 0 -1471 0 -1471 25 -24 24 -25 874 0 873 0 45
-87 c34 -68 63 -108 127 -173 l84 -85 -19 -75 -19 -75 -329 -111 c-182 -62
-354 -115 -383 -119 -73 -9 -181 -66 -232 -121 -23 -25 -55 -73 -71 -107 -26
-57 -32 -91 -69 -427 -22 -200 -40 -368 -40 -372 0 -5 -99 -8 -220 -8 l-221 0
-24 -25 c-33 -32 -33 -78 0 -110 l24 -25 2031 0 2031 0 24 25 c33 32 33 78 0
110 l-24 25 -221 0 c-121 0 -220 3 -220 8 0 4 -18 172 -40 372 -37 336 -43
370 -69 427 -16 34 -48 82 -71 107 -51 55 -159 112 -232 121 -29 4 -201 57
-383 119 l-329 111 -19 75 -19 75 84 85 c64 65 93 105 127 172 l45 88 873 0
874 0 24 25 25 24 0 1471 0 1471 -25 24 -24 25 -2431 0 -2431 0 -24 -25z
m4775 -1495 l0 -1360 -799 0 -799 0 -4 268 c-4 254 -6 271 -30 344 -40 119
-92 204 -182 294 -90 90 -175 143 -294 182 -67 22 -94 26 -212 26 -118 0 -145
-4 -212 -26 -119 -39 -204 -92 -294 -182 -90 -90 -142 -175 -182 -294 -24 -73
-26 -90 -30 -344 l-4 -268 -799 0 -799 0 0 1360 0 1360 2320 0 2320 0 0 -1360z
m-2214 -411 c163 -29 320 -149 393 -302 56 -115 64 -175 59 -449 -4 -203 -7
-240 -25 -288 -31 -84 -57 -131 -108 -193 -45 -56 -46 -56 -90 -51 -38 6 -47
3 -69 -19 -33 -33 -32 -48 3 -179 l29 -108 -298 0 -298 0 29 108 c35 131 36
146 3 179 -22 22 -31 25 -69 19 -44 -5 -45 -5 -91 52 -57 69 -108 176 -123
256 -14 77 -14 454 0 532 17 98 79 213 154 288 134 132 315 189 501 155z m639
-1869 c198 -66 370 -120 384 -120 74 0 172 -65 206 -136 12 -26 29 -141 56
-383 21 -190 39 -349 39 -353 0 -5 -106 -8 -235 -8 l-235 0 0 215 c0 216 0
216 -25 240 -32 33 -78 33 -110 0 -25 -24 -25 -24 -25 -240 l0 -215 -800 0
-800 0 0 215 c0 216 0 216 -25 240 -32 33 -78 33 -110 0 -25 -24 -25 -24 -25
-240 l0 -215 -235 0 c-129 0 -235 3 -235 8 0 4 18 163 39 353 27 242 44 357
56 383 34 71 132 136 206 136 13 0 184 54 379 119 l355 119 390 1 390 1 360
-120z"/>
<path d="M425 4695 l-25 -24 0 -271 0 -271 25 -24 c23 -24 28 -25 175 -25 147
0 152 1 175 25 l25 24 0 271 0 271 -25 24 c-23 24 -28 25 -175 25 -147 0 -152
-1 -175 -25z m215 -295 l0 -160 -40 0 -40 0 0 160 0 160 40 0 40 0 0 -160z"/>
<path d="M905 4695 c-16 -15 -25 -36 -25 -55 0 -19 9 -40 25 -55 l24 -25 871
0 871 0 24 25 c16 15 25 36 25 55 0 19 -9 40 -25 55 l-24 25 -871 0 -871 0
-24 -25z"/>
<path d="M3860 4706 c-155 -34 -256 -89 -370 -205 -67 -67 -95 -105 -128 -171
-62 -125 -77 -192 -76 -340 1 -107 5 -137 27 -205 38 -115 90 -199 182 -290
93 -93 160 -135 282 -178 80 -28 100 -31 213 -31 148 -1 216 14 338 76 251
125 409 405 389 689 -13 177 -81 323 -212 454 -139 139 -283 203 -475 210 -67
3 -128 -1 -170 -9z m60 -414 l0 -257 -185 -185 c-150 -150 -187 -182 -196
-170 -22 33 -57 108 -75 160 -26 76 -26 243 0 320 45 134 138 255 243 317 55
32 159 72 191 72 l22 1 0 -258z m263 235 c91 -33 145 -67 211 -133 66 -66 100
-120 133 -211 40 -112 58 -103 -212 -103 l-235 0 0 235 c0 270 -9 252 103 212z
m367 -627 c0 -28 -42 -140 -73 -193 -62 -105 -183 -198 -317 -243 -77 -26
-244 -26 -320 0 -52 18 -127 53 -160 75 -12 9 20 46 170 196 l185 185 257 0
c249 0 258 -1 258 -20z"/>
<path d="M905 4455 c-16 -15 -25 -36 -25 -55 0 -19 9 -40 25 -55 l24 -25 751
0 751 0 24 25 c33 32 33 78 0 110 l-24 25 -751 0 -751 0 -24 -25z"/>
<path d="M905 4215 c-16 -15 -25 -36 -25 -55 0 -19 9 -40 25 -55 l24 -25 431
0 431 0 24 25 c16 15 25 36 25 55 0 19 -9 40 -25 55 l-24 25 -431 0 -431 0
-24 -25z"/>
<path d="M425 3895 l-25 -24 0 -416 c0 -368 -2 -415 -15 -415 -9 0 -27 -11
-40 -25 -33 -32 -33 -78 0 -110 l24 -25 711 0 711 0 24 25 c33 32 33 78 0 110
-13 14 -31 25 -40 25 -13 0 -15 43 -15 375 l0 376 -25 24 c-23 24 -28 25 -175
25 -147 0 -152 -1 -175 -25 l-25 -24 0 -376 0 -375 -40 0 -40 0 0 255 0 256
-25 24 c-23 24 -28 25 -175 25 -147 0 -152 -1 -175 -25 l-25 -24 0 -256 0
-255 -40 0 -40 0 0 415 0 416 -25 24 c-23 24 -28 25 -175 25 -147 0 -152 -1
-175 -25z m215 -495 l0 -360 -40 0 -40 0 0 360 0 360 40 0 40 0 0 -360z m960
-40 l0 -320 -40 0 -40 0 0 320 0 320 40 0 40 0 0 -320z m-480 -120 l0 -200
-40 0 -40 0 0 200 0 200 40 0 40 0 0 -200z"/>
<path d="M3705 3095 c-16 -15 -25 -36 -25 -55 0 -19 9 -40 25 -55 l24 -25 431
0 431 0 24 25 c16 15 25 36 25 55 0 19 -9 40 -25 55 l-24 25 -431 0 -431 0
-24 -25z"/>
<path d="M3563 2717 c-144 -144 -163 -166 -163 -195 0 -44 38 -82 81 -82 28 0
51 18 174 140 l141 140 397 0 398 0 24 25 c16 15 25 36 25 55 0 19 -9 40 -25
55 l-24 25 -433 0 -432 0 -163 -163z"/>
<path d="M345 2775 c-16 -15 -25 -36 -25 -55 0 -19 9 -40 25 -55 l24 -25 438
0 437 0 181 -180 c160 -159 185 -180 214 -180 43 0 81 38 81 82 0 29 -22 54
-203 235 l-203 203 -472 0 -473 0 -24 -25z"/>
<path d="M345 2535 c-16 -15 -25 -36 -25 -55 0 -19 9 -40 25 -55 24 -25 26
-25 215 -25 189 0 191 0 215 25 16 15 25 36 25 55 0 19 -9 40 -25 55 -24 25
-26 25 -215 25 -189 0 -191 0 -215 -25z"/>
</g>
</svg>
