<?xml version="1.0" encoding="iso-8859-1"?>
<!-- Uploaded to: SVG Repo, www.svgrepo.com, Generator: SVG Repo Mixer Tools -->
<svg height="800px" width="800px" version="1.1" id="Layer_1" xmlns="http://www.w3.org/2000/svg" xmlns:xlink="http://www.w3.org/1999/xlink" 
	 viewBox="0 0 512 512" xml:space="preserve">
<g>
	<polygon style="fill:#FF2C47;" points="149.329,416.004 309.331,416.004 309.331,373.336 309.331,224.001 309.331,181.339 
		309.331,117.335 266.667,117.335 160.004,117.333 32,117.335 10.667,117.335 10.667,160.001 10.667,202.665 10.667,243.221 
		10.667,348.119 10.667,416.004 	"/>
	<polygon style="fill:#009FD3;" points="32,117.335 160.004,117.333 117.342,74.669 96.002,53.333 	"/>
	<polygon style="fill:#00E588;" points="117.342,74.669 160.004,117.333 266.667,117.335 266.665,74.669 	"/>
	<path style="fill:#FF6B39;" d="M309.331,181.339v42.663v149.334v42.668h53.34c0-23.566,19.104-42.67,42.669-42.67
		c23.563,0,42.665,19.104,42.665,42.67h53.329v-96.001h-96h-42.66v-96.001h78.323h7.01l-0.002-21.332
		c0-11.732-9.596-21.331-21.331-21.331H309.331z"/>
	<g>
		<path style="fill:#FF9600;" d="M362.673,224.001v96.001h138.66v-42.674c0-14.663-5.998-27.997-15.665-37.663
			c-9.664-9.665-22.996-15.664-37.663-15.664L362.673,224.001L362.673,224.001z"/>
		<path style="fill:#FF9600;" d="M448.004,416.004c0-23.566-19.102-42.67-42.665-42.67c-23.565,0-42.669,19.104-42.669,42.67
			c0,23.453,18.923,42.487,42.335,42.665h0.332C428.902,458.668,448.004,439.567,448.004,416.004z"/>
		<path style="fill:#FF9600;" d="M106.662,458.668c23.567,0,42.667-19.101,42.667-42.665c0-19.163-12.629-35.374-30.019-40.765
			c-3.998-1.237-8.245-1.905-12.647-1.905c-23.563,0-42.669,19.104-42.669,42.67c0,23.453,18.927,42.487,42.337,42.665H106.662z"/>
	</g>
</g>
<g>
	<path style="fill:#000003;" d="M458.671,214.239v-11.57c0-17.645-14.354-32-31.998-32H319.998v-53.337
		c0-5.891-4.775-10.667-10.667-10.667h-32V74.669c0-5.891-4.775-10.667-10.667-10.667H121.758L103.543,45.79
		c-4.166-4.165-10.918-4.165-15.086,0l-60.877,60.876H10.667C4.775,106.666,0,111.441,0,117.333v298.67
		c0,5.891,4.775,10.667,10.667,10.667h43.738c1.604,7.877,4.955,15.127,9.621,21.331H42.665c-5.891,0-10.667,4.775-10.667,10.667
		s4.775,10.667,10.667,10.667h63.998l0,0h0.002c25.755,0,47.302-18.351,52.258-42.665h150.409h43.748
		c1.606,7.877,4.955,15.127,9.623,21.331h-21.362c-5.891,0-10.667,4.775-10.667,10.667s4.775,10.667,10.667,10.667h63.998h0.002l0,0
		c25.757,0,47.302-18.351,52.258-42.665h43.734c5.891,0,10.667-4.775,10.667-10.667v-96.001v-42.672
		C512,245.677,488.898,219.334,458.671,214.239z M255.998,85.336v21.33h-91.575l-21.331-21.329h112.907V85.336z M96.002,68.417
		l38.25,38.249H57.753L96.002,68.417z M106.665,447.999c-17.646,0-32.002-14.355-32.002-32c0-17.644,14.356-31.999,32.002-31.999
		c17.644,0,31.998,14.355,31.998,31.999C138.662,433.644,124.308,447.999,106.665,447.999z M298.665,181.337v181.331h-72.542
		c-5.891,0-10.667,4.775-10.667,10.667s4.775,10.667,10.667,10.667h72.542v21.334H158.923
		c-4.955-24.315-26.502-42.668-52.258-42.668s-47.307,18.353-52.262,42.668H21.333v-170.67h42.662
		c5.892,0,10.667-4.775,10.667-10.667c0-5.891-4.775-10.667-10.667-10.667H21.333v-21.33h127.996
		c5.889,0,10.667-4.775,10.667-10.667c0-5.891-4.778-10.667-10.667-10.667H21.333v-42.67h277.331V181.337z M353.079,405.335h-33.082
		V384h42.704C358.033,390.206,354.684,397.457,353.079,405.335z M405.34,447.999c-17.646,0-32-14.355-32-32
		c0-17.644,14.354-31.999,32-31.999c17.644,0,31.998,14.355,31.998,31.999C437.338,433.644,422.983,447.999,405.34,447.999z
		 M490.667,405.335h-33.069c-4.955-24.315-26.502-42.668-52.258-42.668l0,0h-0.002h-85.34V192.004h106.675
		c5.882,0,10.665,4.785,10.665,10.667v10.662h-74.665c-5.891,0-10.667,4.775-10.667,10.667V320c0,5.891,4.775,10.667,10.667,10.667
		h127.994V405.335z M394.673,234.666v74.668H373.34v-74.668H394.673z M490.667,309.334h-74.66v-74.668h31.998
		c23.525,0,42.662,19.139,42.662,42.662V309.334z"/>
	<path style="fill:#000003;" d="M184.398,384h6.656c5.891,0,10.667-4.775,10.667-10.667s-4.775-10.667-10.667-10.667h-6.656
		c-5.891,0-10.667,4.775-10.667,10.667C173.731,379.225,178.507,384,184.398,384z"/>
	<path style="fill:#000003;" d="M184.398,192.004h6.656c5.891,0,10.667-4.775,10.667-10.667c0-5.891-4.775-10.667-10.667-10.667
		h-6.656c-5.891,0-10.667,4.775-10.667,10.667C173.731,187.228,178.507,192.004,184.398,192.004z"/>
</g>
<g>
	<path style="fill:#FFD72E;" d="M106.665,432.002c8.813,0,16-7.187,16-15.998c0-8.813-7.187-16.003-16-16.003
		c-8.815,0-16.002,7.19-16.002,16.003C90.662,424.814,97.85,432.002,106.665,432.002z"/>
	<path style="fill:#FFD72E;" d="M405.34,432.002c8.811,0,15.998-7.187,15.998-15.998c0-8.813-7.187-16.003-15.998-16.003
		c-8.813,0-16.002,7.19-16.002,16.003C389.338,424.814,396.527,432.002,405.34,432.002z"/>
</g>
</svg>