<svg class="svg-icon" style="width: 1em;height: 1em;vertical-align: middle;fill: currentColor;overflow: hidden;" viewBox="0 0 1024 1024" version="1.1" xmlns="http://www.w3.org/2000/svg"><path d="M960 512c0 247.4-200.6 448-448 448-19.6 0-38.9-1.3-57.8-3.7h-0.1c-27.1-3.5-53.5-9.5-78.9-17.6C194.7 880.9 64 711.7 64 512 64 264.6 264.6 64 512 64c85.8 0 166 24.1 234.1 66 6.1 3.8 12.2 7.7 18.1 11.7 55.9 38.1 102.7 88.6 136.5 147.4C938.4 354.8 960 430.9 960 512z" fill="#F7C832" /><path d="M960 512c0 247.4-200.6 448-448 448-19.6 0-38.9-1.3-57.8-3.7L270.7 772.6 746.1 130c6.1 3.8 12.2 7.7 18.1 11.7 55.9 38.1 102.7 88.6 136.5 147.4C938.4 354.8 960 430.9 960 512z" fill="#F3A333" /><path d="M767.3 171.8V729c0 33.1-26.9 60-60 60H311.8c-33.1 0-60-26.9-60-60V219l-92.3-107.7 92.3 0.5h455.5c33.1 0 60 26.9 60 60z" fill="#B4FBFC" /><path d="M843.9 679v50c0 33.1-26.9 60-60 60H312.5c33.1 0 60-26.9 60-60v-50h471.4z" fill="#96F5E6" /><path d="M251.8 261.4H67.1v-57.8c0-51 41.3-92.3 92.3-92.3s92.3 41.3 92.3 92.3v57.8h0.1z" fill="#4FE0C4" /><path d="M767.3 171.8V729c0 33.1-26.9 60-60 60H512.2V111.8h195.1c33.1 0 60 26.9 60 60z" fill="#96F5E6" /><path d="M843.9 679v50c0 33.1-26.9 60-60 60H512.2V679h331.7z" fill="#4FE0C4" /><path d="M558 240.5c0-9.8 8-17.8 17.8-17.8h92.4c9.8 0 17.8 8 17.8 17.8s-8 17.8-17.8 17.8h-92.4c-9.8 0-17.8-8-17.8-17.8z" fill="#E02B6C" /><path d="M686 340.6c0 9.8-8 17.8-17.8 17.8H355.8c-4.9 0-9.4-2-12.6-5.2s-5.2-7.7-5.2-12.6c0-9.8 8-17.8 17.8-17.8h312.4c4.9 0 9.4 2 12.6 5.2 3.2 3.3 5.2 7.7 5.2 12.6zM686 440.7c0 9.8-8 17.8-17.8 17.8H355.8c-4.9 0-9.4-2-12.6-5.2s-5.2-7.7-5.2-12.6c0-9.8 8-17.8 17.8-17.8h312.4c4.9 0 9.4 2 12.6 5.2 3.2 3.3 5.2 7.7 5.2 12.6zM355.8 522.9h126.3c4.9 0 9.4 2 12.6 5.2 3.2 3.3 5.2 7.7 5.2 12.6 0 9.8-8 17.8-17.8 17.8H355.8c-4.9 0-9.4-2-12.6-5.2s-5.2-7.7-5.2-12.6c0-9.8 8-17.8 17.8-17.8z" fill="#E95C94" /><path d="M680.8 428.1c3.2 3.3 5.2 7.7 5.2 12.6 0 9.8-8 17.8-17.8 17.8h-156v-35.6h156c4.9 0 9.4 2 12.6 5.2zM668.2 358.4h-156v-35.6h156c4.9 0 9.4 2 12.6 5.2 3.2 3.3 5.2 7.7 5.2 12.6 0 9.8-8 17.8-17.8 17.8z" fill="#E02B6C" /><path d="M624.071 540.8l205.293-266.756 63.083 48.548-205.293 266.755z" fill="#3F2867" /><path d="M829.186 274.081l17.016-22.11 63.083 48.548-17.016 22.11z" fill="#FFFFFF" /><path d="M624 540.8l63.1 48.6-55.3 32.6-36.9 21.9 11.6-41.3z" fill="#F8CFB8" /><path d="M938.8 262.3l-29.4 38.3-63.1-48.6 29.4-38.3c7.7-10.1 22.2-11.9 32.2-4.2l26.7 20.5c10.1 7.8 12 22.2 4.2 32.3z" fill="#E9467F" /><path d="M606.5 602.6l25.3 19.4-36.9 21.9z" fill="#4F4E6C" /></svg>