<?xml version="1.0" encoding="UTF-8"?>
<svg id="Layer_1" data-name="Layer 1" xmlns="http://www.w3.org/2000/svg" xmlns:xlink="http://www.w3.org/1999/xlink" viewBox="0 0 300 300">
  <defs>
    <style>
      .cls-1, .cls-2, .cls-3, .cls-4, .cls-5 {
        fill: none;
      }

      .cls-1, .cls-6 {
        opacity: .3;
      }

      .cls-2 {
        opacity: .4;
      }

      .cls-7 {
        fill: url(#linear-gradient);
      }

      .cls-8 {
        fill: #fff;
      }

      .cls-9 {
        fill: #f1f1f1;
      }

      .cls-10 {
        fill: #bcbcbc;
      }

      .cls-11 {
        fill: #c8ede5;
      }

      .cls-12, .cls-6 {
        fill: #ddd;
      }

      .cls-13 {
        fill: #d2cfcd;
      }

      .cls-14, .cls-15 {
        fill: #1e2f54;
      }

      .cls-16 {
        fill: #0e203a;
      }

      .cls-15 {
        filter: url(#drop-shadow-8);
      }

      .cls-3 {
        filter: url(#drop-shadow-7);
      }

      .cls-4 {
        filter: url(#drop-shadow-6);
      }

      .cls-5 {
        filter: url(#drop-shadow-5);
      }
    </style>
    <linearGradient id="linear-gradient" x1="2.44" y1="150" x2="297.56" y2="150" gradientTransform="translate(103.42 -56.95) rotate(32.32)" gradientUnits="userSpaceOnUse">
      <stop offset="0" stop-color="#eb601c"/>
      <stop offset=".97" stop-color="#ef7a47"/>
      <stop offset="1" stop-color="#ef7b48"/>
    </linearGradient>
    <filter id="drop-shadow-5" filterUnits="userSpaceOnUse">
      <feOffset dx="7" dy="7"/>
      <feGaussianBlur result="blur" stdDeviation="5"/>
      <feFlood flood-color="#757474" flood-opacity=".75"/>
      <feComposite in2="blur" operator="in"/>
      <feComposite in="SourceGraphic"/>
    </filter>
    <filter id="drop-shadow-6" filterUnits="userSpaceOnUse">
      <feOffset dx="7" dy="7"/>
      <feGaussianBlur result="blur-2" stdDeviation="7"/>
      <feFlood flood-color="#494949" flood-opacity=".44"/>
      <feComposite in2="blur-2" operator="in"/>
      <feComposite in="SourceGraphic"/>
    </filter>
    <filter id="drop-shadow-7" filterUnits="userSpaceOnUse">
      <feOffset dx="7" dy="7"/>
      <feGaussianBlur result="blur-3" stdDeviation="7"/>
      <feFlood flood-color="#494949" flood-opacity=".44"/>
      <feComposite in2="blur-3" operator="in"/>
      <feComposite in="SourceGraphic"/>
    </filter>
    <filter id="drop-shadow-8" filterUnits="userSpaceOnUse">
      <feOffset dx="7" dy="7"/>
      <feGaussianBlur result="blur-4" stdDeviation="7"/>
      <feFlood flood-color="#494949" flood-opacity=".44"/>
      <feComposite in2="blur-4" operator="in"/>
      <feComposite in="SourceGraphic"/>
    </filter>
  </defs>
  <ellipse class="cls-7" cx="150" cy="150" rx="162.96" ry="98.9" transform="translate(-56.95 103.42) rotate(-32.32)"/>
  <g>
    <g class="cls-5">
      <rect class="cls-9" x="83.35" y="79.17" width="180.34" height="144.41" rx="9.49" ry="9.49"/>
      <path class="cls-13" d="m252.68,224.58H94.62c-6.21,0-11.27-5.06-11.27-11.27,0-.55.45-1,1-1s1,.45,1,1c0,5.11,4.16,9.26,9.26,9.26h158.07c5.11,0,9.26-4.16,9.26-9.26v-123.87c0-.55.45-1,1-1s1,.45,1,1v123.87c0,6.21-5.06,11.27-11.27,11.27Z"/>
      <path class="cls-14" d="m254.35,79.17H92.95c-5.23,0-9.47,4.24-9.47,9.47v8.83h180.34v-8.83c0-5.23-4.24-9.47-9.47-9.47Z"/>
      <g>
        <path class="cls-9" d="m217.47,88.32c0,2.54-2.06,4.6-4.6,4.6s-4.6-2.06-4.6-4.6,2.06-4.6,4.6-4.6,4.6,2.06,4.6,4.6Z"/>
        <path class="cls-9" d="m236,88.32c0,2.54-2.06,4.6-4.6,4.6s-4.6-2.06-4.6-4.6,2.06-4.6,4.6-4.6,4.6,2.06,4.6,4.6Z"/>
        <path class="cls-9" d="m254.54,88.32c0,2.54-2.06,4.6-4.6,4.6s-4.6-2.06-4.6-4.6,2.06-4.6,4.6-4.6,4.6,2.06,4.6,4.6Z"/>
      </g>
      <g>
        <path class="cls-11" d="m176.98,84.41h-20.09c-.55,0-1-.45-1-1s.45-1,1-1h20.09c.55,0,1,.45,1,1s-.45,1-1,1Z"/>
        <path class="cls-11" d="m142.83,84.41h-50.33c-.55,0-1-.45-1-1s.45-1,1-1h50.33c.55,0,1,.45,1,1s-.45,1-1,1Z"/>
      </g>
      <g>
        <rect class="cls-12" x="98.69" y="109.75" width="148.98" height="53.68" rx="6.6" ry="6.6"/>
        <rect class="cls-12" x="98.69" y="171.46" width="62.61" height="41.18"/>
        <rect class="cls-12" x="185.07" y="171.46" width="62.61" height="41.18" rx="6.79" ry="6.79"/>
        <g>
          <path class="cls-10" d="m152.98,183.23h-45.98c-.55,0-1-.45-1-1s.45-1,1-1h45.98c.55,0,1,.45,1,1s-.45,1-1,1Z"/>
          <path class="cls-10" d="m152.98,193.05h-45.98c-.55,0-1-.45-1-1s.45-1,1-1h45.98c.55,0,1,.45,1,1s-.45,1-1,1Z"/>
          <path class="cls-10" d="m152.98,202.87h-45.98c-.55,0-1-.45-1-1s.45-1,1-1h45.98c.55,0,1,.45,1,1s-.45,1-1,1Z"/>
        </g>
        <g>
          <path class="cls-10" d="m239.36,183.23h-45.98c-.55,0-1-.45-1-1s.45-1,1-1h45.98c.55,0,1,.45,1,1s-.45,1-1,1Z"/>
          <path class="cls-10" d="m239.36,193.05h-45.98c-.55,0-1-.45-1-1s.45-1,1-1h45.98c.55,0,1,.45,1,1s-.45,1-1,1Z"/>
          <path class="cls-10" d="m239.36,202.87h-45.98c-.55,0-1-.45-1-1s.45-1,1-1h45.98c.55,0,1,.45,1,1s-.45,1-1,1Z"/>
        </g>
        <g>
          <path class="cls-10" d="m238.24,118.79h-45.98c-.55,0-1-.45-1-1s.45-1,1-1h45.98c.55,0,1,.45,1,1s-.45,1-1,1Z"/>
          <path class="cls-10" d="m238.24,128.61h-45.98c-.55,0-1-.45-1-1s.45-1,1-1h45.98c.55,0,1,.45,1,1s-.45,1-1,1Z"/>
          <path class="cls-10" d="m238.24,138.43h-45.98c-.55,0-1-.45-1-1s.45-1,1-1h45.98c.55,0,1,.45,1,1s-.45,1-1,1Z"/>
          <path class="cls-10" d="m238.24,146.88h-45.98c-.55,0-1-.45-1-1s.45-1,1-1h45.98c.55,0,1,.45,1,1s-.45,1-1,1Z"/>
          <path class="cls-10" d="m238.24,156.7h-45.98c-.55,0-1-.45-1-1s.45-1,1-1h45.98c.55,0,1,.45,1,1s-.45,1-1,1Z"/>
        </g>
      </g>
      <path class="cls-14" d="m141.96,228l1.42-8.17-3.18-.83c-.1-2.6-.69-5.11-1.68-7.42l2.53-2.12-4.78-6.78-2.84,1.67c-1.85-1.71-4.01-3.11-6.43-4.08l.29-3.27-8.17-1.42-.83,3.18c-2.6.1-5.11.69-7.42,1.68l-2.12-2.53-6.78,4.78,1.67,2.84c-1.71,1.85-3.11,4.01-4.08,6.43l-3.27-.29-1.42,8.17,3.18.83c.1,2.6.69,5.11,1.68,7.42l-2.53,2.12,4.78,6.78,2.84-1.67c1.85,1.71,4.01,3.11,6.43,4.08l-.29,3.27,8.17,1.42.83-3.18c2.6-.1,5.11-.69,7.42-1.68l2.12,2.53,6.78-4.78-1.67-2.84c1.71-1.85,3.11-4.01,4.08-6.43l3.27.29Zm-37.43-11.04c1.37-7.9,8.88-13.2,16.78-11.83s13.2,8.88,11.83,16.78c-1.37,7.9-8.88,13.2-16.78,11.83s-13.2-8.88-11.83-16.78Z"/>
      <g>
        <path class="cls-6" d="m100.32,221.04c-.22,0-.41-.16-.43-.39-.01-.11-1.12-10.84,7.59-17.01,8.97-6.36,20.43-3.37,24.93,1.12.17.17.17.45,0,.62-.17.17-.45.17-.62,0-4.37-4.37-15.54-6.88-23.8-1.03-8.28,5.86-7.23,16.09-7.22,16.19.03.24-.15.46-.39.48-.02,0-.03,0-.05,0Z"/>
        <path class="cls-6" d="m138.42,216.5c-.21,0-.4-.16-.43-.37-.8-5.25-3.53-7.71-3.56-7.74-.18-.16-.2-.44-.04-.62.16-.18.44-.2.62-.04.12.11,3,2.68,3.85,8.27.04.24-.13.46-.37.5-.02,0-.04,0-.07,0Z"/>
        <path class="cls-6" d="m118.87,234.89c-.89,0-1.78-.08-2.67-.23-4.07-.7-7.61-2.95-9.99-6.32-2.38-3.37-3.3-7.47-2.59-11.54,1.45-8.39,9.47-14.04,17.86-12.59,8.39,1.45,14.04,9.46,12.59,17.86-.7,4.07-2.95,7.61-6.32,9.99-2.63,1.86-5.71,2.83-8.87,2.83Zm-.04-30c-6.94,0-13.1,5-14.32,12.06-1.37,7.9,3.95,15.44,11.85,16.81,7.91,1.37,15.44-3.95,16.81-11.85,1.37-7.9-3.95-15.44-11.85-16.81-.84-.14-1.67-.21-2.49-.21Z"/>
        <path class="cls-6" d="m118.8,237.87c-1.06,0-2.13-.09-3.2-.28-.24-.04-.41-.27-.37-.5.04-.24.25-.4.49-.36,4.67.81,9.36-.24,13.21-2.96,3.86-2.72,6.42-6.77,7.23-11.42.04-.24.27-.4.51-.36.24.04.4.27.36.51-.84,4.88-3.54,9.14-7.58,11.99-3.16,2.23-6.85,3.39-10.64,3.39Z"/>
        <path class="cls-6" d="m134.88,237.28c-.14,0-.28-.07-.36-.19l-1.43-2.07c-.14-.2-.09-.47.11-.61.2-.14.47-.09.61.11l1.43,2.07c.14.2.09.47-.11.61-.08.05-.16.08-.25.08Z"/>
        <path class="cls-6" d="m142.36,221.04s-.07,0-.11-.01l-2.55-.64c-.23-.06-.38-.3-.32-.53.06-.23.29-.38.53-.32l2.55.64c.23.06.38.3.32.53-.05.2-.23.33-.42.33Z"/>
        <path class="cls-6" d="m118.4,243.34s-.07,0-.1-.01c-.24-.06-.38-.29-.32-.53l.64-2.63c.06-.23.3-.38.53-.32.24.06.38.29.32.53l-.64,2.63c-.05.2-.23.34-.42.34Z"/>
      </g>
      <g>
        <path class="cls-14" d="m83.86,189.5l-24.53,26.51c-5.14-1.62-10.99-.29-14.89,3.93-4.1,4.43-4.87,10.75-2.45,15.9l10.13-10.95,8.17,7.56-10.02,10.83c5.24,1.82,11.28.52,15.29-3.81,3.91-4.22,4.78-10.15,2.77-15.15l24.53-26.51c5.14,1.62,10.99.29,14.89-3.93,4-4.33,4.84-10.46,2.62-15.54l-10.02,10.83-8.17-7.56,10.13-10.95c-5.32-2.02-11.56-.76-15.66,3.67-3.91,4.22-4.78,10.15-2.77,15.15Z"/>
        <g class="cls-2">
          <path class="cls-12" d="m79.35,199.87c-.17,0-.35-.06-.48-.19-.29-.27-.3-.71-.04-1l5.19-5.58c.27-.29.71-.3,1-.04.29.27.3.71.04,1l-5.19,5.58c-.14.15-.33.23-.52.23Z"/>
          <path class="cls-12" d="m62.01,218.5c-.17,0-.35-.06-.48-.19-.29-.27-.3-.71-.04-1l12.79-13.75c.27-.29.71-.3,1-.04.29.27.3.71.04,1l-12.79,13.75c-.14.15-.33.23-.52.23Z"/>
          <path class="cls-12" d="m43.02,230.36s-.03,0-.04,0c-.39-.02-.69-.35-.67-.74.01-.24.39-5.98,5.52-9.73,5.17-3.77,10.37-1.9,10.59-1.82.37.14.55.54.42.91-.13.37-.54.55-.91.42-.19-.07-4.73-1.68-9.27,1.63-4.58,3.34-4.94,8.61-4.94,8.66-.02.38-.33.67-.7.67Z"/>
          <path class="cls-12" d="m86.46,189.05c-.21,0-.42-.1-.56-.28-.09-.11-2.12-2.86-1.32-7.22.35-1.93,1.5-4.74,3.66-6.84.28-.27.73-.27,1,.01.27.28.27.73-.01,1-1.92,1.87-2.94,4.36-3.25,6.08-.68,3.73.99,6.02,1.06,6.12.23.31.17.75-.14.99-.13.1-.28.14-.42.14Z"/>
          <path class="cls-12" d="m64.46,238.02c-.21,0-.41-.09-.55-.26-.24-.3-.2-.75.1-.99.14-.11,3.11-2.66,2.4-8.91-.04-.39.23-.74.62-.78.38-.04.74.23.78.62.8,7.08-2.76,10.05-2.91,10.17-.13.11-.29.16-.44.16Z"/>
          <path class="cls-12" d="m106.85,192.46c-.17,0-.35-.06-.49-.19-.28-.27-.29-.71-.03-1h0s2.61-2.86,2.41-8.42c-.01-.39.29-.72.68-.73.42,0,.72.29.73.68.22,6.19-2.67,9.31-2.79,9.44-.14.15-.33.22-.51.22Z"/>
        </g>
      </g>
    </g>
    <g class="cls-4">
      <g>
        <g>
          <rect class="cls-9" x="35.75" y="54.88" width="144.67" height="103.64" rx="5.59" ry="5.59"/>
          <path class="cls-13" d="m173.93,159.53H42.39c-3.89,0-7.05-3.16-7.05-7.05,0-.55.45-1,1-1s1,.45,1,1c0,2.78,2.26,5.05,5.05,5.05h131.54c2.78,0,5.05-2.26,5.05-5.05V60.93c0-.55.45-1,1-1s1,.45,1,1v91.54c0,3.89-3.16,7.05-7.05,7.05Z"/>
          <path class="cls-14" d="m174.91,54.88H41.82c-3.35,0-6.07,2.71-6.07,6.05v4.73h145.24v-4.73c0-3.34-2.72-6.05-6.07-6.05Z"/>
          <g>
            <circle class="cls-9" cx="150.46" cy="60.28" r="2.71"/>
            <circle class="cls-9" cx="161.39" cy="60.28" r="2.71"/>
            <circle class="cls-9" cx="172.31" cy="60.28" r="2.71"/>
          </g>
          <g>
            <path class="cls-9" d="m130.41,61h-11.84c-.48,0-.87-.39-.87-.87s.39-.87.87-.87h11.84c.48,0,.87.39.87.87s-.39.87-.87.87Z"/>
            <path class="cls-9" d="m110.28,61H42.23c-.48,0-.87-.39-.87-.87s.39-.87.87-.87h68.05c.48,0,.87.39.87.87s-.39.87-.87.87Z"/>
          </g>
        </g>
        <g>
          <g>
            <rect class="cls-12" x="123.02" y="71.68" width="50.72" height="46.19" rx="1.64" ry="1.64"/>
            <rect class="cls-12" x="43.31" y="126.63" width="130.43" height="7.55" rx="1.64" ry="1.64"/>
            <rect class="cls-12" x="43.31" y="141.12" width="130.43" height="7.55" rx="1.64" ry="1.64"/>
          </g>
          <g>
            <rect class="cls-14" x="43.31" y="71.68" width="72.16" height="46.19" rx="1.64" ry="1.64"/>
            <g>
              <path class="cls-8" d="m66.59,108.56c-.22,0-.44-.07-.62-.22l-15.58-12.26c-.23-.18-.37-.46-.38-.75-.01-.29.11-.58.33-.78l15.58-14.28c.41-.37,1.04-.35,1.42.06.37.41.35,1.04-.06,1.42l-13.28,12.18c-.75.69-.7,1.88.09,2.51l13.13,10.34c.44.34.51.97.17,1.41-.2.25-.49.38-.79.38Z"/>
              <path class="cls-8" d="m94.01,108.56c-.3,0-.59-.13-.79-.38-.34-.44-.27-1.07.17-1.41l13.13-10.34c.8-.63.84-1.82.09-2.51l-13.28-12.18c-.41-.37-.44-1.01-.06-1.42.38-.41,1.01-.44,1.42-.06l15.58,14.28c.22.2.34.48.33.78-.01.29-.15.57-.38.75l-15.58,12.26c-.18.14-.4.22-.62.22Z"/>
              <path class="cls-8" d="m73.16,112.81c-.13,0-.26-.03-.39-.08-.51-.21-.75-.8-.54-1.31l14.14-33.76c.21-.51.8-.75,1.31-.54.51.21.75.8.54,1.31l-14.14,33.76c-.16.38-.53.62-.93.62Z"/>
            </g>
          </g>
        </g>
      </g>
    </g>
    <path class="cls-14" d="m134.48,76.86c-10.1,0-18.28,8.18-18.28,18.28s8.18,18.28,18.28,18.28,18.28-8.18,18.28-18.28-8.18-18.28-18.28-18.28Zm-4.7,1.74c-.83.88-1.6,2-2.27,3.34-.42.83-.8,1.73-1.13,2.68-.15-.08-.29-.16-.44-.25-.11-.07-.22-.13-.33-.2-.89-.55-1.73-1.19-2.51-1.89,1.94-1.72,4.22-2.97,6.69-3.67Zm-7.59,4.53c.88.8,1.82,1.51,2.82,2.13.12.08.24.14.35.21.21.12.42.24.64.36-.77,2.63-1.2,5.54-1.26,8.68h-7.44c.15-4.31,1.88-8.3,4.89-11.38Zm-4.89,12.66h7.43c.06,3.14.49,6.03,1.25,8.64-.21.12-.43.25-.64.37-.11.06-.23.14-.35.21-1,.62-1.95,1.32-2.84,2.12-2.89-2.96-4.69-6.92-4.87-11.35Zm5.78,12.24c.79-.71,1.63-1.35,2.53-1.91.11-.07.22-.13.33-.2.15-.09.29-.17.44-.25.33.95.71,1.84,1.13,2.68.68,1.34,1.45,2.46,2.28,3.34-2.54-.71-4.81-1.98-6.71-3.66Zm10.73,4.29c-.12,0-.09,0-.13,0-.44-.02-.88-.06-1.32-.11-1.48-.76-2.84-2.31-3.97-4.54-.39-.77-.74-1.61-1.04-2.49,1.21-.58,2.48-1.01,3.79-1.29.12-.03.24-.05.37-.08.76-.15,1.49-.24,2.3-.29v8.81Zm0-10.05c-.93.05-1.68.15-2.5.3-.12.02-.25.05-.39.08-1.37.29-2.7.71-3.96,1.29-.71-2.46-1.12-5.24-1.18-8.16h8.02v6.48Zm0-7.76h-8.03c.05-2.91.46-5.72,1.18-8.2,1.26.59,2.59,1.03,3.96,1.32.14.03.27.06.39.08.82.16,1.57.26,2.5.3v6.5Zm0-7.75c-.82-.05-1.54-.14-2.3-.29-.13-.03-.25-.05-.37-.08-1.31-.28-2.58-.72-3.79-1.29.31-.88.65-1.72,1.04-2.49,1.12-2.23,2.49-3.78,3.97-4.54.44-.05.88-.09,1.33-.11.04,0,.02,0,.13,0v8.81Zm17.86,7.75h-7.44c-.05-2.91-.45-5.8-1.16-8.34.22-.11.45-.22.67-.34.13-.07.24-.13.35-.19,1.08-.61,2.1-1.32,3.04-2.13,2.79,3.03,4.39,6.93,4.54,11.01Zm-5.42-11.9c-.85.72-1.76,1.36-2.72,1.91-.12.07-.23.13-.34.19-.16.09-.32.17-.48.25-.36-1.08-.77-2.09-1.24-3.02-.68-1.34-1.45-2.46-2.28-3.34,2.63.75,5.04,2.11,7.07,4.02Zm-11.16-4.66s.13,0,.18,0c.44.02.9.06,1.34.11,1.48.76,2.86,2.31,3.98,4.54.43.86.82,1.8,1.15,2.79-1.24.53-2.53.91-3.87,1.14-.12.02-.26.04-.4.06-.77.12-1.56.18-2.38.19v-8.84Zm0,10.08c.82-.01,1.72-.08,2.54-.2.15-.02.29-.04.4-.06,1.4-.24,2.76-.62,4.05-1.16.67,2.4,1.05,5.1,1.1,7.9h-8.09v-6.47Zm0,7.76h8.09c-.05,2.8-.43,5.47-1.09,7.85-1.3-.54-2.65-.92-4.05-1.15-.12-.02-.26-.03-.42-.06-.83-.12-1.73-.18-2.54-.19v-6.45Zm1.51,16.42c-.44.05-.89.09-1.34.11-.05,0-.18,0-.18,0v-8.84c.82.01,1.61.07,2.38.19.13.02.26.04.38.06,1.33.23,2.63.61,3.87,1.14-.33.99-.71,1.93-1.14,2.79-1.12,2.23-2.5,3.78-3.98,4.54Zm2.58-.52c.83-.88,1.6-2,2.28-3.34.47-.93.89-1.94,1.24-3.02.16.08.32.16.49.25.1.06.21.12.33.18.97.55,1.89,1.2,2.74,1.92-1.97,1.85-4.38,3.24-7.09,4Zm7.97-4.92c-.95-.82-1.97-1.52-3.06-2.12-.11-.06-.23-.13-.35-.19-.22-.12-.44-.26-.67-.36.7-2.52,1.1-5.27,1.16-8.3h7.43c-.17,4.31-1.83,8.06-4.52,10.98Z"/>
    <g class="cls-3">
      <rect class="cls-16" x="209.76" y="189.73" width="11.89" height="12.85" transform="translate(506.93 182.33) rotate(135)"/>
      <path class="cls-14" d="m160.03,193.63c14.68,14.68,38.48,14.68,53.15,0,14.68-14.68,14.68-38.48,0-53.15-14.68-14.68-38.48-14.68-53.15,0-14.68,14.68-14.68,38.48,0,53.15Zm6.6-6.6c-10.92-10.92-10.92-28.62,0-39.53,10.92-10.92,28.62-10.92,39.53,0,10.92,10.92,10.92,28.62,0,39.53-10.92,10.92-28.62,10.92-39.53,0Z"/>
      <path class="cls-14" d="m262.3,242.75h0c3.16-3.16,3.16-8.28,0-11.44l-38.35-38.35-11.44,11.44,38.35,38.35c3.16,3.16,8.28,3.16,11.44,0Z"/>
      <g class="cls-1">
        <path class="cls-12" d="m259.27,234.4c-.27,0-.55-.1-.76-.31l-7.4-7.4c-.42-.42-.42-1.1,0-1.51.42-.42,1.1-.42,1.51,0l7.4,7.4c.42.42.42,1.1,0,1.51-.21.21-.48.31-.76.31Z"/>
        <path class="cls-12" d="m246.15,221.28c-.27,0-.55-.1-.76-.31l-22.71-22.71c-.42-.42-.42-1.1,0-1.51.42-.42,1.1-.42,1.51,0l22.71,22.71c.42.42.42,1.1,0,1.51-.21.21-.48.31-.76.31Z"/>
      </g>
      <g class="cls-1">
        <path class="cls-12" d="m154.01,161.07h-.01c-.54,0-.98-.44-.98-.98,0-.86.86-4.83,3.49-9.35.28-.47.89-.64,1.36-.36.48.28.64.89.36,1.36-2.56,4.39-3.21,7.96-3.22,8.35-.01.54-.46.98-1,.98Z"/>
        <path class="cls-12" d="m162.86,145.21c-.26,0-.52-.1-.71-.3-.38-.39-.38-1.02.02-1.41,3.49-3.41,7.74-6.09,12.61-7.97,18.19-7.02,32.32,5.22,32.46,5.35.41.36.45.99.09,1.4-.36.41-.99.45-1.4.09-.13-.12-13.39-11.56-30.43-4.98-4.62,1.78-8.64,4.32-11.94,7.53-.19.19-.44.28-.69.28Z"/>
      </g>
    </g>
    <path class="cls-15" d="m184.86,181.31c-.57,0-1.11-.22-1.51-.63l-13.18-13.18c-.84-.84-.84-2.19,0-3.03.84-.84,2.19-.84,3.03,0l11.46,11.46,17.08-22.04c.73-.93,2.07-1.11,3-.38.94.72,1.11,2.07.38,3l-18.57,23.96c-.38.49-.94.79-1.56.83-.04,0-.09,0-.13,0Z"/>
  </g>
</svg>