<?xml version="1.0" encoding="UTF-8"?>
<!DOCTYPE svg PUBLIC "-//W3C//DTD SVG 1.1//EN" "http://www.w3.org/Graphics/SVG/1.1/DTD/svg11.dtd">
<!-- Creator: CorelDRAW -->
<svg xmlns="http://www.w3.org/2000/svg" xml:space="preserve" width="800px" height="800px" version="1.1" style="shape-rendering:geometricPrecision; text-rendering:geometricPrecision; image-rendering:optimizeQuality; fill-rule:evenodd; clip-rule:evenodd"
viewBox="0 0 800 800"
 xmlns:xlink="http://www.w3.org/1999/xlink">
 <defs>
  <style type="text/css">
   <![CDATA[
    .fil6 {fill:#0071BC}
    .fil3 {fill:#27A2DB}
    .fil8 {fill:#29485A}
    .fil7 {fill:#39B54A}
    .fil2 {fill:#3A556A}
    .fil0 {fill:#EBEBEB}
    .fil1 {fill:#EBF0F3}
    .fil5 {fill:#ED1C24}
    .fil4 {fill:#F8CF26}
   ]]>
  </style>
 </defs>
 <g id="Layer_x0020_1">
  <metadata id="CorelCorpID_0Corel-Layer"/>
  <path class="fil0" d="M400 0c289,0 400,111 400,400 0,289 -111,400 -400,400 -289,0 -400,-111 -400,-400 0,-289 111,-400 400,-400z"/>
  <g id="_442402280">
   <path class="fil1" d="M625 629l-450 0c-17,0 -31,-14 -31,-31l0 -396c0,-17 14,-31 31,-31l450 0c17,0 31,14 31,31l0 396c0,17 -14,31 -31,31z"/>
   <path class="fil2" d="M160 271l480 0 16 0 0 -69c0,-17 -14,-31 -31,-31l-450 0c-17,0 -31,14 -31,31l0 69 16 0z"/>
   <path class="fil3" d="M216 258c-16,0 -29,-13 -29,-29 0,-16 13,-29 29,-29 15,0 28,13 28,29 0,16 -13,29 -28,29z"/>
   <path class="fil4" d="M302 258c-16,0 -29,-13 -29,-29 0,-16 13,-29 29,-29 16,0 28,13 28,29 0,16 -12,29 -28,29z"/>
   <path class="fil5" d="M558 237l-148 0c-5,0 -8,-4 -8,-8 0,-4 3,-8 8,-8l148 0c5,0 8,4 8,8 0,4 -3,8 -8,8z"/>
   <g>
    <g>
     <path class="fil6" d="M266 345l0 0 0 0 0 95 95 0 0 0 0 0c0,52 -43,94 -95,94 -52,0 -95,-42 -95,-94 0,-53 43,-95 95,-95z"/>
     <path class="fil7" d="M310 300l0 0c53,0 95,43 95,95l0 0 -95 0 0 -95z"/>
    </g>
    <g>
     <path class="fil4" d="M412 599c-4,0 -7,-3 -8,-7l-30 0c0,4 -4,7 -8,7 -4,0 -8,-4 -8,-8l0 -68c0,-4 4,-8 8,-8l46 0c5,0 8,4 8,8l0 68c0,4 -3,8 -8,8z"/>
     <path class="fil7" d="M495 599c-4,0 -8,-4 -8,-8l0 0 -30 0 0 0c0,4 -3,8 -8,8 -4,0 -8,-4 -8,-8l0 -146c0,-5 4,-8 8,-8l46 0c5,0 8,3 8,8l0 146c0,4 -3,8 -8,8z"/>
     <path class="fil5" d="M579 599c-5,0 -8,-3 -8,-7l-31 0c0,4 -3,7 -8,7 -4,0 -8,-4 -8,-8l0 -104c0,-5 4,-8 8,-8l47 0c4,0 8,3 8,8l0 104c0,4 -4,8 -8,8z"/>
     <path class="fil8" d="M621 599l-297 0c-5,0 -8,-4 -8,-8 0,-4 3,-8 8,-8l297 0c4,0 8,4 8,8 0,4 -4,8 -8,8z"/>
    </g>
   </g>
  </g>
 </g>
</svg>
