<?xml version="1.0" encoding="UTF-8"?>
<svg id="Layer_1" data-name="Layer 1" xmlns="http://www.w3.org/2000/svg" viewBox="0 0 500 247.99">
  <defs>
    <style>
      .cls-1 {
        fill: #fff;
      }
    </style>
  </defs>
  <path class="cls-1" d="M84.23,125.59c0,10.73-7.99,17.15-22.72,17.15-6.34,0-12.84-1.17-17.23-3.05v-15.66c5.25,2.9,11.51,4.46,16.37,4.46s7.6-.86,7.6-2.9c0-2.35-3.68-3.45-9.71-5.8-9.09-3.53-15.51-7.29-15.51-18.09s8.69-17.7,22.09-17.7c5.64,0,11.44,1.02,15.35,2.66v15.04c-3.44-2.27-8.69-3.6-13.94-3.6-4.62,0-7.44,1.33-7.44,3.6,0,2.04,3.44,3.45,9.16,5.8,9.08,3.76,15.98,7.6,15.98,18.09"/>
  <path class="cls-1" d="M130.37,141.57h-15.98v-22.09c0-2.43-1.33-3.92-3.29-3.92-3.37,0-5.4,2.5-5.4,6.26v19.74h-15.98v-56.4h15.59v21.78c2.27-3.05,6.81-5.72,11.28-5.72,7.99,0,13.79,5.01,13.79,15.9v24.44Z"/>
  <path class="cls-1" d="M135.07,121.98c0-11.9,9.01-20.76,21.54-20.76s21.54,8.85,21.54,20.76-9.01,20.76-21.54,20.76-21.54-8.85-21.54-20.76m14.88,0c0,4.7,3.05,7.6,6.66,7.6s6.66-2.9,6.66-7.6-3.05-7.6-6.66-7.6-6.66,2.9-6.66,7.6"/>
  <path class="cls-1" d="M199.14,138.43h-.16s.23,.94,.23,3.29v17.08h-15.98v-56.4h14.41l.31,2.59c.16,1.41-.08,2.35-.08,2.35h.16c1.57-3.52,6.5-6.11,11.67-6.11,9.87,0,18.33,7.29,18.33,20.76s-8.46,20.76-17.94,20.76c-5.09,0-9.01-1.88-10.96-4.31m.71-16.45c0,4.7,3.05,7.6,6.66,7.6s6.66-2.9,6.66-7.6-3.06-7.6-6.66-7.6-6.66,2.9-6.66,7.6"/>
  <rect class="cls-1" x="232.19" y="102.4" width="15.98" height="39.16"/>
  <path class="cls-1" d="M345.74,119.63c0,2.51-.31,4.86-.47,5.56h-22.32c.71,3.06,3.68,4.31,8.15,4.31,5.8,0,11.91-1.72,13-2.12v13.16c-1.88,.78-7.13,2.19-14.57,2.19-14.57,0-23.11-8.85-23.11-20.76s8.93-20.75,20.6-20.75c12.61,0,18.72,8.62,18.72,18.41m-18.88-6.27c-2.74,0-4.07,2.12-4.07,5.01h7.99c.16-2.9-1.18-5.01-3.92-5.01"/>
  <path class="cls-1" d="M350.91,102.4h14.41l.63,4.46c2.35-2.9,6.58-5.64,11.04-5.64,1.33,0,2.59,.16,2.59,.16v15.59s-1.18-.63-3.06-.63c-4.39,0-9.63,2.27-9.63,8.93v16.29h-15.98v-39.16Z"/>
  <path class="cls-1" d="M414.98,130.05c0,7.99-6.58,12.69-17.86,12.69-6.81,0-11.44-1.49-13.94-2.5v-13.79c3.6,2.04,9.87,4,13.78,4,1.72,0,3.45-.16,3.45-1.17,0-.94-1.88-1.33-4.93-2.11-7.68-1.88-13.16-5.01-13.16-13.08s5.72-12.85,15.82-12.85c6.97,0,12.22,1.65,14.26,2.43v13.39c-3.21-1.65-9.09-3.37-12.85-3.37-.94,0-2.66,.08-2.66,1.18,0,.86,1.17,1.49,4.23,2.19,9.48,2.27,13.86,5.48,13.86,13"/>
  <path class="cls-1" d="M456.97,119.63c0,2.51-.31,4.86-.47,5.56h-22.32c.71,3.06,3.68,4.31,8.15,4.31,5.8,0,11.91-1.72,13-2.12v13.16c-1.88,.78-7.13,2.19-14.57,2.19-14.57,0-23.11-8.85-23.11-20.76s8.93-20.75,20.6-20.75c12.61,0,18.72,8.62,18.72,18.41m-18.88-6.27c-2.74,0-4.07,2.12-4.07,5.01h7.99c.16-2.9-1.18-5.01-3.92-5.01"/>
  <path class="cls-1" d="M248.7,81.44c1.81,2.86-.54,7.58-5.25,10.56-4.7,2.98-9.98,3.07-11.79,.22-1.8-2.86,.54-7.58,5.25-10.56,4.71-2.98,9.98-3.07,11.79-.22"/>
  <polygon class="cls-1" points="271.63 142.74 251.59 88.16 270.98 88.16 280.68 123.35 290.3 88.16 309.33 88.16 289.29 142.74 271.63 142.74"/>
  <path class="cls-1" d="M212.9,168.63c-1.01,0-1.79-.33-2.33-.98s-.81-1.6-.81-2.86v-5.69h3.26v5.03c0,.55,.1,.95,.3,1.22,.2,.26,.51,.39,.94,.39s.76-.15,.99-.46c.23-.3,.35-.74,.35-1.3v-4.89h3.24v9.24h-3.19l-.03-1.15c-.24,.45-.6,.8-1.07,1.06-.47,.25-1.02,.38-1.66,.38"/>
  <path class="cls-1" d="M223.07,168.34v-9.24h3.19l.04,1.15c.24-.45,.59-.81,1.06-1.06,.46-.25,1-.38,1.61-.38,1.04,0,1.83,.33,2.37,.99,.54,.66,.81,1.63,.81,2.91v5.62h-3.24v-5.01c0-1.09-.41-1.63-1.24-1.63-.44,0-.78,.15-1.01,.46-.23,.3-.35,.74-.35,1.3v4.89h-3.24Z"/>
  <path class="cls-1" d="M237.92,157.65c-.51,0-.95-.17-1.3-.5-.35-.33-.53-.74-.53-1.22s.18-.91,.53-1.24c.35-.33,.78-.49,1.3-.49s.95,.16,1.29,.49c.35,.33,.52,.74,.52,1.24s-.17,.88-.52,1.22-.78,.5-1.29,.5m-1.63,1.45h3.24v9.24h-3.24v-9.24Z"/>
  <polygon class="cls-1" points="246.31 168.34 242.9 159.1 246.5 159.1 248.06 165.22 249.76 159.1 253.14 159.1 249.73 168.34 246.31 168.34"/>
  <path class="cls-1" d="M261.2,168.63c-1.16,0-2.15-.2-2.98-.59s-1.47-.96-1.92-1.69c-.45-.74-.67-1.61-.67-2.62s.2-1.82,.61-2.56c.4-.74,.97-1.32,1.7-1.73,.73-.41,1.57-.62,2.52-.62s1.74,.19,2.42,.56c.68,.38,1.2,.91,1.57,1.59s.55,1.51,.55,2.46c0,.17,0,.33-.02,.5-.01,.17-.03,.34-.05,.52h-6.14c.14,.62,.45,1.07,.92,1.35,.47,.28,1.12,.42,1.93,.42,.5,0,1.02-.06,1.55-.17,.53-.11,1-.26,1.41-.45l.29,2.33c-.5,.23-1.07,.4-1.71,.52-.64,.12-1.29,.18-1.96,.18m-.79-7.61c-.93,0-1.49,.56-1.68,1.68h3.26c0-.13-.01-.24-.04-.34-.08-.42-.26-.75-.52-.98-.26-.24-.6-.36-1.02-.36"/>
  <path class="cls-1" d="M268.9,168.34v-9.24h3.15l.03,1.63c.19-.57,.49-1.02,.9-1.33,.41-.32,.88-.47,1.41-.47,.41,0,.76,.06,1.06,.18l-.27,3.06c-.16-.06-.35-.11-.57-.15-.23-.04-.44-.06-.62-.06-1.23,0-1.84,.81-1.84,2.44v3.96h-3.24Z"/>
  <path class="cls-1" d="M282.29,168.63c-.71,0-1.41-.08-2.09-.25-.68-.16-1.22-.38-1.63-.66l.36-2.29c.47,.3,.97,.52,1.52,.68,.55,.16,1.09,.23,1.63,.23,.81,0,1.22-.21,1.22-.63,0-.21-.09-.38-.27-.49-.18-.11-.55-.25-1.13-.4-1.14-.31-1.96-.7-2.44-1.15-.48-.46-.72-1.09-.72-1.89,0-.93,.35-1.66,1.06-2.18,.7-.52,1.67-.78,2.9-.78,.62,0,1.23,.07,1.84,.2,.61,.13,1.12,.31,1.52,.54l-.34,2.25c-.95-.46-1.89-.7-2.81-.7-.69,0-1.04,.2-1.04,.59,0,.19,.09,.35,.28,.47,.19,.13,.57,.26,1.13,.42,1.15,.31,1.97,.71,2.46,1.19,.5,.48,.74,1.12,.74,1.91,0,.93-.37,1.65-1.11,2.17-.74,.51-1.77,.77-3.08,.77"/>
  <path class="cls-1" d="M295.44,168.63c-1.16,0-2.15-.2-2.98-.59s-1.47-.96-1.92-1.69c-.45-.74-.67-1.61-.67-2.62s.2-1.82,.61-2.56c.4-.74,.97-1.32,1.7-1.73,.73-.41,1.57-.62,2.52-.62s1.74,.19,2.42,.56c.68,.38,1.2,.91,1.57,1.59s.55,1.51,.55,2.46c0,.17,0,.33-.02,.5-.01,.17-.03,.34-.05,.52h-6.14c.14,.62,.45,1.07,.92,1.35,.47,.28,1.12,.42,1.93,.42,.5,0,1.02-.06,1.55-.17,.53-.11,1-.26,1.41-.45l.29,2.33c-.5,.23-1.07,.4-1.71,.52-.64,.12-1.29,.18-1.96,.18m-.79-7.61c-.93,0-1.49,.56-1.68,1.68h3.26c0-.13-.01-.24-.04-.34-.08-.42-.26-.75-.52-.98-.26-.24-.6-.36-1.02-.36"/>
  <path class="cls-1" d="M313.66,168.63c-.98,0-1.85-.21-2.61-.64-.76-.42-1.37-1.01-1.81-1.75-.44-.74-.66-1.58-.66-2.52s.22-1.78,.66-2.52c.44-.74,1.05-1.32,1.82-1.75,.77-.42,1.64-.64,2.61-.64s1.85,.21,2.61,.64c.76,.42,1.37,1,1.81,1.74,.44,.73,.66,1.58,.66,2.53s-.22,1.79-.66,2.52c-.44,.74-1.05,1.32-1.82,1.75-.77,.42-1.64,.64-2.61,.64m0-2.88c.54,0,.98-.19,1.32-.57,.35-.38,.52-.87,.52-1.45s-.17-1.08-.52-1.46c-.35-.38-.79-.57-1.32-.57s-1,.19-1.34,.57c-.35,.38-.52,.86-.52,1.46s.17,1.07,.52,1.45c.35,.38,.79,.57,1.34,.57"/>
  <path class="cls-1" d="M323.08,168.34v-6.64h-1.49v-2.6h1.49v-.9c0-1.42,.35-2.52,1.06-3.29,.7-.78,1.71-1.16,3.01-1.16,.39,0,.81,.04,1.24,.12,.44,.08,.78,.18,1.03,.31l-.3,2.61c-.17-.06-.37-.11-.61-.16-.24-.05-.45-.07-.64-.07-.52,0-.91,.15-1.16,.45-.25,.3-.38,.77-.38,1.41v.68h2.18v2.6h-2.18v6.64h-3.24Z"/>
  <path class="cls-1" d="M343.2,168.63c-1.16,0-2.15-.2-2.98-.59s-1.47-.96-1.92-1.69c-.45-.74-.67-1.61-.67-2.62s.2-1.82,.61-2.56c.4-.74,.97-1.32,1.7-1.73,.73-.41,1.57-.62,2.52-.62s1.74,.19,2.42,.56c.68,.38,1.2,.91,1.57,1.59s.55,1.51,.55,2.46c0,.17,0,.33-.02,.5-.01,.17-.03,.34-.05,.52h-6.14c.14,.62,.45,1.07,.92,1.35,.47,.28,1.12,.42,1.93,.42,.5,0,1.02-.06,1.55-.17,.53-.11,1-.26,1.41-.45l.29,2.33c-.5,.23-1.07,.4-1.71,.52-.64,.12-1.29,.18-1.96,.18m-.79-7.61c-.93,0-1.49,.56-1.68,1.68h3.26c0-.13-.01-.24-.04-.34-.08-.42-.26-.75-.52-.98-.26-.24-.6-.36-1.02-.36"/>
  <path class="cls-1" d="M355.79,168.59c-1.04,0-1.94-.2-2.71-.6-.76-.4-1.36-.96-1.78-1.69-.42-.73-.63-1.58-.63-2.54s.21-1.82,.64-2.56c.43-.74,1.03-1.31,1.8-1.73,.77-.41,1.66-.62,2.66-.62,.56,0,1.14,.06,1.73,.2,.59,.13,1.08,.3,1.46,.5l-.39,2.7c-.41-.18-.81-.31-1.2-.39-.4-.08-.78-.13-1.17-.13-.73,0-1.29,.17-1.7,.52-.4,.35-.61,.84-.61,1.47s.21,1.1,.63,1.45c.42,.35,1,.52,1.74,.52s1.57-.17,2.42-.52l.32,2.65c-.42,.24-.91,.43-1.48,.57-.57,.14-1.14,.2-1.73,.2"/>
  <path class="cls-1" d="M367.36,168.63c-.98,0-1.85-.21-2.61-.64-.76-.42-1.37-1.01-1.81-1.75-.44-.74-.66-1.58-.66-2.52s.22-1.78,.66-2.52c.44-.74,1.05-1.32,1.82-1.75,.77-.42,1.64-.64,2.61-.64s1.85,.21,2.61,.64c.76,.42,1.37,1,1.81,1.74,.44,.73,.66,1.58,.66,2.53s-.22,1.79-.66,2.52c-.44,.74-1.05,1.32-1.82,1.75-.77,.42-1.64,.64-2.61,.64m0-2.88c.54,0,.98-.19,1.32-.57,.35-.38,.52-.87,.52-1.45s-.17-1.08-.52-1.46c-.35-.38-.79-.57-1.32-.57s-1,.19-1.34,.57c-.35,.38-.52,.86-.52,1.46s.17,1.07,.52,1.45c.35,.38,.79,.57,1.34,.57"/>
  <path class="cls-1" d="M376.22,168.34v-9.24h3.15l.03,1.13c.25-.45,.61-.8,1.07-1.05,.46-.25,.99-.37,1.58-.37,1.28,0,2.18,.51,2.7,1.52,.26-.48,.65-.85,1.15-1.12,.51-.27,1.08-.4,1.73-.4,1.06,0,1.87,.33,2.42,.99,.55,.66,.82,1.63,.82,2.91v5.62h-3.22v-5.01c0-1.09-.4-1.63-1.2-1.63-.87,0-1.31,.59-1.31,1.75v4.89h-3.22v-5.01c0-1.09-.4-1.63-1.2-1.63-.86,0-1.29,.59-1.29,1.75v4.89h-3.22Z"/>
  <path class="cls-1" d="M395.02,168.34v-9.24h3.15l.03,1.13c.25-.45,.61-.8,1.07-1.05,.46-.25,.99-.37,1.58-.37,1.28,0,2.18,.51,2.7,1.52,.26-.48,.65-.85,1.15-1.12,.51-.27,1.08-.4,1.73-.4,1.06,0,1.87,.33,2.42,.99,.55,.66,.82,1.63,.82,2.91v5.62h-3.22v-5.01c0-1.09-.4-1.63-1.2-1.63-.87,0-1.31,.59-1.31,1.75v4.89h-3.22v-5.01c0-1.09-.4-1.63-1.2-1.63-.86,0-1.29,.59-1.29,1.75v4.89h-3.22Z"/>
  <path class="cls-1" d="M418.96,168.63c-1.16,0-2.15-.2-2.98-.59s-1.47-.96-1.92-1.69c-.45-.74-.67-1.61-.67-2.62s.2-1.82,.61-2.56c.4-.74,.97-1.32,1.7-1.73,.73-.41,1.57-.62,2.52-.62s1.74,.19,2.42,.56c.68,.38,1.2,.91,1.57,1.59s.55,1.51,.55,2.46c0,.17,0,.33-.02,.5-.01,.17-.03,.34-.05,.52h-6.14c.14,.62,.45,1.07,.92,1.35,.47,.28,1.12,.42,1.93,.42,.5,0,1.02-.06,1.55-.17,.53-.11,1-.26,1.41-.45l.29,2.33c-.5,.23-1.07,.4-1.71,.52-.64,.12-1.29,.18-1.96,.18m-.79-7.61c-.93,0-1.49,.56-1.68,1.68h3.26c0-.13-.01-.24-.04-.34-.08-.42-.26-.75-.52-.98-.26-.24-.6-.36-1.02-.36"/>
  <path class="cls-1" d="M426.66,168.34v-9.24h3.15l.03,1.63c.19-.57,.49-1.02,.9-1.33,.41-.32,.88-.47,1.41-.47,.41,0,.76,.06,1.06,.18l-.27,3.06c-.16-.06-.35-.11-.57-.15-.23-.04-.44-.06-.62-.06-1.23,0-1.84,.81-1.84,2.44v3.96h-3.24Z"/>
  <path class="cls-1" d="M441.12,168.59c-1.04,0-1.94-.2-2.71-.6-.76-.4-1.36-.96-1.78-1.69-.42-.73-.63-1.58-.63-2.54s.21-1.82,.64-2.56c.43-.74,1.03-1.31,1.8-1.73,.77-.41,1.66-.62,2.66-.62,.56,0,1.14,.06,1.73,.2,.59,.13,1.08,.3,1.46,.5l-.39,2.7c-.41-.18-.81-.31-1.2-.39-.4-.08-.78-.13-1.17-.13-.73,0-1.29,.17-1.7,.52-.4,.35-.61,.84-.61,1.47s.21,1.1,.63,1.45c.42,.35,1,.52,1.74,.52s1.57-.17,2.42-.52l.32,2.65c-.42,.24-.91,.43-1.48,.57-.57,.14-1.14,.2-1.73,.2"/>
  <path class="cls-1" d="M453.17,168.63c-1.16,0-2.15-.2-2.98-.59s-1.47-.96-1.92-1.69c-.45-.74-.67-1.61-.67-2.62s.2-1.82,.61-2.56c.4-.74,.97-1.32,1.7-1.73,.73-.41,1.57-.62,2.52-.62s1.74,.19,2.42,.56c.68,.38,1.2,.91,1.57,1.59s.55,1.51,.55,2.46c0,.17,0,.33-.02,.5-.01,.17-.03,.34-.05,.52h-6.14c.14,.62,.45,1.07,.92,1.35,.47,.28,1.12,.42,1.93,.42,.5,0,1.02-.06,1.55-.17,.53-.11,1-.26,1.41-.45l.29,2.33c-.5,.23-1.07,.4-1.71,.52-.64,.12-1.29,.18-1.96,.18m-.79-7.61c-.93,0-1.49,.56-1.68,1.68h3.26c0-.13-.01-.24-.04-.34-.08-.42-.26-.75-.52-.98-.26-.24-.6-.36-1.02-.36"/>
</svg>