<?xml version="1.0" encoding="iso-8859-1"?>
<!-- Uploaded to: SVG Repo, www.svgrepo.com, Generator: SVG Repo Mixer Tools -->
<svg version="1.1" id="Layer_1" xmlns="http://www.w3.org/2000/svg" xmlns:xlink="http://www.w3.org/1999/xlink" 
	 viewBox="0 0 508 508" xml:space="preserve">
<circle style="fill:#90DFAA;" cx="254" cy="254" r="254"/>
<path style="fill:#2C9984;" d="M58.5,416.1C105.1,472.3,175.4,508,254,508s148.9-35.7,195.5-91.9H58.5z"/>
<polygon style="fill:#FFFFFF;" points="289.2,364.1 218.8,364.1 207,399.6 301,399.6 "/>
<g>
	<polygon style="fill:#E6E9EE;" points="295.7,383.6 289.2,364.1 218.8,364.1 212.3,383.6 	"/>
	<path style="fill:#E6E9EE;" d="M305,399.6H203c-4.9,0-8.9,4-8.9,8.9l0,0c0,4.9,4,8.9,8.9,8.9h102c4.9,0,8.9-4,8.9-8.9l0,0
		C313.8,403.5,309.9,399.6,305,399.6z"/>
</g>
<path style="fill:#324A5E;" d="M418.1,120.9H89.9c-7.4,0-13.3,6-13.3,13.3v224c0,7.4,6,13.3,13.3,13.3h328.2c7.4,0,13.3-6,13.3-13.3
	v-224C431.4,126.8,425.5,120.9,418.1,120.9z"/>
<path style="fill:#FFFFFF;" d="M76.6,331.5v27.9c0,6.7,5.4,12.1,12.1,12.1h330.6c6.7,0,12.1-5.4,12.1-12.1v-27.9H76.6z"/>
<rect x="91.1" y="135.1" style="fill:#84DBFF;" width="325.7" height="182"/>
<g>
	<circle style="fill:#FF7058;" cx="409.7" cy="351.5" r="7.2"/>
	<circle style="fill:#FF7058;" cx="388.2" cy="351.5" r="7.2"/>
	<circle style="fill:#FF7058;" cx="366.7" cy="351.5" r="7.2"/>
</g>
<circle style="fill:#54C0EB;" cx="254" cy="212.4" r="71.1"/>
<g>
	<path style="fill:#FFFFFF;" d="M325.1,212.4c0,26.9-14.9,50.3-36.9,62.4l0,0c0.5-4.9,1.6-9.7,3.4-14.3c0.3-0.6,0.5-1.4,0.3-2
		c-0.2-0.5-0.7-0.8-1.1-1.2c-4-3.2-4.5-8.8-5.7-13.8c-0.2-0.8-0.4-1.6-1-2.1c-0.4-0.4-0.9-0.6-1.5-0.7c-2.8-0.8-5.8-1.1-8.6-1.9
		c-2.8-0.9-5.6-2.6-6.6-5.4c-1.4-3.7,0.8-7.6,1.6-11.5c0.3-1.6,0.4-3.3,0.2-5c-0.1-1-0.3-2,0.2-2.8c0.3-0.5,0.9-0.8,1.4-1.1
		c5.1-2.8,10.4-5.7,16.2-6.3c1.8-0.2,3.8-0.1,5.3,1c1.1,0.8,1.7,2.1,2.8,2.8c1.2,0.8,2.7,0.9,4.1,0.9c4.5,0,9-0.6,13.3-1.7
		c0.9-0.2,1.9-0.5,2.3-1.3c0.8-1.4-0.5-3-1.8-3.9c-2.9-2-6.5-2.9-9.9-2.6c-0.8,0.1-1.6,0.2-2.2-0.2c-0.6-0.3-0.9-0.9-1.2-1.5
		c-1.7-2.7-4.7-4.6-7.9-4.5c-3.2,0.1-6.2,2.6-6.6,5.7c-0.2,1.9,0.1,4.4-1.7,5.1c-0.6,0.2-1.2,0.1-1.8,0c-2.1-0.4-4.2-0.9-5.8-2.3
		c-1.6-1.4-2.4-3.9-1.3-5.7c2.9-0.6,5.8-1.5,8.6-2.7c-0.8-1.3-1.7-2.5-2.5-3.8c-0.3-0.5-0.6-1-0.6-1.5c0.2-1.9,3.7-1.2,4.7-2.8
		c0.4-0.7,0.3-1.6,0.8-2.2c0.4-0.5,1-0.6,1.6-0.6c3-0.5,6.1-0.9,9.1-1.4c2.2-0.3,4.7-0.9,5.6-2.9c0.3-0.6,0.4-1.4,0.7-2
		c1.2-2.2,4.5-2.3,6.1-4.3c-2,0.7-4.2,0.8-6.3,0.3c0.8-1.7,1.6-3.5,1.3-5.3c-0.3-1.8-2.2-3.5-3.9-2.9c-1.8,0.7-2.1,3-2,4.9
		c0,1.8,0,3.5,0.1,5.3c0,0.8,0,1.8-0.5,2.4c-1.1,1.4-3.4,0.6-4.9-0.3c-0.4,1.5-2.7,1.4-3.9,0.4c-2.6-2-2.6-6.5-0.1-8.6
		c0.8-0.7,2-1.3,2.2-2.4c0.2-0.8-0.3-1.8,0.2-2.5c0.3-0.5,1-0.6,1.5-0.7c3.5-0.9,6.1-4.1,6.8-7.6
		C314.8,170.2,325.1,190.1,325.1,212.4z"/>
	<path style="fill:#FFFFFF;" d="M264.6,154.2c-0.8,1.2-2,2.3-2.6,3.6c-0.5,1-0.7,2.2-1.3,3.2c-2.2,3.7-8.8,3.8-9.6,8.1
		c-0.2,1,0,2-0.4,2.9c-0.5,1-1.8,1.5-2.9,1.3c-3.2-0.4-4.6-4.4-4.5-7.6c0.1-3.2,0.9-6.7-0.7-9.5c-1.5-2.6-4.5-3.8-7-5.4
		c-2.1-1.3-4-3.6-4-5.9c7-2.3,14.6-3.6,22.4-3.6c4.4,0,8.7,0.4,12.9,1.2C267.2,146.6,266.9,150.9,264.6,154.2z"/>
	<path style="fill:#FFFFFF;" d="M236.9,183.9c-0.4,1.5-1.6,2.9-3.2,3c-1,0-2.3-0.5-3,0.2c-0.6,0.6-0.5,1.6-0.4,2.4
		c0.1,2.1-0.8,4.2-2.4,5.6c-0.9,0.8-1.9,1.3-2.7,2.1c-1,1.1-1.5,2.6-2.2,3.9c-3.1,6.4-10,9.8-16.7,12.1c-2.1,0.7-4.5,1.6-5.4,3.7
		c-0.7,1.7,0,3.7,1.6,4.7c1.5,0.9,3.7,0.6,4.9-0.8c0.2,2.1,0.5,4.3,1.8,5.9c0.8,1,1.9,1.7,2.9,2.6c0.9,0.9,1.6,2.2,1.2,3.4
		c-1.3,1-3.5,0.8-4.5-0.6c-0.9-1.1-0.9-2.7-1.8-3.9c-1.7-2.1-4.9-1.2-7.5-1.4c-4.4-0.4-8-4.8-7.5-9.2c0.1-0.7,0.3-1.5-0.2-2.1
		c-0.3-0.5-0.9-0.7-1.4-0.9c-1.7-0.7-3.1-2.1-3.9-3.7c-0.4-0.9-0.7-1.9-1.3-2.6c-0.5-0.6-1.2-0.9-1.9-1.2c2-27.8,20.1-51.2,45-60.9
		c0.2,1.8-0.2,3.7-1.7,4.5c-0.4,0.2-1,0.3-1.3,0.7c-0.7,0.6-0.6,1.8-0.1,2.5c0.5,0.8,1.3,1.2,2.1,1.7c4.2,2.6,7.9,7,7.6,11.9
		c-0.1,1.5-0.6,3.2-2,3.7c-1.1,0.4-2.3,0.1-3.4-0.3c-1.6-0.6-3.4-1.6-3.7-3.3c-0.2-1.1,0.3-2.1,0.4-3.2c0.1-1.1-0.7-2.4-1.8-2.2
		c-0.8,0.2-1.2,1.2-1.2,2s0.3,1.7,0.1,2.5c-0.3,1.2-1.5,2-2.6,2.6c-1.2,0.6-2.3,1.3-3.5,1.9c-1.6,0.9-3.3,1.9-4.3,3.4
		c-1,1.6-1,4,0.5,5c0.8,0.6,1.8,0.7,2.6,1.3c1.2,0.9,1.3,2.7,1.9,4.1c0.6,1.4,2.5,2.6,3.5,1.4c0.3-0.3,0.4-0.8,0.5-1.2
		c0.4-2,0.1-4,0.2-6c0.1-2,0.6-4.1,2.1-5.4c1.5-1.3,4.3-1.2,5.2,0.5c0.2,0.4,0.3,0.8,0.5,1.1c1.2,1.6,3.9,0,5.6,1
		c0.9,0.6,1.1,1.7,1.3,2.7C237,180.8,237.3,182.4,236.9,183.9z"/>
	<path style="fill:#FFFFFF;" d="M249.8,253.8c-1.4,1.7-1.3,4.1-1.9,6.2c-1.5,5.5-7.2,8.5-10.6,13c-0.8,1-1.5,2.2-2.6,3
		c-1,0.7-2.3,1-3.2,1.8c-0.5,0.5-0.8,1.1-1.1,1.7c-2.8-1-5.6-2.2-8.3-3.5c0-1.3,0.1-2.7,0.2-4c0.5-3.7,1.6-7.7,0.2-11.2
		c-1.3-3.2-4.5-5.3-6.8-7.9c-1.8-2.1-3.1-4.6-3.7-7.3c-0.3-1.2-0.4-2.6,0.3-3.7c0.5-0.7,1.3-1.2,1.7-1.9c1.2-1.8,0.1-4.5,1.3-6.3
		c0.6-0.9,1.7-1.4,2.8-1.7c7.4-2.3,16.2,0.5,20.9,6.8c0.5,0.7,1,1.4,1.7,1.8c1.8,1.2,4.7,0.3,6,2.1c0.5,0.6,0.6,1.5,1,2.2
		c1.3,2.1,5.1,2.1,5.3,4.6C253.2,251.3,251,252.3,249.8,253.8z"/>
</g>
<path style="fill:#FF7058;" d="M258,246.6l-0.3,0.2v12c-23.4,9.8-54.9,3.6-74-22.5c9.8,28.5,38.9,50.4,74,49.7v14.6l0.3,0.2l39-27.1
	L258,246.6z"/>
</svg>