<?xml version="1.0" encoding="UTF-8"?>
<svg id="Layer_1" data-name="Layer 1" xmlns="http://www.w3.org/2000/svg" xmlns:xlink="http://www.w3.org/1999/xlink" viewBox="0 0 300 300">
  <defs>
    <style>
      .cls-1, .cls-2, .cls-3, .cls-4, .cls-5, .cls-6 {
        fill: none;
      }

      .cls-1, .cls-7 {
        opacity: .3;
      }

      .cls-2 {
        opacity: .4;
      }

      .cls-8 {
        fill: url(#linear-gradient);
      }

      .cls-3 {
        stroke: #1d2f54;
        stroke-miterlimit: 10;
        stroke-width: 3.94px;
      }

      .cls-9 {
        fill: #f1f1f1;
      }

      .cls-10 {
        fill: #bcbcbc;
      }

      .cls-11, .cls-7 {
        fill: #ddd;
      }

      .cls-12 {
        fill: #d2cfcd;
      }

      .cls-13 {
        fill: #1e2f54;
      }

      .cls-14 {
        fill: #0e203a;
      }

      .cls-4 {
        filter: url(#drop-shadow-7);
      }

      .cls-5 {
        filter: url(#drop-shadow-6);
      }

      .cls-6 {
        filter: url(#drop-shadow-5);
      }
    </style>
    <linearGradient id="linear-gradient" x1="2.44" y1="150" x2="297.56" y2="150" gradientTransform="translate(103.42 -56.95) rotate(32.32)" gradientUnits="userSpaceOnUse">
      <stop offset="0" stop-color="#eb601c"/>
      <stop offset=".97" stop-color="#ef7a47"/>
      <stop offset="1" stop-color="#ef7b48"/>
    </linearGradient>
    <filter id="drop-shadow-5" filterUnits="userSpaceOnUse">
      <feOffset dx="7" dy="7"/>
      <feGaussianBlur result="blur" stdDeviation="5"/>
      <feFlood flood-color="#757474" flood-opacity=".75"/>
      <feComposite in2="blur" operator="in"/>
      <feComposite in="SourceGraphic"/>
    </filter>
    <filter id="drop-shadow-6" filterUnits="userSpaceOnUse">
      <feOffset dx="7" dy="7"/>
      <feGaussianBlur result="blur-2" stdDeviation="7"/>
      <feFlood flood-color="#494949" flood-opacity=".44"/>
      <feComposite in2="blur-2" operator="in"/>
      <feComposite in="SourceGraphic"/>
    </filter>
    <filter id="drop-shadow-7" filterUnits="userSpaceOnUse">
      <feOffset dx="7" dy="7"/>
      <feGaussianBlur result="blur-3" stdDeviation="7"/>
      <feFlood flood-color="#494949" flood-opacity=".44"/>
      <feComposite in2="blur-3" operator="in"/>
      <feComposite in="SourceGraphic"/>
    </filter>
  </defs>
  <ellipse class="cls-8" cx="150" cy="150" rx="162.96" ry="98.9" transform="translate(-56.95 103.42) rotate(-32.32)"/>
  <g>
    <g class="cls-6">
      <path class="cls-13" d="m120.45,247.61h71.31s-.69-9.37-34.73-9.37-36.57,9.37-36.57,9.37Z"/>
      <rect class="cls-13" x="149.48" y="207.06" width="13.24" height="31.38"/>
      <rect class="cls-9" x="149.48" y="207.06" width="13.24" height="15.69"/>
      <rect class="cls-13" x="73.18" y="79.32" width="165.84" height="136.1" rx="7.06" ry="7.06"/>
      <rect class="cls-9" x="78.3" y="84.76" width="155.61" height="125.21" rx="5.08" ry="5.08"/>
      <g>
        <rect class="cls-11" x="85.41" y="101.42" width="140.98" height="66.72" rx="5.06" ry="5.06"/>
        <rect class="cls-11" x="85.41" y="174.64" width="140.98" height="8.43"/>
        <rect class="cls-11" x="85.41" y="186.75" width="140.98" height="8.43"/>
        <path class="cls-10" d="m161.8,111.44h-69.04c-.51,0-.93-.41-.93-.93s.41-.93.93-.93h69.04c.51,0,.93.41.93.93s-.41.93-.93.93Z"/>
        <path class="cls-10" d="m161.8,117.3h-69.04c-.51,0-.93-.41-.93-.93s.41-.93.93-.93h69.04c.51,0,.93.41.93.93s-.41.93-.93.93Z"/>
        <path class="cls-10" d="m145.14,123.17h-52.6c-.39,0-.71-.41-.71-.93s.32-.93.71-.93h52.6c.39,0,.71.41.71.93s-.32.93-.71.93Z"/>
        <path class="cls-10" d="m163.49,149.58h57.11c.42,0,.77-.41.77-.93,0-.51-.34-.93-.77-.93h-57.11c-.42,0-.77.41-.77.93,0,.51.34.93.77.93Z"/>
        <path class="cls-10" d="m163.49,155.45h57.11c.42,0,.77-.41.77-.93,0-.51-.34-.93-.77-.93h-57.11c-.42,0-.77.41-.77.93,0,.51.34.93.77.93Z"/>
        <path class="cls-10" d="m179.08,161.32h41.73c.31,0,.56-.41.56-.93,0-.51-.25-.93-.56-.93h-41.73c-.31,0-.56.41-.56.93,0,.51.25.93.56.93Z"/>
      </g>
      <rect class="cls-11" x="78.25" y="201.5" width="155.66" height="9.27"/>
      <rect class="cls-11" x="78.25" y="84.78" width="155.66" height="9.27" rx="1.71" ry="1.71"/>
      <g>
        <path class="cls-11" d="m124.03,136.41c.04,2.82-4.39,2.82-4.35,0-.04-2.82,4.39-2.82,4.35,0Z"/>
        <path class="cls-11" d="m132.78,136.41c.04,2.82-4.39,2.82-4.35,0-.04-2.82,4.39-2.82,4.35,0Z"/>
        <path class="cls-11" d="m141.52,136.41c.04,2.82-4.39,2.82-4.35,0-.04-2.82,4.39-2.82,4.35,0Z"/>
      </g>
      <g>
        <path class="cls-13" d="m249.16,219.55l2.12-12.26-4.77-1.24c-.15-3.9-1.03-7.66-2.52-11.14l3.79-3.18-7.17-10.17-4.26,2.5c-2.77-2.57-6.02-4.66-9.64-6.12l.43-4.91-12.26-2.12-1.24,4.77c-3.9.15-7.66,1.03-11.14,2.52l-3.18-3.79-10.17,7.17,2.5,4.27c-2.57,2.77-4.66,6.02-6.12,9.64l-4.91-.43-2.12,12.26,4.77,1.24c.15,3.9,1.03,7.66,2.52,11.14l-3.79,3.18,7.17,10.17,4.27-2.5c2.77,2.57,6.02,4.66,9.64,6.12l-.43,4.91,12.26,2.12,1.24-4.77c3.9-.15,7.66-1.03,11.14-2.52l3.18,3.79,10.17-7.17-2.5-4.27c2.57-2.77,4.66-6.02,6.12-9.64l4.91.43Zm-50.64-15.77c1.62-9.34,10.5-15.61,19.85-13.99s15.61,10.5,13.99,19.85c-1.62,9.34-10.5,15.61-19.85,13.99-9.34-1.62-15.61-10.5-13.99-19.85Z"/>
        <g>
          <path class="cls-7" d="m186.71,209.11c-.33,0-.61-.25-.65-.58-.02-.16-1.68-16.26,11.38-25.51,13.46-9.53,30.65-5.05,37.39,1.68.26.26.26.67,0,.93-.26.26-.67.26-.93,0-6.56-6.56-23.31-10.32-35.7-1.54-12.42,8.8-10.85,24.14-10.83,24.29.04.36-.22.69-.58.73-.03,0-.05,0-.07,0Z"/>
          <path class="cls-7" d="m243.86,202.3c-.32,0-.6-.23-.65-.56-1.2-7.88-5.3-11.57-5.34-11.61-.27-.24-.3-.65-.06-.93.24-.27.65-.3.93-.06.18.16,4.49,4.02,5.77,12.4.05.36-.19.69-.55.75-.03,0-.07,0-.1,0Z"/>
          <path class="cls-7" d="m215.44,225c-1.04,0-2.09-.09-3.14-.27-4.78-.83-8.95-3.47-11.74-7.43-2.79-3.96-3.88-8.78-3.05-13.56,1.71-9.87,11.13-16.5,20.99-14.79,9.87,1.71,16.5,11.12,14.79,20.99-.83,4.78-3.47,8.95-7.43,11.74-3.1,2.18-6.71,3.32-10.42,3.32Zm-.05-35.26c-8.16,0-15.4,5.87-16.83,14.18-1.61,9.29,4.64,18.15,13.93,19.76,9.29,1.61,18.15-4.64,19.76-13.93,1.61-9.29-4.64-18.15-13.93-19.76-.98-.17-1.96-.25-2.92-.25Z"/>
          <path class="cls-7" d="m214.43,234.35c-1.59,0-3.2-.14-4.8-.41-.36-.06-.61-.4-.55-.76.06-.36.37-.6.73-.55,7.01,1.21,14.04-.36,19.82-4.44,5.78-4.08,9.63-10.16,10.84-17.13.06-.36.41-.6.76-.54.36.06.6.4.54.76-1.27,7.32-5.31,13.7-11.38,17.98-4.74,3.34-10.28,5.08-15.96,5.08Z"/>
          <path class="cls-7" d="m238.55,233.48c-.21,0-.41-.1-.54-.28l-2.15-3.11c-.21-.3-.13-.71.17-.91.3-.21.71-.13.91.17l2.15,3.11c.21.3.13.71-.17.91-.11.08-.25.12-.37.12Z"/>
          <path class="cls-7" d="m249.78,209.11c-.05,0-.11,0-.16-.02l-3.82-.96c-.35-.09-.57-.44-.48-.8.09-.35.44-.57.8-.48l3.82.96c.35.09.57.44.48.8-.07.3-.34.5-.64.5Z"/>
          <path class="cls-7" d="m213.83,242.55c-.05,0-.1,0-.16-.02-.35-.09-.57-.44-.48-.79l.96-3.94c.09-.35.44-.57.79-.48.35.09.57.44.48.79l-.96,3.94c-.07.3-.34.5-.64.5Z"/>
        </g>
      </g>
    </g>
    <g class="cls-5">
      <g>
        <rect class="cls-9" x="171.53" y="52.39" width="99.41" height="86.27" rx="4.61" ry="4.61"/>
        <path class="cls-12" d="m265.54,139.16h-88.48c-3.05,0-5.53-2.48-5.53-5.53,0-.27.22-.49.49-.49s.49.22.49.49c0,2.51,2.04,4.54,4.54,4.54h88.48c2.51,0,4.54-2.04,4.54-4.54V57.43c0-.27.22-.49.49-.49s.49.22.49.49v76.2c0,3.05-2.48,5.53-5.53,5.53Z"/>
        <path class="cls-13" d="m265.9,52.39h-89.34c-2.78,0-5.04,2.25-5.04,5.04v3.94h99.41v-3.94c0-2.78-2.25-5.04-5.04-5.04Z"/>
        <g>
          <path class="cls-9" d="m248.27,56.88c0,1.25-1.01,2.26-2.26,2.26s-2.26-1.01-2.26-2.26,1.01-2.26,2.26-2.26,2.26,1.01,2.26,2.26Z"/>
          <path class="cls-9" d="m257.36,56.88c0,1.25-1.01,2.26-2.26,2.26s-2.26-1.01-2.26-2.26,1.01-2.26,2.26-2.26,2.26,1.01,2.26,2.26Z"/>
          <path class="cls-9" d="m266.45,56.88c0,1.25-1.01,2.26-2.26,2.26s-2.26-1.01-2.26-2.26,1.01-2.26,2.26-2.26,2.26,1.01,2.26,2.26Z"/>
        </g>
        <g class="cls-1">
          <path class="cls-11" d="m228.41,57.37h-9.85c-.27,0-.49-.22-.49-.49s.22-.49.49-.49h9.85c.27,0,.49.22.49.49s-.22.49-.49.49Z"/>
          <path class="cls-11" d="m211.66,57.37h-35.64c-.27,0-.49-.22-.49-.49s.22-.49.49-.49h35.64c.27,0,.49.22.49.49s-.22.49-.49.49Z"/>
        </g>
      </g>
      <g>
        <path class="cls-3" d="m253.84,75.69h0c-3.05,0-5.53,3.17-5.53,7.08v12.39l-1.96,3.14,1.96,3.3v16.07c0,3.91,2.48,7.08,5.53,7.08h0"/>
        <path class="cls-3" d="m256.04,75.69h0c3.05,0,5.53,3.17,5.53,7.08v12.39l1.96,3.14-1.96,3.3v16.07c0,3.91-2.48,7.08-5.53,7.08h0"/>
      </g>
      <g>
        <path class="cls-12" d="m179.39,113.87c0-.23.19-.42.42-.42h52.74c.23,0,.42.19.42.42s-.19.42-.42.42h-52.74c-.23,0-.42-.19-.42-.42Z"/>
        <path class="cls-12" d="m179.39,119.54c0-.23.19-.42.42-.42h52.74c.23,0,.42.19.42.42s-.19.42-.42.42h-52.74c-.23,0-.42-.19-.42-.42Z"/>
        <path class="cls-12" d="m179.39,125.22c0-.23.19-.42.42-.42h52.74c.23,0,.42.19.42.42s-.19.42-.42.42h-52.74c-.23,0-.42-.19-.42-.42Z"/>
        <g>
          <path class="cls-13" d="m221.27,110.61h2.48c.34,0,.62.28.62.62v5.27c0,.34-.28.62-.62.62h-2.48c-.34,0-.62-.28-.62-.62v-5.27c0-.34.28-.62.62-.62Z" transform="translate(336.38 -108.64) rotate(90)"/>
          <path class="cls-14" d="m222.23,115.54v-3.35c0-.23.19-.42.42-.42s.42.19.42.42v3.35c0,.23-.19.42-.42.42s-.42-.19-.42-.42Z"/>
        </g>
        <g>
          <path class="cls-13" d="m198.71,116.29h2.48c.34,0,.62.28.62.62v5.27c0,.34-.28.62-.62.62h-2.48c-.34,0-.62-.28-.62-.62v-5.27c0-.34.28-.62.62-.62Z" transform="translate(319.49 -80.41) rotate(90)"/>
          <path class="cls-14" d="m199.67,121.22v-3.35c0-.23.19-.42.42-.42s.42.19.42.42v3.35c0,.23-.19.42-.42.42s-.42-.19-.42-.42Z"/>
        </g>
        <g>
          <path class="cls-13" d="m210.35,121.93h2.48c.34,0,.62.28.62.62v5.27c0,.34-.28.62-.62.62h-2.48c-.34,0-.62-.28-.62-.62v-5.27c0-.34.28-.62.62-.62Z" transform="translate(336.78 -86.4) rotate(90)"/>
          <path class="cls-14" d="m211.31,126.86v-3.35c0-.23.19-.42.42-.42s.42.19.42.42v3.35c0,.23-.19.42-.42.42s-.42-.19-.42-.42Z"/>
        </g>
      </g>
      <g>
        <path class="cls-12" d="m180.22,99.67l9.43-21.16h4.84l9.46,21.16h-5.14l-7.74-18.68h1.93l-7.77,18.68h-5.02Zm4.71-4.53l1.3-3.72h10.88l1.33,3.72h-13.51Z"/>
        <path class="cls-12" d="m206.15,99.67v-21.16h9.16c1.89,0,3.53.31,4.9.92,1.37.62,2.43,1.5,3.17,2.64.75,1.15,1.12,2.52,1.12,4.11s-.37,2.93-1.12,4.08c-.75,1.15-1.8,2.03-3.17,2.64-1.37.61-3,.92-4.9.92h-6.44l2.18-2.21v8.04h-4.9Zm4.9-7.5l-2.18-2.33h6.17c1.51,0,2.64-.32,3.38-.97.75-.64,1.12-1.54,1.12-2.69s-.37-2.08-1.12-2.72c-.75-.64-1.87-.97-3.38-.97h-6.17l2.18-2.33v12Z"/>
        <path class="cls-12" d="m227.97,99.67v-21.16h4.9v21.16h-4.9Z"/>
      </g>
      <g>
        <path class="cls-13" d="m180.22,98.83l9.43-21.16h4.84l9.46,21.16h-5.14l-7.74-18.68h1.93l-7.77,18.68h-5.02Zm4.71-4.53l1.3-3.72h10.88l1.33,3.72h-13.51Z"/>
        <path class="cls-13" d="m206.15,98.83v-21.16h9.16c1.89,0,3.53.31,4.9.92,1.37.62,2.43,1.5,3.17,2.64.75,1.15,1.12,2.52,1.12,4.11s-.37,2.93-1.12,4.08c-.75,1.15-1.8,2.03-3.17,2.64-1.37.61-3,.92-4.9.92h-6.44l2.18-2.21v8.04h-4.9Zm4.9-7.5l-2.18-2.33h6.17c1.51,0,2.64-.32,3.38-.97.75-.64,1.12-1.54,1.12-2.69s-.37-2.08-1.12-2.72c-.75-.64-1.87-.97-3.38-.97h-6.17l2.18-2.33v12Z"/>
        <path class="cls-13" d="m227.97,98.83v-21.16h4.9v21.16h-4.9Z"/>
      </g>
    </g>
    <g class="cls-4">
      <rect class="cls-9" x="29.54" y="134.17" width="115.88" height="83.02" rx="4.85" ry="4.85"/>
      <path class="cls-12" d="m140.23,218.28H34.86c-3.27,0-5.93-2.66-5.93-5.93.02-1.42,2.17-1.4,2.18,0,0,2.07,1.69,3.76,3.76,3.76h105.37c2.07,0,3.76-1.69,3.76-3.76v-73.33c5.88-15.11.9,74.85,2.18,73.33,0,3.27-2.66,5.94-5.94,5.94Z"/>
      <path class="cls-13" d="m141.59,134.17H34.43c-4.74-.07-5.25,5.07-4.89,8.64h116.93c.35-3.57-.14-8.71-4.89-8.64Z"/>
      <g class="cls-2">
        <path class="cls-11" d="m93.77,139.05h-11.12c-.31,0-.56-.25-.56-.56s.25-.56.56-.56h11.12c.31,0,.56.25.56.56s-.25.56-.56.56Z"/>
        <path class="cls-11" d="m74.87,139.05h-40.21c-.31,0-.56-.25-.56-.56s.25-.56.56-.56h40.21c.31,0,.56.25.56.56s-.25.56-.56.56Z"/>
      </g>
      <g>
        <g>
          <g>
            <rect class="cls-13" x="103.78" y="157.21" width="5.98" height="35.72"/>
            <rect class="cls-13" x="103.78" y="194.01" width="5.98" height="1.83"/>
            <rect class="cls-13" x="103.78" y="196.76" width="5.98" height="1.83"/>
            <rect class="cls-13" x="103.78" y="199.51" width="5.98" height="1.83"/>
            <rect class="cls-13" x="103.78" y="202.27" width="5.98" height="1.83"/>
            <polygon class="cls-13" points="99.41 159.96 106.77 152.61 114.12 159.96 99.41 159.96"/>
          </g>
          <g>
            <rect class="cls-13" x="116.13" y="160.87" width="5.98" height="1.83"/>
            <rect class="cls-13" x="116.13" y="158.11" width="5.98" height="1.83"/>
            <rect class="cls-13" x="116.13" y="155.36" width="5.98" height="1.83"/>
            <rect class="cls-13" x="116.13" y="152.61" width="5.98" height="1.83"/>
            <polygon class="cls-13" points="122.11 196.75 122.11 163.78 116.13 163.78 116.13 196.75 111.77 196.75 119.12 204.1 126.48 196.75 122.11 196.75"/>
          </g>
        </g>
        <rect class="cls-13" x="49.95" y="151.56" width="39.51" height="15.44" rx="3.29" ry="3.29"/>
        <rect class="cls-14" x="53" y="167" width="33.42" height="2.24"/>
        <path class="cls-12" d="m54.21,153.93h31c.83,0,1.51.68,1.51,1.51v3.14c0,.83-.68,1.51-1.51,1.51h-31c-.83,0-1.51-.68-1.51-1.51v-3.14c0-.83.68-1.51,1.51-1.51Z"/>
        <rect class="cls-13" x="49.95" y="169.25" width="39.51" height="15.44" rx="3.29" ry="3.29"/>
        <rect class="cls-14" x="53" y="184.69" width="33.42" height="2.24"/>
        <rect class="cls-12" x="52.7" y="171.61" width="34.01" height="6.15" rx="1.51" ry="1.51"/>
        <rect class="cls-13" x="49.95" y="186.93" width="39.51" height="15.44" rx="3.29" ry="3.29"/>
        <rect class="cls-14" x="53" y="202.37" width="33.42" height="2.24"/>
        <path class="cls-12" d="m54.21,189.29h31c.83,0,1.51.68,1.51,1.51v3.14c0,.83-.68,1.51-1.51,1.51h-31c-.83,0-1.51-.68-1.51-1.51v-3.14c0-.83.68-1.51,1.51-1.51Z"/>
        <g>
          <rect class="cls-12" x="75.8" y="161.89" width="9.85" height="1.62"/>
          <rect class="cls-9" x="70.28" y="161.89" width="3.33" height="1.62" transform="translate(143.9 325.4) rotate(180)"/>
          <rect class="cls-12" x="75.8" y="179.45" width="9.85" height="1.62"/>
          <rect class="cls-9" x="70.28" y="179.45" width="3.33" height="1.62" transform="translate(143.9 360.52) rotate(180)"/>
          <rect class="cls-12" x="75.8" y="196.86" width="9.85" height="1.62"/>
          <rect class="cls-9" x="70.28" y="196.86" width="3.33" height="1.62" transform="translate(143.9 395.34) rotate(180)"/>
        </g>
      </g>
    </g>
  </g>
</svg>