<svg xmlns="http://www.w3.org/2000/svg" xml:space="preserve" width="2.83333in" height="2.83333in" version="1.1" style="shape-rendering:geometricPrecision; text-rendering:geometricPrecision; image-rendering:optimizeQuality; fill-rule:evenodd; clip-rule:evenodd" viewBox="0 0 2833 2833" xmlns:xlink="http://www.w3.org/1999/xlink">
 <defs>
  <style type="text/css">
   
    .fil1 {fill:#606062}
    .fil5 {fill:#99A4AC}
    .fil2 {fill:#D9F2F2}
    .fil3 {fill:#F1F1F1}
    .fil0 {fill:#FFBFA7}
    .fil4 {fill:#FFE600}
   
  </style>
 </defs>
 <g id="Layer_x0020_1">
  <metadata id="CorelCorpID_0Corel-Layer"></metadata>
  <circle class="fil0" cx="1417" cy="1417" r="1417" id="id_101" style="fill: rgb(255, 117, 43);"></circle>
  <path class="fil1" d="M1525 1270l-546 0c-31,0 -31,-46 0,-46l546 0c30,0 30,46 0,46zm677 697l-639 0 23 135 252 0c13,0 23,10 23,23l0 121c0,13 -10,23 -23,23l-838 0c-13,0 -23,-10 -23,-23l0 -121c0,-13 10,-23 23,-23l247 0 24 -135 -640 0c-13,0 -23,-11 -23,-24l0 -1018c0,-12 10,-23 23,-23l232 0 0 -274c0,-35 28,-64 64,-64l1014 0c35,0 64,28 64,64l0 274 197 0c13,0 24,11 24,23l0 1018c0,13 -11,24 -24,24zm-687 0l-197 0 -23 135 244 0 -24 -135zm-606 -1042l0 822 1049 0 0 -939 -1049 0 0 117zm-46 24l-209 0 0 798 209 0 0 -798zm-209 845l0 126 1525 0 0 -126 -1525 0zm1525 -47l0 -798 -174 0 0 798 174 0zm-173 133l-93 0c-31,0 -31,-46 0,-46l93 0c31,0 31,46 0,46zm-48 -1119l0 -133c0,-10 -8,-18 -17,-18l-1014 0c-10,0 -18,8 -18,18l0 133 1049 0zm-903 -52c-30,0 -70,7 -70,-23 0,-31 40,-24 70,-24 31,0 31,47 0,47zm119 0c-31,0 -70,7 -70,-23 0,-31 39,-24 70,-24 30,0 30,47 0,47zm118 0c-31,0 -70,7 -70,-23 0,-31 39,-24 70,-24 31,0 31,47 0,47zm-269 1514l792 0 0 -75 -792 0 0 75zm846 -768l-884 0c-30,0 -30,-47 0,-47l657 0c-5,-18 -33,-99 -30,-112l113 -421c3,-13 16,-20 29,-17l126 34c12,3 20,16 16,28l-113 422c-3,11 -46,55 -56,66l142 0c30,0 30,47 0,47zm13 243l-897 0c-12,0 -23,-11 -23,-24l0 -150c0,-13 11,-23 23,-23l897 0c13,0 23,10 23,23l0 150c0,13 -10,24 -23,24zm-873 -47l850 0 0 -103 -850 0 0 103zm650 -349l25 83 56 -60 83 -312 -81 -21 -83 310zm95 -355l81 21 10 -37 -81 -22 -10 38zm-229 55l-546 0c-31,0 -31,-47 0,-47l546 0c30,0 30,47 0,47zm0 134l-546 0c-31,0 -31,-46 0,-46l546 0c30,0 30,46 0,46z" id="id_102"></path>
  <path class="fil2" d="M1525 1270l-546 0c-31,0 -31,-46 0,-46l546 0c30,0 30,46 0,46zm-540 138l657 0c-5,-18 -33,-99 -30,-112l113 -421c3,-13 16,-20 29,-17l126 34c12,3 20,16 16,28l-113 422c-3,11 -46,55 -56,66l142 0c30,0 30,47 0,47l-884 0c-30,0 -30,-47 0,-47zm0 93l897 0c13,0 23,10 23,23l0 150c0,13 -10,24 -23,24l-897 0c-12,0 -23,-11 -23,-24l0 -150c0,-13 11,-23 23,-23zm-76 246l1049 0 0 -939 -1049 0 0 117 0 822zm616 -611l-546 0c-31,0 -31,-46 0,-46l546 0c30,0 30,46 0,46zm0 -134l-546 0c-31,0 -31,-47 0,-47l546 0c30,0 30,47 0,47z" id="id_103"></path>
  <polygon class="fil3" points="1859,1548 1009,1548 1009,1651 1859,1651 " id="id_104"></polygon>
  <polygon class="fil4" points="1659,1302 1684,1385 1740,1325 1823,1013 1742,992 " id="id_105" style="fill: rgb(255, 93, 5);"></polygon>
  <polygon class="fil5" points="1754,947 1835,968 1845,931 1764,909 " id="id_106"></polygon>
  <path class="fil5" d="M909 761l1049 0 0 -133c0,-10 -8,-18 -17,-18l-1014 0c-10,0 -18,8 -18,18l0 133zm383 -99c31,0 31,47 0,47 -31,0 -70,7 -70,-23 0,-31 39,-24 70,-24zm-118 0c30,0 30,47 0,47 -31,0 -70,7 -70,-23 0,-31 39,-24 70,-24zm-119 0c31,0 31,47 0,47 -30,0 -70,7 -70,-23 0,-31 40,-24 70,-24z" id="id_107"></path>
  <polygon class="fil3" points="2005,949 2005,1747 2179,1747 2179,949 " id="id_108" style="fill: rgb(255, 255, 255);"></polygon>
  <path class="fil5" d="M2179 1794l-1525 0 0 126 1525 0 0 -126zm-266 86c-31,0 -31,-46 0,-46l93 0c31,0 31,46 0,46l-93 0z" id="id_109"></path>
  <polygon class="fil5" points="1515,1967 1318,1967 1295,2102 1539,2102 " id="id_110"></polygon>
  <polygon class="fil5" points="1815,2148 1023,2148 1023,2223 1815,2223 " id="id_111"></polygon>
  <polygon class="fil3" points="863,1747 863,949 654,949 654,1747 " id="id_112"></polygon>
 </g>
</svg>