<?xml version="1.0" encoding="UTF-8"?>
<svg id="Layer_1" data-name="Layer 1" xmlns="http://www.w3.org/2000/svg" xmlns:xlink="http://www.w3.org/1999/xlink" viewBox="0 0 300 300">
  <defs>
    <style>
      .cls-1, .cls-2, .cls-3 {
        fill: none;
      }

      .cls-1, .cls-4 {
        opacity: .3;
      }

      .cls-5 {
        fill: url(#linear-gradient);
      }

      .cls-6 {
        fill: #eb601c;
      }

      .cls-7 {
        fill: #ea6224;
      }

      .cls-8, .cls-4 {
        fill: #f1f1f1;
      }

      .cls-9 {
        fill: #ee7b47;
      }

      .cls-10 {
        fill: #c1c1c1;
      }

      .cls-11 {
        fill: #ddd;
      }

      .cls-12 {
        fill: #d2cfcd;
      }

      .cls-13 {
        fill: #1e2f54;
      }

      .cls-14 {
        fill: url(#linear-gradient-8);
      }

      .cls-15 {
        fill: url(#linear-gradient-3);
      }

      .cls-16 {
        fill: url(#linear-gradient-4);
      }

      .cls-17 {
        fill: url(#linear-gradient-2);
      }

      .cls-18 {
        fill: url(#linear-gradient-6);
      }

      .cls-19 {
        fill: url(#linear-gradient-7);
      }

      .cls-20 {
        fill: url(#linear-gradient-5);
      }

      .cls-2 {
        filter: url(#drop-shadow-4);
      }

      .cls-3 {
        filter: url(#drop-shadow-5);
      }
    </style>
    <filter id="drop-shadow-4" filterUnits="userSpaceOnUse">
      <feOffset dx="7" dy="7"/>
      <feGaussianBlur result="blur" stdDeviation="5"/>
      <feFlood flood-color="#757474" flood-opacity=".75"/>
      <feComposite in2="blur" operator="in"/>
      <feComposite in="SourceGraphic"/>
    </filter>
    <linearGradient id="linear-gradient" x1="201.69" y1="104.57" x2="280.66" y2="104.57" gradientUnits="userSpaceOnUse">
      <stop offset="0" stop-color="#eb601c"/>
      <stop offset=".97" stop-color="#ef7a47"/>
      <stop offset="1" stop-color="#ef7b48"/>
    </linearGradient>
    <linearGradient id="linear-gradient-2" x1="40.43" y1="171.34" x2="217.07" y2="171.34" xlink:href="#linear-gradient"/>
    <linearGradient id="linear-gradient-3" x1="16.33" y1="240.29" x2="241.17" y2="240.29" xlink:href="#linear-gradient"/>
    <filter id="drop-shadow-5" filterUnits="userSpaceOnUse">
      <feOffset dx="7" dy="7"/>
      <feGaussianBlur result="blur-2" stdDeviation="7"/>
      <feFlood flood-color="#494949" flood-opacity=".44"/>
      <feComposite in2="blur-2" operator="in"/>
      <feComposite in="SourceGraphic"/>
    </filter>
    <linearGradient id="linear-gradient-4" x1="131.68" y1="56.73" x2="221.65" y2="56.73" xlink:href="#linear-gradient"/>
    <linearGradient id="linear-gradient-5" x1="123.85" y1="69.03" x2="213.83" y2="69.03" xlink:href="#linear-gradient"/>
    <linearGradient id="linear-gradient-6" x1="132.39" y1="171.6" x2="149.83" y2="171.6" gradientUnits="userSpaceOnUse">
      <stop offset="0" stop-color="#eb601c"/>
      <stop offset=".97" stop-color="#ef7a47"/>
      <stop offset="1" stop-color="#ef7b48"/>
    </linearGradient>
    <linearGradient id="linear-gradient-7" x1="155.35" x2="191.05" xlink:href="#linear-gradient-6"/>
    <linearGradient id="linear-gradient-8" x1="62.77" y1="114.82" x2="82.8" y2="114.82" xlink:href="#linear-gradient-6"/>
  </defs>
  <ellipse class="cls-13" cx="150" cy="150" rx="162.96" ry="98.9" transform="translate(-56.95 103.42) rotate(-32.32)"/>
  <g class="cls-2">
    <g>
      <g>
        <path class="cls-6" d="m251.53,180.58h-23.39c-1.79,0-3.24-1.45-3.24-3.24v-23.45c0-1.69,1.3-3.09,2.98-3.23l24.92-2.02c1.96-.16,3.61,1.46,3.49,3.42l-1.53,25.47c-.1,1.71-1.52,3.04-3.23,3.04Z"/>
        <path class="cls-8" d="m246.02,158.97c-1.71-1.68-4.37-1.17-6.2.37-.26.22-.64.22-.91,0-1.86-1.51-4.52-1.97-6.2-.26-1.82,1.85-1.8,4.83.06,6.66l6.2,6.1c.28.28.73.27,1.01,0l6.1-6.2c1.82-1.85,1.8-4.83-.06-6.66Z"/>
      </g>
      <g>
        <path class="cls-5" d="m278.68,73.02h-22.16c-1.09,0-1.98.89-1.98,1.98v3.93h-46.25c-3.64,0-6.6,2.95-6.6,6.6v44.01c0,3.64,2.95,6.6,6.6,6.6h65.77c3.64,0,6.6-2.95,6.6-6.6v-54.53c0-1.09-.89-1.98-1.98-1.98Z"/>
        <rect class="cls-8" x="206.35" y="84.21" width="69.64" height="52.23"/>
        <path class="cls-6" d="m274.73,141.72h-67.12c-3.27,0-6.09-2.45-6.29-5.5l-2.64-40.04c-.23-3.5,2.46-6.37,6.02-6.37h72.93c3.55,0,6.25,2.87,6.02,6.37l-2.64,40.04c-.2,3.05-3.01,5.5-6.29,5.5Z"/>
        <g class="cls-1">
          <path class="cls-8" d="m272.5,95.19h-13.06c-.52,0-.93-.42-.93-.93s.42-.93.93-.93h13.06c.52,0,.93.42.93.93s-.42.93-.93.93Z"/>
          <path class="cls-8" d="m248.87,95.19h-43.52c-.51,0-.93-.42-.93-.93s.42-.93.93-.93h43.52c.52,0,.93.42.93.93s-.42.93-.93.93Z"/>
        </g>
        <path class="cls-4" d="m251.56,138.3h-43.52c-.52,0-.93-.42-.93-.93s.42-.93.93-.93h43.52c.52,0,.93.42.93.93s-.42.93-.93.93Z"/>
      </g>
      <rect class="cls-17" x="40.43" y="96.81" width="176.64" height="149.07" rx="6.14" ry="6.14"/>
      <rect class="cls-8" x="44.9" y="101.21" width="167.7" height="131.33" rx="7.16" ry="7.16"/>
      <rect class="cls-15" x="16.33" y="233.95" width="224.84" height="12.67" rx="4.85" ry="4.85"/>
      <g class="cls-1">
        <path class="cls-11" d="m174.09,239.29h-23.85c-.62,0-1.12-.5-1.12-1.12s.5-1.12,1.12-1.12h23.85c.62,0,1.12.5,1.12,1.12s-.5,1.12-1.12,1.12Z"/>
        <path class="cls-11" d="m137.82,239.29H32.48c-.62,0-1.12-.5-1.12-1.12s.5-1.12,1.12-1.12h105.34c.62,0,1.12.5,1.12,1.12s-.5,1.12-1.12,1.12Z"/>
      </g>
      <g class="cls-3">
        <g>
          <rect class="cls-11" x="131.68" y="53.38" width="89.97" height="64.46" rx="3.12" ry="3.12"/>
          <path class="cls-10" d="m217.62,118.95h-81.81c-2.69,0-4.88-2.19-4.88-4.88,0-.62.5-1.12,1.12-1.12s1.12.5,1.12,1.12c0,1.46,1.19,2.65,2.65,2.65h81.81c1.46,0,2.64-1.19,2.64-2.65v-56.93c0-.62.5-1.12,1.12-1.12s1.12.5,1.12,1.12v56.93c0,2.69-2.19,4.88-4.88,4.88Z"/>
          <path class="cls-16" d="m217.89,53.38h-82.45c-2.08,0-3.76,1.68-3.76,3.76v2.94h89.97v-2.94c0-2.08-1.68-3.76-3.76-3.76Z"/>
          <g>
            <circle class="cls-8" cx="203.03" cy="56.73" r="1.69"/>
            <circle class="cls-8" cx="209.82" cy="56.73" r="1.69"/>
            <circle class="cls-8" cx="216.61" cy="56.73" r="1.69"/>
          </g>
          <g class="cls-1">
            <path class="cls-11" d="m189.87,56.93h-7.36c-.54,0-.97-.43-.97-.97s.43-.97.97-.97h7.36c.54,0,.97.43.97.97s-.43.97-.97.97Z"/>
            <path class="cls-11" d="m177.36,56.93h-42.33c-.54,0-.97-.43-.97-.97s.43-.97.97-.97h42.33c.54,0,.97.43.97.97s-.43.97-.97.97Z"/>
          </g>
        </g>
        <g>
          <g>
            <rect class="cls-8" x="123.85" y="65.68" width="89.97" height="64.46" rx="3.12" ry="3.12"/>
            <path class="cls-12" d="m209.79,131.25h-81.81c-2.69,0-4.88-2.19-4.88-4.88,0-.62.5-1.12,1.12-1.12s1.12.5,1.12,1.12c0,1.46,1.19,2.65,2.64,2.65h81.81c1.46,0,2.65-1.19,2.65-2.65v-56.93c0-.62.5-1.12,1.12-1.12s1.12.5,1.12,1.12v56.93c0,2.69-2.19,4.88-4.88,4.88Z"/>
            <path class="cls-20" d="m210.06,65.68h-82.45c-2.08,0-3.76,1.68-3.76,3.76v2.94h89.97v-2.94c0-2.08-1.68-3.76-3.76-3.76Z"/>
            <g>
              <circle class="cls-8" cx="195.2" cy="69.03" r="1.69"/>
              <circle class="cls-8" cx="201.99" cy="69.03" r="1.69"/>
              <path class="cls-8" d="m210.47,69.03c0,.93-.76,1.69-1.69,1.69s-1.69-.76-1.69-1.69.76-1.69,1.69-1.69,1.69.76,1.69,1.69Z"/>
            </g>
            <g class="cls-1">
              <path class="cls-11" d="m182.05,69.23h-7.36c-.54,0-.97-.43-.97-.97s.43-.97.97-.97h7.36c.54,0,.97.43.97.97s-.43.97-.97.97Z"/>
              <path class="cls-11" d="m169.53,69.23h-42.33c-.54,0-.97-.43-.97-.97s.43-.97.97-.97h42.33c.54,0,.97.43.97.97s-.43.97-.97.97Z"/>
            </g>
          </g>
          <g>
            <rect class="cls-11" x="128.56" y="110.3" width="81.12" height="4.69"/>
            <rect class="cls-11" x="128.56" y="119.31" width="81.12" height="4.69"/>
          </g>
        </g>
      </g>
      <g>
        <rect class="cls-8" x="237.95" y="109.43" width="5.36" height="16.98" rx=".95" ry=".95"/>
        <path class="cls-8" d="m255.02,109.43h-3.36v-4.07c0-1.32-.78-2.19-2.1-2.19h-.08c-1.32,0-2.39.97-2.39,2.29l-1.18,4.08c-.53,0-1.39.38-1.39.9v15.63c0,.53,1.31,1.23,1.83,1.23h8.68c1.98,0,3.49-1.88,3.49-3.86v-10.38c0-1.98-1.51-3.64-3.49-3.64Z"/>
      </g>
      <g>
        <path class="cls-7" d="m139.6,91.69l-.15-.13h-10.72s-.15.13-.15.13l.1.18,14.58,5.72h.12s6.49-3.07,6.49-3.07l.09-.14v-6.49s-.1-.15-.1-.15l-6.49-2.55h-.12s-14.58,5.71-14.58,5.71l-.1.18.16.13h10.71s.15-.13.15-.13c.15-.85.89-1.5,1.78-1.5,1,0,1.81.81,1.82,1.82,0,1-.81,1.81-1.81,1.81-.9,0-1.63-.65-1.78-1.5Z"/>
        <path class="cls-7" d="m169.45,84.43v13.89c17.18-.26,40.02-3.27,40.01-6.95,0-3.68-22.83-6.69-40.01-6.95Z"/>
        <path class="cls-7" d="m150.91,91.38c0,3.18-.79,5.86,8.71,6.69v-13.39c-9.5.84-8.71,3.52-8.71,6.69Z"/>
        <path class="cls-7" d="m159.61,98.07c1.07.09,2.27.17,3.62.21v-13.81c-1.35.05-2.55.12-3.62.21v13.39Z"/>
        <path class="cls-9" d="m163.23,84.47v13.81c1.18.04,2.45.06,3.87.06.77,0,1.56,0,2.35-.02v-13.89c-.8-.01-1.59-.02-2.35-.02-1.41,0-2.69.02-3.87.06Z"/>
      </g>
    </g>
    <g>
      <rect class="cls-11" x="58.27" y="160.39" width="140.98" height="66.72"/>
      <g>
        <rect class="cls-18" x="132.39" y="170.42" width="17.44" height="2.36"/>
        <rect class="cls-19" x="155.35" y="170.42" width="35.69" height="2.36"/>
      </g>
      <rect class="cls-8" x="88.32" y="179.97" width="65.76" height="2.36"/>
      <rect class="cls-8" x="88.32" y="188.83" width="65.76" height="2.36"/>
      <rect class="cls-8" x="77.01" y="188.83" width="5.79" height="2.36"/>
      <rect class="cls-8" x="65.36" y="197.69" width="17.44" height="2.36"/>
      <rect class="cls-8" x="88.32" y="197.69" width="65.76" height="2.36"/>
      <rect class="cls-8" x="158.82" y="179.97" width="32.23" height="2.36"/>
      <rect class="cls-8" x="158.82" y="188.83" width="32.23" height="2.36"/>
      <rect class="cls-8" x="158.82" y="197.69" width="32.23" height="2.36"/>
      <rect class="cls-8" x="65.36" y="205.99" width="17.44" height="2.36"/>
      <rect class="cls-8" x="88.32" y="205.99" width="65.76" height="2.36"/>
      <rect class="cls-8" x="158.82" y="205.99" width="32.23" height="2.36"/>
      <rect class="cls-8" x="65.36" y="214.3" width="17.44" height="2.36"/>
      <rect class="cls-8" x="88.32" y="214.3" width="65.76" height="2.36"/>
      <rect class="cls-8" x="158.82" y="214.3" width="32.23" height="2.36"/>
      <g>
        <rect class="cls-11" x="58.27" y="110.14" width="51.62" height="43.18"/>
        <rect class="cls-14" x="62.77" y="113.91" width="20.03" height="1.81"/>
        <rect class="cls-8" x="62.77" y="120.26" width="27.46" height="1.81"/>
        <rect class="cls-8" x="62.77" y="127.08" width="27.46" height="1.81"/>
        <rect class="cls-8" x="62.77" y="133.89" width="27.46" height="1.81"/>
        <rect class="cls-8" x="62.77" y="140.28" width="27.46" height="1.81"/>
        <rect class="cls-8" x="62.77" y="146.67" width="27.46" height="1.81"/>
        <rect class="cls-8" x="93.23" y="120.26" width="9.91" height="1.81"/>
        <rect class="cls-8" x="93.23" y="127.08" width="9.91" height="1.81"/>
        <rect class="cls-8" x="93.23" y="133.89" width="9.91" height="1.81"/>
        <rect class="cls-8" x="93.23" y="140.28" width="9.91" height="1.81"/>
        <rect class="cls-8" x="93.23" y="146.67" width="9.91" height="1.81"/>
      </g>
    </g>
  </g>
</svg>