<?xml version="1.0" standalone="no"?>
<!DOCTYPE svg PUBLIC "-//W3C//DTD SVG 20010904//EN"
 "http://www.w3.org/TR/2001/REC-SVG-20010904/DTD/svg10.dtd">
<svg version="1.0" xmlns="http://www.w3.org/2000/svg"
 width="500.000000pt" height="500.000000pt" viewBox="0 0 500.000000 500.000000"
 preserveAspectRatio="xMidYMid meet">

<g transform="translate(0.000000,500.000000) scale(0.100000,-0.100000)"
fill="#000000" stroke="none">
<path d="M1158 3993 l-3 -87 -217 -95 c-212 -92 -217 -95 -211 -120 17 -73 92
-121 167 -107 45 9 93 57 102 101 6 33 14 39 189 130 l183 95 106 0 c59 0 105
-4 102 -8 -3 -4 -70 -48 -150 -98 -107 -66 -145 -94 -146 -109 0 -35 -37 -82
-78 -100 l-39 -18 -7 -702 c-8 -752 -8 -756 41 -784 16 -9 15 -10 -8 -11 -17
0 -116 -59 -273 -162 -237 -155 -246 -162 -246 -193 0 -18 9 -43 19 -56 l19
-24 1381 -3 1381 -2 0 -300 c0 -421 -13 -400 253 -400 l179 0 29 29 29 29 0
357 c0 235 3 354 10 350 30 -19 -5 88 -39 119 -30 27 -26 36 14 36 33 0 35 2
35 36 l0 36 -80 -4 -80 -3 0 268 0 267 45 0 c53 0 90 29 100 77 3 15 21 61 40
101 l35 72 80 0 c91 0 86 7 68 -101 -8 -52 -8 -76 0 -94 10 -21 9 -25 -5 -25
-9 0 -36 -9 -60 -21 -24 -12 -53 -19 -63 -16 -17 4 -20 0 -20 -29 0 -32 2 -34
34 -34 39 0 96 41 96 68 0 11 7 5 20 -15 23 -38 48 -53 90 -53 42 0 67 15 90
53 13 20 20 26 20 15 0 -27 57 -68 96 -68 32 0 34 2 34 34 0 29 -3 33 -20 29
-10 -3 -39 4 -63 16 -24 12 -51 21 -61 21 -14 0 -15 3 -5 22 11 20 9 64 -7
161 l-7 37 82 0 81 0 35 -72 c19 -40 37 -86 40 -101 10 -48 47 -77 100 -77
l45 0 0 -540 0 -540 -385 0 -385 0 0 -70 0 -71 348 3 348 3 42 28 c23 15 54
46 69 69 l28 42 3 523 c2 337 6 522 12 518 15 -9 12 39 -5 71 -8 16 -15 36
-15 44 0 8 -30 50 -66 93 l-65 77 81 0 80 0 0 65 0 65 -442 2 -443 3 -3 366
-2 366 -40 16 c-41 16 -80 65 -80 102 0 15 -39 45 -152 115 l-151 95 108 3
108 3 151 -77 c199 -101 216 -112 216 -136 0 -54 72 -118 134 -118 44 0 94 27
116 62 40 66 40 66 -187 167 -117 51 -223 92 -243 93 -30 1 -31 2 -7 5 27 4
27 4 27 89 l0 84 -1390 0 -1389 0 -3 -87z m852 -89 c0 -3 -36 -47 -80 -97 -44
-50 -80 -100 -80 -111 0 -31 38 -83 74 -100 86 -40 182 6 201 97 4 18 28 74
53 124 l47 93 111 0 111 0 -19 -107 c-15 -83 -16 -113 -8 -134 33 -80 132
-113 199 -67 19 13 44 38 54 56 19 33 19 37 3 126 -24 138 -33 126 92 126
l107 0 46 -87 c26 -49 50 -104 53 -124 17 -97 120 -147 205 -101 35 19 71 72
71 105 0 10 -36 59 -80 108 -44 49 -80 91 -80 94 0 3 49 5 108 5 l108 0 108
-87 c94 -77 110 -95 129 -143 15 -37 33 -62 56 -77 58 -39 147 -25 185 29 15
21 16 -13 16 -385 l0 -407 -35 0 -35 0 0 -65 0 -64 80 -3 80 -3 -63 -75 c-63
-77 -86 -119 -95 -179 -3 -23 -1 -32 7 -27 8 5 11 -60 11 -243 l0 -251 -114 0
c-91 0 -116 3 -127 16 -11 14 -1 15 104 12 l117 -3 0 27 c0 18 -9 32 -32 47
l-33 21 33 0 32 0 0 160 0 160 -1215 0 -1215 0 0 642 c0 585 1 640 16 620 36
-52 123 -68 182 -32 29 18 41 36 68 107 5 12 59 62 119 112 l110 90 108 1 c59
0 107 -3 107 -6z m-610 -1858 c0 -2 -17 -15 -38 -30 -35 -24 -46 -26 -148 -26
l-109 0 45 30 c43 28 50 30 148 30 56 0 102 -2 102 -4z m270 -5 c0 -6 -16 -22
-35 -37 -34 -26 -37 -26 -132 -19 l-98 7 35 29 c33 28 39 29 132 29 55 0 98
-4 98 -9z m280 4 c0 -3 -10 -19 -22 -35 -22 -30 -22 -30 -125 -30 -57 0 -103
3 -103 6 0 3 10 19 23 34 22 28 24 29 125 29 56 1 102 -1 102 -4z m267 -27
l-13 -33 -107 -3 c-59 -1 -107 0 -107 4 0 3 8 19 17 35 l17 29 103 0 103 0
-13 -32z m283 -3 l0 -35 -103 0 c-57 0 -106 3 -110 6 -3 3 -1 19 5 35 l10 29
99 0 99 0 0 -35z m284 19 c3 -9 6 -24 6 -35 0 -18 -8 -19 -105 -19 -77 0 -105
3 -105 13 0 6 -3 22 -6 35 -6 22 -5 22 99 22 86 0 106 -3 111 -16z m288 -13
c21 -38 14 -41 -107 -41 l-93 0 -11 31 c-6 18 -11 34 -11 35 0 2 46 4 103 4
l102 0 17 -29z m283 -1 l29 -30 -110 0 -110 0 -22 30 -23 30 104 0 c102 0 104
0 132 -30z m285 0 l34 -30 -110 0 c-109 0 -110 0 -139 30 l-29 30 105 0 c101
-1 105 -2 139 -30z m-2360 -63 c0 -2 -20 -18 -45 -36 l-44 -32 -117 3 -118 3
50 32 c47 30 53 31 162 32 61 1 112 0 112 -2z m300 -5 c0 -5 -13 -20 -28 -35
-27 -26 -31 -27 -151 -27 l-123 0 42 35 42 35 109 0 c60 0 109 -4 109 -8z
m293 -23 c-10 -17 -23 -33 -29 -35 -5 -3 -60 -3 -122 -2 l-111 3 25 33 25 32
115 0 115 0 -18 -31z m312 -1 l-13 -33 -122 -3 -123 -3 15 23 c8 13 18 29 22
36 5 8 41 12 121 12 l114 0 -14 -32z m315 -3 l0 -35 -120 0 c-126 0 -126 0
-114 48 6 21 11 22 120 22 l114 0 0 -35z m310 23 c0 -7 3 -23 6 -35 6 -23 6
-23 -115 -23 l-121 0 0 35 0 35 115 0 c85 0 115 -3 115 -12z m313 -17 l17 -29
-72 -7 c-40 -4 -93 -5 -117 -3 -40 3 -46 7 -58 36 l-13 32 113 0 113 0 17 -29z
m312 -1 l29 -30 -116 0 -117 0 -21 30 -21 30 108 0 c108 0 110 0 138 -30z m93
-74 c3 -4 -9 -21 -26 -39 -18 -18 -32 -38 -32 -45 0 -17 -38 -34 -60 -27 -11
4 -22 16 -25 28 l-6 22 -929 -3 c-512 -2 -930 0 -930 4 0 5 15 23 33 42 l32
34 968 -5 c533 -3 971 -8 975 -11z m150 -48 c-3 -49 -1 -53 25 -62 22 -8 31
-6 47 9 15 17 17 27 11 63 l-8 42 42 0 c39 0 44 -3 56 -32 8 -18 12 -37 11
-42 -5 -14 30 -46 50 -46 17 0 18 -14 16 -332 l-3 -333 -205 0 -205 0 -3 331
-2 332 25 6 c14 4 28 14 31 24 3 9 13 34 21 55 15 34 19 37 55 37 l39 0 -3
-52z m620 -467 c21 -13 11 -55 -15 -59 -30 -4 -49 31 -27 52 18 18 24 19 42 7z
m-550 -332 c3 -28 -16 -43 -42 -33 -38 14 -22 68 18 62 14 -2 22 -12 24 -29z
m-88 1 c0 -5 -25 -10 -55 -10 -30 0 -55 5 -55 10 0 6 25 10 55 10 30 0 55 -4
55 -10z m225 0 c4 -6 -15 -10 -49 -10 -31 0 -56 5 -56 10 0 6 22 10 49 10 28
0 53 -4 56 -10z"/>
<path d="M2050 3490 c0 -27 4 -50 8 -50 10 0 46 38 59 64 10 18 12 17 27 -13
49 -94 203 -94 249 1 l15 31 16 -32 c49 -94 206 -95 247 -2 8 17 16 31 19 31
3 0 11 -13 18 -30 41 -93 199 -93 247 1 l17 31 20 -33 c39 -65 58 -65 58 1 l0
50 -500 0 -500 0 0 -50z"/>
<path d="M1860 2909 c0 -20 -91 -119 -109 -119 -23 0 -41 -19 -34 -36 4 -11
42 -14 190 -14 l184 0 -3 23 c-2 14 -11 23 -26 25 -13 2 -44 29 -74 65 -49 60
-78 81 -78 57 0 -6 23 -34 50 -63 l50 -52 -55 -3 c-31 -2 -78 -2 -106 0 l-50
3 51 53 c54 57 61 72 30 72 -11 0 -20 -5 -20 -11z"/>
<path d="M3150 2909 c0 -20 -91 -119 -109 -119 -23 0 -41 -19 -34 -36 4 -11
42 -14 190 -14 l184 0 -3 23 c-2 14 -11 23 -26 25 -13 2 -44 29 -74 65 -49 60
-78 81 -78 57 0 -6 23 -34 50 -63 l50 -52 -55 -3 c-31 -2 -78 -2 -106 0 l-50
3 51 53 c54 57 61 72 30 72 -11 0 -20 -5 -20 -11z"/>
<path d="M1752 2678 c5 -29 17 -59 26 -65 10 -9 53 -13 127 -13 73 0 117 4
128 13 9 7 19 34 23 65 l7 52 -160 0 -160 0 9 -52z m62 16 c9 -23 7 -54 -3
-54 -5 0 -11 16 -13 35 -4 36 5 47 16 19z m55 -41 c1 -7 -3 -13 -9 -13 -5 0
-10 17 -9 38 1 33 2 34 9 12 4 -14 8 -31 9 -37z m38 5 c-2 -13 -4 -5 -4 17 -1
22 1 32 4 23 2 -10 2 -28 0 -40z m53 17 c0 -19 -4 -35 -10 -35 -11 0 -13 30
-4 54 10 25 14 19 14 -19z m50 0 c0 -19 -4 -35 -10 -35 -11 0 -13 30 -4 54 10
25 14 19 14 -19z"/>
<path d="M3042 2678 c5 -29 17 -59 26 -65 10 -9 53 -13 127 -13 74 0 116 4
127 13 8 6 20 36 25 65 l10 52 -162 0 -162 0 9 -52z m62 16 c9 -23 7 -54 -3
-54 -5 0 -11 16 -13 35 -4 36 5 47 16 19z m55 -41 c1 -7 -3 -13 -9 -13 -5 0
-10 17 -9 38 1 33 2 34 9 12 4 -14 8 -31 9 -37z m38 5 c-2 -13 -4 -5 -4 17 -1
22 1 32 4 23 2 -10 2 -28 0 -40z m49 -16 c-13 -12 -17 8 -10 40 l9 33 3 -33
c2 -19 1 -36 -2 -40z m54 33 c0 -19 -4 -35 -10 -35 -11 0 -13 30 -4 54 10 25
14 19 14 -19z"/>
<path d="M3610 1705 c0 -29 16 -32 41 -9 17 15 19 15 34 0 20 -20 49 -21 65
-1 11 13 15 13 33 0 31 -22 47 -18 47 10 l0 25 -110 0 -110 0 0 -25z"/>
<path d="M3572 1514 c-19 -21 -7 -44 23 -44 30 0 43 24 25 45 -16 19 -31 19
-48 -1z"/>
<path d="M3822 1518 c-23 -23 -14 -48 17 -48 35 0 49 27 24 46 -22 17 -26 17
-41 2z"/>
<path d="M3963 2048 c-21 -18 -39 -33 -40 -33 -1 -1 2 -18 8 -38 l10 -37 57 0
c56 0 57 1 67 33 10 30 8 35 -27 69 l-38 38 -37 -32z m61 -14 c4 -10 -4 -14
-31 -14 -35 0 -36 1 -19 19 19 21 41 19 50 -5z"/>
<path d="M4520 2042 c-32 -34 -34 -40 -25 -69 9 -32 10 -33 67 -33 l57 0 10
36 c9 34 8 38 -21 63 -49 41 -51 41 -88 3z m61 -20 c-12 -2 -29 -2 -38 0 -15
3 -15 5 1 21 18 17 19 17 38 0 20 -18 20 -18 -1 -21z"/>
</g>
</svg>
