<?xml version="1.0" standalone="no"?>
<!DOCTYPE svg PUBLIC "-//W3C//DTD SVG 20010904//EN"
 "http://www.w3.org/TR/2001/REC-SVG-20010904/DTD/svg10.dtd">
<svg version="1.0" xmlns="http://www.w3.org/2000/svg"
 width="1025.000000pt" height="1025.000000pt" viewBox="0 0 1025.000000 1025.000000"
 preserveAspectRatio="xMidYMid meet">

<g transform="translate(0.000000,1025.000000) scale(0.100000,-0.100000)"
fill="#000000" stroke="none">
<path d="M3 8808 c3 -1620 -3 -1488 79 -1658 33 -69 57 -101 132 -176 77 -77
106 -98 186 -137 109 -53 211 -77 329 -77 l80 0 3 -151 c4 -195 -1 -189 175
-189 118 0 125 1 148 25 24 23 25 28 25 170 l0 145 488 0 c536 0 550 -1 663
-62 112 -59 198 -162 241 -287 23 -66 23 -69 23 -611 l0 -545 -408 -5 c-348
-4 -409 -7 -417 -20 -6 -9 -9 -161 -7 -380 l2 -364 25 -13 c19 -10 121 -13
418 -13 l392 0 0 -127 c0 -162 17 -243 76 -361 78 -158 226 -290 391 -347 109
-38 181 -45 483 -45 310 0 352 -5 453 -56 69 -36 186 -154 220 -224 52 -107
57 -157 57 -623 l0 -427 -206 2 -207 3 -76 228 c-50 146 -85 235 -99 250 -22
22 -24 22 -353 22 l-331 0 -24 -28 c-34 -40 -32 -90 5 -128 l29 -29 270 0 270
0 339 -1016 c255 -765 344 -1022 362 -1040 l24 -24 892 0 892 0 27 25 c35 33
36 92 2 132 l-24 28 -840 3 -840 2 -26 78 c-14 42 -26 80 -26 85 0 4 402 7
893 7 571 0 905 4 928 10 44 12 62 38 77 105 6 28 70 295 142 595 72 300 134
561 137 581 4 30 0 42 -25 70 l-30 34 -990 3 -991 2 -4 468 c-5 514 -5 520
-70 655 -87 183 -225 305 -422 373 -80 28 -81 28 -430 35 -239 4 -363 10 -390
19 -165 52 -294 181 -344 344 -17 54 -21 94 -21 192 l0 124 94 0 c79 0 97 3
120 21 l26 20 0 353 c0 302 -2 355 -16 374 -14 20 -23 22 -119 22 l-104 0 -4
563 c-4 624 -2 608 -73 753 -69 142 -193 262 -339 329 -135 63 -160 65 -709
65 l-496 0 0 60 c0 94 -10 100 -173 100 -160 0 -168 -5 -175 -100 l-4 -60 -77
0 c-239 0 -431 140 -508 370 -17 52 -18 130 -21 1488 l-2 1432 -100 0 -100 0
3 -1442z m1128 -1770 c3 -82 4 -376 1 -391 -4 -16 -17 -17 -146 -15 l-141 3
-3 200 c-1 110 0 205 2 212 4 10 41 13 146 13 138 0 140 0 141 -22z m1819
-2178 l0 -330 -570 0 -570 0 0 130 c-1 72 -1 175 -1 230 0 55 0 145 1 200 l0
100 570 0 570 0 0 -330z m1310 -3305 c0 -272 -3 -495 -8 -495 -6 0 -332 963
-332 983 0 4 77 7 170 7 l170 0 0 -495z m2005 473 c-18 -73 -215 -964 -215
-970 0 -5 -358 -8 -795 -8 l-795 0 0 500 0 500 905 0 905 0 -5 -22z"/>
<path d="M968 6929 c-12 -20 -25 -29 -43 -29 -30 0 -32 -11 -5 -35 14 -13 18
-25 13 -48 -6 -27 -4 -29 13 -22 24 10 54 11 77 1 14 -7 17 -3 17 27 0 19 7
40 15 47 22 18 18 28 -12 32 -17 2 -32 12 -39 26 -16 33 -18 33 -36 1z"/>
<path d="M2850 10162 c0 -21 -4 -22 -95 -22 l-96 0 3 -67 c3 -77 -10 -70 125
-72 47 -1 62 -5 65 -16 2 -11 19 0 56 37 l52 54 -55 54 c-47 47 -55 51 -55 32z"/>
<path d="M1490 10127 c0 -26 -5 -35 -31 -46 -65 -29 -91 -130 -48 -185 12 -15
52 -42 90 -62 55 -27 69 -39 69 -57 0 -13 -5 -28 -12 -35 -17 -17 -77 -15
-112 3 -39 21 -41 20 -54 -22 -14 -45 -5 -58 49 -75 35 -10 39 -14 39 -45 0
-33 1 -33 45 -33 l45 0 0 38 c0 34 4 40 36 55 25 12 41 30 55 62 36 82 -4 152
-113 198 -26 11 -50 28 -54 39 -14 44 48 63 106 33 29 -15 30 -14 45 14 26 52
22 59 -57 85 -12 3 -18 16 -18 36 0 28 -2 30 -40 30 -38 0 -40 -1 -40 -33z"/>
<path d="M7582 10091 l-53 -48 55 -47 c48 -41 59 -46 103 -46 l48 1 -32 29
c-18 16 -33 32 -33 35 0 3 56 5 125 5 118 0 125 1 125 20 0 19 -7 20 -125 20
-69 0 -125 3 -125 7 0 4 14 22 32 40 l32 33 -50 0 c-44 -1 -54 -5 -102 -49z"/>
<path d="M585 10121 c-109 -28 -175 -113 -175 -226 0 -134 93 -228 225 -229
160 -1 273 154 220 303 -20 57 -43 86 -95 120 -49 32 -123 46 -175 32z m135
-69 c130 -62 121 -270 -13 -321 -118 -45 -247 40 -247 163 0 55 29 118 65 142
68 45 124 49 195 16z"/>
<path d="M578 9950 c-25 -26 -29 -36 -24 -63 8 -41 32 -65 73 -73 62 -12 118
77 80 127 -35 46 -88 50 -129 9z"/>
<path d="M6459 10075 c-4 -50 -4 -50 -42 -53 l-38 -3 32 -57 c58 -104 52 -103
98 -25 23 38 41 72 41 75 0 4 -17 8 -37 10 -38 3 -38 4 -44 53 l-5 50 -5 -50z"/>
<path d="M4449 10070 l-30 -30 3 -180 c3 -204 8 -217 86 -227 40 -5 41 -7 44
-46 l3 -41 40 42 39 42 174 0 174 0 29 29 29 29 0 177 0 177 -29 29 -29 29
-252 0 -252 0 -29 -30z m250 -96 l31 -26 31 26 c40 34 80 34 120 -2 55 -49 38
-132 -43 -208 -40 -37 -92 -74 -106 -74 -5 0 -35 19 -66 42 -112 83 -147 179
-87 239 37 37 79 38 120 3z"/>
<path d="M9615 10055 c-23 -22 -26 -31 -21 -60 6 -28 4 -34 -8 -29 -9 3 -26
-5 -42 -21 -23 -23 -26 -32 -21 -68 6 -46 39 -81 68 -74 15 4 17 0 12 -23 -8
-42 33 -80 85 -80 38 0 72 22 72 48 0 15 17 16 25 2 12 -20 57 -10 86 19 35
36 39 81 8 112 -20 20 -20 23 -5 31 10 6 16 22 16 48 0 30 -6 43 -31 64 -33
28 -68 33 -87 14 -9 -9 -16 -5 -32 15 -29 37 -86 37 -125 2z m163 -90 c56 -47
44 -133 -22 -160 -34 -15 -50 -13 -92 7 -51 24 -59 105 -15 149 38 38 87 39
129 4z"/>
<path d="M5460 10023 c0 -24 13 -40 69 -86 38 -31 73 -57 76 -57 4 0 36 25 71
56 52 46 64 62 64 86 l0 30 -52 -44 c-94 -78 -81 -76 -145 -21 -80 68 -83 70
-83 36z"/>
<path d="M2616 9874 c-9 -24 -7 -897 2 -912 7 -9 49 -12 178 -10 l169 3 0 465
0 465 -171 3 c-150 2 -172 0 -178 -14z m300 -622 c32 -21 18 -72 -21 -72 -33
0 -49 30 -29 58 16 23 31 27 50 14z m22 -129 c3 -23 3 -23 -142 -23 -145 0
-164 4 -152 36 5 12 30 14 148 12 140 -3 143 -4 146 -25z m2 -73 c0 -19 -7
-20 -144 -20 -86 0 -147 4 -151 10 -15 24 13 30 151 30 137 0 144 -1 144 -20z"/>
<path d="M5460 9865 c0 -18 19 -40 71 -84 l72 -60 68 56 c56 46 69 62 69 86 0
33 -3 32 -76 -30 -28 -24 -56 -43 -62 -43 -6 0 -37 22 -69 50 -32 27 -61 50
-65 50 -5 0 -8 -11 -8 -25z"/>
<path d="M7222 9824 c33 -68 35 -91 8 -138 -20 -33 -21 -47 -18 -294 3 -296 3
-296 88 -339 43 -22 54 -23 315 -23 303 0 329 5 376 71 24 34 24 35 24 301 0
254 -1 268 -21 294 -11 15 -33 37 -48 48 -26 20 -43 21 -304 24 l-276 3 -43
40 c-40 36 -97 69 -121 69 -5 0 4 -25 20 -56z m668 -326 c1 -76 1 -353 1 -365
-1 -9 -20 -13 -61 -13 l-60 0 0 210 0 210 60 0 60 0 0 -42z m-142 -215 l2
-163 -60 0 -60 0 0 165 0 166 58 -3 57 -3 3 -162z m-148 -43 l0 -120 -60 0
-60 0 0 120 0 120 60 0 60 0 0 -120z m-155 20 c8 -14 12 -118 5 -131 -4 -6
-31 -9 -61 -7 l-54 3 -3 59 c-2 32 -1 65 2 72 6 16 101 20 111 4z"/>
<path d="M8907 9674 c-4 -4 -7 -31 -7 -60 l0 -53 -57 -3 c-51 -3 -58 -6 -61
-25 -3 -20 1 -22 55 -25 l58 -3 5 -57 c6 -63 10 -71 33 -62 12 4 17 22 19 62
l3 57 58 3 c54 3 58 5 55 25 -3 19 -10 22 -60 25 l-57 3 -3 57 c-2 42 -7 58
-18 60 -9 1 -19 0 -23 -4z"/>
<path d="M8472 9613 c-20 -8 -44 -63 -38 -88 13 -52 -3 -79 -76 -129 -50 -35
-72 -45 -78 -36 -5 9 -18 5 -48 -15 -43 -28 -45 -44 -8 -74 18 -15 29 -10 142
71 88 63 126 75 159 52 40 -29 98 -16 120 27 21 40 19 57 -13 89 -16 16 -35
42 -42 60 -7 17 -21 35 -31 40 -19 10 -65 12 -87 3z m81 -80 c6 -16 17 -32 24
-36 17 -10 17 -42 0 -55 -9 -8 -24 -7 -52 3 -36 12 -40 17 -40 47 0 18 4 41 8
51 12 27 46 21 60 -10z"/>
<path d="M5450 9490 c-19 -19 -20 -33 -20 -329 l0 -310 26 -20 c24 -19 40 -21
150 -21 107 0 127 3 142 18 17 17 19 44 25 234 8 258 1 406 -21 431 -13 15
-34 17 -149 17 -120 0 -135 -2 -153 -20z m295 -255 l0 -210 -145 0 -145 0 -3
200 c-1 110 0 205 3 212 3 11 37 13 147 11 l143 -3 0 -210z"/>
<path d="M9620 9465 c-11 -14 -7 -23 31 -61 l43 -44 -42 -41 c-46 -45 -50 -56
-26 -66 10 -3 29 8 53 31 20 20 41 36 47 36 6 0 25 -16 44 -35 37 -38 57 -44
67 -19 3 10 -8 29 -31 53 -20 20 -36 41 -36 46 0 5 16 26 36 46 23 24 34 43
31 53 -9 23 -17 20 -66 -25 l-44 -41 -41 41 c-47 46 -49 47 -66 26z"/>
<path d="M3992 9384 c-45 -31 -11 -103 43 -90 47 12 53 75 9 95 -30 14 -25 14
-52 -5z"/>
<path d="M3824 9349 c-3 -6 21 -38 55 -73 l61 -62 0 -150 c0 -115 3 -155 14
-170 12 -15 18 -17 33 -8 14 9 19 26 21 78 2 50 6 66 17 66 12 0 15 -15 15
-69 0 -71 10 -88 45 -75 12 5 15 32 15 160 0 172 3 178 60 119 34 -35 70 -46
70 -22 0 15 -85 100 -117 116 -12 6 -53 11 -91 11 -69 0 -71 1 -120 45 -52 47
-66 53 -78 34z"/>
<path d="M1620 9265 c0 -3 9 -24 21 -47 22 -43 24 -43 58 15 l23 37 -51 0
c-28 0 -51 -2 -51 -5z"/>
<path d="M1048 9161 c-31 -10 -77 -30 -100 -44 -52 -30 -158 -116 -158 -128 0
-16 122 -101 197 -137 73 -35 84 -37 173 -37 89 0 100 2 173 37 82 39 106 56
171 116 l39 35 -38 31 c-155 128 -315 172 -457 127z m192 -26 c77 -40 105
-154 56 -226 -46 -67 -147 -90 -214 -49 -97 60 -97 210 0 270 40 24 116 26
158 5z"/>
<path d="M1165 9049 c-7 -30 -7 -30 -32 -14 -31 21 -46 9 -45 -36 1 -40 37
-79 72 -79 72 0 106 85 55 135 -32 33 -42 31 -50 -6z"/>
<path d="M1620 9081 c0 -19 43 -82 50 -74 4 4 17 25 29 46 l23 37 -51 0 c-28
0 -51 -4 -51 -9z"/>
<path d="M1620 8893 c0 -5 11 -25 23 -45 l23 -37 27 45 27 44 -50 0 c-28 0
-50 -3 -50 -7z"/>
<path d="M5592 8586 c-19 -40 -25 -44 -67 -51 l-47 -7 32 -33 c30 -31 32 -36
25 -84 l-7 -52 46 23 46 22 39 -22 c21 -12 41 -22 44 -22 2 0 0 21 -4 47 -9
46 -8 48 27 84 l37 38 -51 7 c-46 6 -51 9 -68 46 -9 21 -20 41 -24 43 -4 2
-16 -15 -28 -39z"/>
<path d="M3145 8541 l-419 -6 -13 -25 c-10 -19 -13 -105 -11 -372 3 -293 5
-350 18 -362 13 -13 100 -15 624 -18 l608 -2 19 23 c18 22 19 45 19 371 0 317
-2 350 -17 368 -17 19 -32 21 -213 25 -107 2 -384 1 -615 -2z m773 -394 l2
-327 -572 2 -573 3 -3 315 c-1 173 0 321 3 327 3 11 121 13 572 11 l568 -3 3
-328z"/>
<path d="M1697 8529 c-43 -25 -37 -104 9 -115 60 -15 104 27 84 80 -15 40 -57
56 -93 35z"/>
<path d="M1878 8453 l-53 -78 -111 -3 -111 -3 -62 -89 c-64 -93 -72 -123 -34
-128 16 -2 29 9 54 45 68 102 63 112 69 -147 4 -208 7 -234 22 -244 13 -8 23
-8 35 0 15 10 18 30 21 143 2 123 4 131 22 131 19 0 20 -7 20 -124 0 -100 3
-128 16 -140 8 -9 21 -16 28 -16 33 0 36 23 36 262 0 193 3 240 14 244 22 8
138 183 134 202 -2 9 -13 18 -25 20 -16 2 -32 -13 -75 -75z"/>
<path d="M2167 8236 l-57 -65 27 -3 28 -3 3 -117 3 -118 59 0 59 0 3 118 3
117 28 3 27 3 -57 65 c-32 35 -60 64 -63 64 -3 0 -31 -29 -63 -64z"/>
<path d="M4197 8286 c-50 -18 -85 -51 -108 -101 -45 -96 1 -207 103 -250 136
-56 286 73 249 215 -30 113 -140 175 -244 136z m55 -113 c11 -10 18 -11 23 -3
14 23 57 31 81 15 33 -21 39 -56 18 -100 -19 -40 -85 -95 -115 -95 -24 0 -107
83 -115 115 -17 70 53 115 108 68z"/>
<path d="M9493 7993 c-7 -2 -13 -11 -13 -20 0 -18 108 -173 121 -173 5 0 9
-88 9 -214 0 -226 3 -243 47 -234 16 3 18 17 21 121 2 108 4 117 22 117 18 0
20 -9 22 -111 2 -90 6 -114 19 -122 9 -6 24 -7 33 -4 14 6 16 32 16 222 0 172
3 217 14 221 7 3 39 43 71 89 48 71 56 87 45 100 -7 8 -16 15 -21 15 -5 0 -32
-31 -60 -70 l-51 -70 -87 0 -86 1 -48 69 c-47 70 -51 73 -74 63z"/>
<path d="M9666 7987 c-23 -16 -24 -63 -3 -84 21 -21 68 -20 84 3 41 56 -25
122 -81 81z"/>
<path d="M1990 7893 c0 -48 5 -95 10 -103 8 -12 45 -16 215 -18 263 -4 255 -8
255 118 l0 90 -49 0 -50 0 -3 -52 -3 -53 -135 0 -135 0 -5 50 -5 50 -47 3 -48
3 0 -88z"/>
<path d="M5701 7964 c-146 -53 -233 -173 -235 -326 l-1 -77 -195 -103 c-107
-57 -205 -113 -217 -125 -50 -49 -13 -143 57 -143 19 0 95 34 208 94 247 131
225 124 263 92 17 -15 55 -39 83 -54 45 -24 62 -27 146 -27 85 0 101 3 153 29
71 36 130 99 165 174 21 46 26 72 26 137 0 65 -5 91 -26 137 -59 127 -165 199
-303 205 -56 2 -93 -2 -124 -13z m185 -89 c148 -44 219 -217 146 -356 -49 -94
-155 -150 -256 -135 -66 10 -145 63 -180 120 -24 39 -31 63 -34 117 -4 60 -1
77 23 125 40 82 131 141 221 143 17 1 53 -6 80 -14z"/>
<path d="M540 7874 c-45 -19 -97 -69 -121 -116 -67 -131 4 -292 148 -334 49
-14 67 -15 113 -6 30 7 68 21 83 33 16 11 34 19 40 16 7 -3 65 -41 128 -86
127 -88 158 -98 185 -56 29 44 13 65 -121 158 l-125 88 0 72 c-1 112 -51 193
-142 231 -47 20 -142 20 -188 0z m157 -55 c98 -37 142 -162 90 -254 -60 -105
-220 -115 -294 -18 -34 45 -43 134 -19 181 43 84 139 123 223 91z"/>
<path d="M492 7673 c2 -10 10 -18 18 -18 22 0 18 29 -3 33 -14 3 -18 -1 -15
-15z"/>
<path d="M510 7601 c0 -25 60 -77 99 -86 36 -8 104 12 98 28 -2 7 -27 12 -61
12 -53 0 -60 3 -85 33 -31 36 -51 41 -51 13z"/>
<path d="M7750 7697 c0 -15 -11 -17 -95 -17 l-95 0 0 -70 0 -70 95 0 c84 0 95
-2 95 -17 0 -12 16 -2 52 35 l53 52 -53 52 c-36 37 -52 47 -52 35z"/>
<path d="M9120 7586 c0 -21 -6 -24 -57 -30 -52 -6 -59 -4 -74 15 -15 21 -19
21 -48 9 -28 -11 -31 -16 -26 -41 6 -24 1 -34 -30 -64 -28 -26 -45 -34 -67
-32 -22 1 -33 -4 -45 -25 -16 -26 -16 -27 6 -45 22 -18 22 -21 9 -73 -11 -45
-17 -56 -36 -58 -20 -3 -23 -8 -20 -40 3 -33 6 -37 33 -40 25 -3 33 -11 53
-54 20 -46 21 -53 7 -68 -30 -34 16 -82 55 -58 17 11 27 9 68 -14 36 -21 46
-32 44 -49 -3 -27 13 -39 50 -39 21 0 29 6 34 24 5 20 13 24 62 29 54 6 65 2
75 -27 3 -10 43 -2 65 12 9 6 10 16 3 34 -8 22 -5 30 29 63 32 32 42 36 68 30
27 -6 33 -3 47 26 17 32 14 40 -18 51 -4 2 -5 29 -1 61 6 54 9 59 35 64 30 6
34 18 23 61 -5 16 -14 22 -33 22 -23 0 -31 8 -51 50 -23 49 -23 50 -5 70 18
20 18 21 -7 47 -25 24 -28 25 -49 12 -20 -14 -27 -13 -71 10 -43 23 -49 29
-45 53 4 28 -12 38 -60 38 -18 0 -23 -6 -23 -24z m54 -126 c7 -7 0 -32 -22
-75 -27 -55 -36 -65 -57 -65 -32 0 -75 -41 -75 -72 0 -13 7 -34 16 -47 15 -21
15 -26 -15 -87 -17 -35 -37 -64 -44 -64 -7 0 -27 15 -45 33 -124 128 -62 343
113 388 36 10 115 3 129 -11z m90 -54 c104 -104 80 -281 -48 -361 -40 -24 -60
-30 -110 -30 -98 0 -100 3 -67 77 30 65 38 73 83 83 17 3 34 17 44 36 15 29
15 34 -1 69 -17 37 -16 38 14 99 17 33 36 61 41 61 5 0 25 -15 44 -34z m-139
-108 c30 -14 42 -50 27 -83 -15 -32 -55 -42 -87 -21 -33 22 -35 78 -3 100 27
19 30 19 63 4z"/>
<path d="M7120 7412 c-125 -2 -157 -6 -172 -19 -17 -15 -18 -42 -18 -368 0
-328 1 -354 18 -376 l19 -22 608 1 c432 2 612 5 621 13 20 16 21 741 2 757
-13 10 -766 20 -1078 14z m1025 -392 l0 -325 -572 -3 -573 -2 0 330 0 330 573
-2 572 -3 0 -325z"/>
<path d="M7843 7249 c-43 -13 -90 -62 -103 -107 -5 -20 -10 -80 -10 -132 0
-80 4 -103 23 -140 32 -64 66 -85 137 -85 71 0 105 21 138 85 31 62 32 232 1
296 -33 69 -114 105 -186 83z m123 -44 c36 -23 56 -77 52 -138 l-3 -52 -125 0
-125 0 -3 60 c-3 71 20 118 71 141 38 17 98 12 133 -11z m-45 -232 c0 -5 1
-38 2 -76 l2 -67 -30 0 -30 0 2 67 c1 38 2 71 2 76 1 4 12 7 26 7 14 0 25 -3
26 -7z"/>
<path d="M2328 7265 c-35 -20 -48 -44 -48 -92 0 -31 7 -46 30 -68 28 -26 38
-29 119 -33 102 -5 154 8 178 44 20 31 56 31 77 -1 19 -29 71 -45 152 -45 125
0 174 29 174 104 0 86 -43 109 -190 104 -100 -3 -102 -3 -131 -35 -16 -18 -36
-33 -44 -33 -8 0 -28 15 -44 33 -29 32 -29 32 -138 35 -82 1 -115 -2 -135 -13z
m226 -31 c26 -10 18 -23 -16 -26 -26 -2 -34 -8 -36 -27 -4 -27 12 -40 48 -41
24 -1 24 -1 6 -15 -14 -11 -46 -15 -107 -15 -100 0 -131 16 -131 65 0 50 31
65 132 65 49 0 95 -3 104 -6z m401 -14 c24 -27 22 -70 -5 -92 -29 -24 -185
-26 -216 -3 -18 13 -16 14 23 15 51 0 78 22 63 51 -8 14 -21 19 -55 19 -43 0
-60 12 -32 23 6 3 55 6 108 6 83 1 98 -2 114 -19z"/>
<path d="M9600 7138 c-58 -40 -75 -72 -75 -141 0 -49 5 -69 23 -95 55 -76 164
-93 238 -37 125 95 57 295 -101 295 -38 0 -61 -6 -85 -22z m80 -62 c0 -11 15
-16 53 -18 l52 -3 3 -57 3 -58 -55 0 c-47 0 -55 -3 -58 -21 -3 -18 -9 -16 -65
26 -35 26 -63 50 -63 53 1 8 112 91 123 92 4 0 7 -7 7 -14z"/>
<path d="M2873 6870 c-13 -21 -23 -41 -23 -44 0 -4 20 -6 45 -6 25 0 45 2 45
5 0 7 -39 85 -43 85 -1 0 -12 -18 -24 -40z"/>
<path d="M2870 6690 l-20 -40 45 0 c25 0 45 3 45 6 0 9 -40 74 -46 74 -2 0
-13 -18 -24 -40z"/>
<path d="M8974 6709 c-18 -20 -19 -40 -19 -331 l0 -310 24 -19 c20 -16 40 -19
148 -19 118 0 125 1 148 25 l25 24 0 304 c0 378 15 347 -174 347 -122 0 -134
-2 -152 -21z m296 -81 c1 -76 1 -352 0 -371 0 -16 -12 -17 -142 -15 l-143 3
-3 200 c-1 110 0 205 2 212 4 10 41 13 146 13 l140 0 0 -42z"/>
<path d="M9149 6529 c-19 -19 -22 -19 -38 -5 -27 24 -70 21 -80 -6 -5 -13 -6
-30 -3 -38 9 -28 49 -75 75 -89 24 -13 29 -12 62 13 33 25 65 72 65 96 0 13
-37 50 -50 50 -5 0 -19 -9 -31 -21z"/>
<path d="M4580 6612 c-63 -31 -70 -61 -70 -282 0 -176 2 -198 20 -227 18 -30
18 -35 5 -74 -9 -23 -20 -48 -27 -56 -35 -42 59 -4 101 41 l24 26 212 0 c204
0 213 1 246 23 56 37 59 52 59 272 0 300 5 295 -317 295 -188 0 -223 -2 -253
-18z m334 -101 c48 -45 40 -106 -23 -185 -17 -21 -31 -49 -31 -62 0 -22 -4
-24 -44 -24 -25 0 -48 5 -51 10 -9 15 15 81 41 112 34 42 40 69 18 85 -18 13
-39 12 -77 -3 -10 -3 -18 5 -26 27 -6 18 -11 35 -11 40 0 16 57 28 117 26 49
-2 68 -8 87 -26z m-54 -320 c18 -35 12 -69 -16 -87 -53 -35 -113 21 -86 81 10
21 18 25 51 25 30 0 43 -5 51 -19z"/>
<path d="M2873 6520 c-13 -21 -23 -41 -23 -44 0 -4 20 -6 45 -6 25 0 45 2 45
5 0 7 -39 85 -43 85 -1 0 -12 -18 -24 -40z"/>
<path d="M2051 6539 c-16 -6 -22 -15 -18 -28 6 -25 -72 -92 -99 -85 -12 3 -24
-3 -33 -17 -11 -19 -11 -24 2 -34 24 -18 12 -121 -15 -128 -28 -8 -20 -49 10
-57 30 -7 74 -84 66 -115 -7 -29 28 -54 51 -35 19 16 112 -17 118 -42 6 -23
57 -25 57 -3 0 9 21 25 48 37 51 22 59 24 82 14 9 -4 24 0 35 8 16 11 17 17 7
29 -10 12 -7 24 14 66 17 32 33 51 45 51 19 0 35 33 24 50 -3 5 -12 10 -19 10
-6 0 -17 25 -24 57 -10 49 -10 58 4 68 24 17 1 59 -28 52 -30 -8 -109 52 -103
79 4 17 -1 23 -21 28 -18 5 -30 2 -38 -8 -16 -22 -112 -25 -128 -4 -10 12 -19
14 -37 7z m139 -95 c0 -27 -45 -144 -54 -141 -6 2 -37 12 -68 21 -31 9 -59 20
-62 25 -10 15 36 63 78 82 39 18 106 26 106 13z m96 -49 c42 -45 69 -134 45
-149 -7 -5 -128 30 -140 40 -8 7 40 144 51 144 6 0 26 -16 44 -35z m-220 -111
c27 -9 53 -20 58 -24 11 -11 -33 -140 -48 -140 -33 0 -96 101 -96 155 0 30 16
32 86 9z m192 -65 c69 -23 71 -33 11 -83 -27 -23 -41 -29 -100 -40 -38 -8 -42
9 -19 78 12 36 27 66 34 66 7 0 40 -9 74 -21z"/>
<path d="M7642 6491 c-40 -35 -53 -53 -50 -70 3 -20 7 -18 55 24 28 25 57 45
63 45 7 0 36 -21 66 -46 52 -45 54 -45 54 -21 0 17 -15 38 -54 71 -30 25 -60
46 -68 46 -7 -1 -37 -22 -66 -49z"/>
<path d="M7648 6359 c-42 -36 -58 -58 -58 -76 0 -24 3 -22 60 27 l60 52 53
-46 c30 -25 57 -46 61 -46 3 0 6 10 5 23 0 14 -20 38 -59 70 -32 26 -60 47
-62 47 -1 0 -29 -23 -60 -51z"/>
<path d="M3050 6218 c-111 -31 -171 -158 -121 -256 52 -101 157 -140 250 -92
110 56 141 188 66 286 -41 53 -128 81 -195 62z m120 -77 c65 -44 73 -136 18
-191 -51 -52 -144 -49 -188 7 -89 113 51 265 170 184z"/>
<path d="M3075 6050 c-21 -40 -20 -40 25 -40 46 0 46 1 23 41 -22 36 -29 36
-48 -1z"/>
<path d="M8779 5939 c-7 -13 -18 -33 -24 -43 -6 -13 -28 -24 -58 -30 l-48 -11
35 -34 c20 -20 34 -42 32 -50 -3 -9 -7 -31 -11 -49 l-7 -33 46 23 46 22 45
-22 45 -22 -6 43 c-4 23 -8 44 -11 46 -2 3 13 22 33 42 l36 37 -46 7 c-43 7
-49 11 -70 53 l-23 46 -14 -25z"/>
<path d="M4061 5894 c-20 -26 -21 -38 -21 -326 l0 -299 25 -24 c23 -24 30 -25
150 -25 121 0 127 1 151 25 l25 25 -3 306 -3 306 -24 19 c-20 16 -40 19 -151
19 -127 0 -129 0 -149 -26z m299 -254 l0 -210 -145 0 -145 0 0 210 0 210 145
0 145 0 0 -210z"/>
<path d="M8181 5740 l-22 -40 51 0 51 0 -23 40 c-13 22 -26 40 -29 40 -3 0
-15 -18 -28 -40z"/>
<path d="M1603 5690 c-66 -40 -94 -141 -57 -211 20 -39 14 -45 -27 -24 -65 34
-148 7 -197 -65 -24 -36 -24 -50 -1 -60 8 -4 33 -16 56 -28 54 -28 75 -28 111
3 17 14 33 25 37 25 3 0 5 -19 3 -42 -3 -38 0 -43 25 -52 37 -13 58 0 76 49
11 28 12 44 4 65 l-10 27 43 -5 c59 -6 106 26 102 71 -4 39 -30 57 -59 39 -33
-21 -46 1 -20 34 28 35 27 73 -4 114 -14 19 -25 42 -25 51 0 26 -24 29 -57 9z"/>
<path d="M8182 5570 l-23 -40 46 0 c25 0 45 3 45 8 0 7 -38 72 -42 72 -2 0
-13 -18 -26 -40z"/>
<path d="M8181 5390 l-22 -40 51 0 51 0 -23 40 c-13 22 -26 40 -29 40 -3 0
-15 -18 -28 -40z"/>
<path d="M5648 5324 c-11 -23 -10 -29 10 -44 28 -23 60 -15 68 16 13 53 -56
77 -78 28z"/>
<path d="M5786 5334 c-21 -20 -20 -30 3 -53 25 -25 59 -17 67 15 12 46 -37 72
-70 38z"/>
<path d="M5910 5331 c-18 -35 18 -79 54 -65 22 8 31 51 16 69 -18 21 -57 19
-70 -4z"/>
<path d="M3747 5023 c-4 -3 -7 -14 -7 -22 0 -18 100 -166 124 -184 13 -10 16
-48 18 -237 l3 -225 30 0 30 0 5 125 c4 108 7 125 22 128 16 3 18 -10 20 -119
3 -103 6 -124 21 -133 12 -8 22 -8 35 0 15 10 17 34 20 234 2 202 4 224 21
239 10 9 42 51 71 93 44 65 50 81 40 93 -22 26 -36 17 -89 -60 l-52 -75 -88 0
-87 0 -53 75 c-48 70 -68 85 -84 68z"/>
<path d="M3927 5012 c-23 -25 -21 -58 3 -82 24 -24 48 -25 78 -4 26 18 30 65
6 88 -21 22 -67 20 -87 -2z"/>
<path d="M8153 4893 c-6 -28 -14 -39 -31 -41 -27 -4 -29 -32 -2 -32 16 0 20
-7 20 -30 0 -25 -4 -30 -25 -30 -30 0 -34 -25 -5 -33 16 -4 18 -11 13 -41 -4
-29 -2 -36 11 -36 10 0 16 8 16 24 0 40 11 56 37 56 24 0 25 -2 20 -40 -7 -53
17 -55 30 -2 6 27 14 38 31 40 28 4 29 32 1 32 -30 0 -23 54 9 58 27 4 29 28
2 35 -16 4 -18 11 -13 41 4 29 2 36 -11 36 -11 0 -16 -9 -16 -29 0 -33 -22
-56 -46 -47 -11 4 -15 16 -12 38 4 45 -18 46 -29 1z m77 -80 c-1 -33 -15 -53
-36 -53 -20 0 -24 5 -24 30 0 27 3 30 30 30 17 0 30 -3 30 -7z"/>
<path d="M7805 4496 c-8 -20 -22 -52 -29 -71 l-15 -35 28 0 c58 0 75 -75 27
-117 -33 -28 -50 -29 -75 -4 -20 20 -20 19 -46 -50 -15 -39 -26 -72 -24 -73 2
-2 26 -13 52 -24 47 -21 48 -22 42 -55 -6 -29 -3 -37 20 -56 44 -34 102 -24
118 21 3 10 19 8 67 -9 34 -13 66 -21 70 -18 4 2 15 26 25 52 22 61 30 69 49
53 23 -18 63 -4 81 30 28 55 15 110 -27 110 -23 0 -23 17 2 71 11 24 20 49 20
55 0 9 -202 94 -353 150 -13 5 -21 -2 -32 -30z"/>
<path d="M7270 4389 c0 -11 -16 -35 -35 -53 -60 -57 -41 -122 48 -164 50 -24
63 -45 41 -67 -19 -19 -47 -19 -83 -1 -26 14 -28 13 -38 -14 -13 -33 -5 -44
40 -55 20 -5 27 -13 27 -31 0 -20 5 -24 30 -24 24 0 30 4 30 20 0 12 19 39 41
60 38 36 41 43 36 77 -7 44 -31 69 -89 97 -54 26 -60 59 -11 64 18 2 41 -2 52
-7 16 -9 21 -6 30 20 10 29 9 31 -24 45 -23 9 -35 21 -35 34 0 16 -7 20 -30
20 -24 0 -30 -4 -30 -21z"/>
<path d="M6800 4386 c-6 -8 -10 -25 -8 -38 4 -30 46 -38 65 -12 17 23 16 29
-3 48 -19 20 -38 20 -54 2z"/>
<path d="M2309 4343 c-13 -16 -34 -40 -47 -54 l-22 -26 42 -51 c29 -37 49 -52
66 -52 23 0 22 2 -17 46 -41 47 -49 68 -32 79 5 3 24 23 41 45 28 35 29 40 13
40 -11 0 -30 -12 -44 -27z"/>
<path d="M2405 4320 c-22 -28 -41 -54 -42 -58 -5 -16 83 -104 100 -101 15 3
11 12 -23 53 l-40 48 40 48 c45 54 47 60 22 60 -9 0 -35 -23 -57 -50z"/>
<path d="M6710 4239 c-27 -39 -39 -66 -35 -77 6 -14 14 -9 46 28 l39 45 0
-146 c0 -125 2 -148 16 -153 28 -11 34 4 34 90 0 67 3 84 15 84 11 0 15 -19
17 -87 3 -80 5 -88 23 -88 19 0 20 8 23 148 1 81 6 147 10 147 4 0 20 -19 36
-41 26 -37 45 -46 53 -23 2 5 -17 38 -42 72 l-45 62 -75 0 -74 0 -41 -61z"/>
<path d="M3152 4238 c-17 -17 -17 -319 0 -336 17 -17 909 -17 926 0 17 17 17
319 0 336 -17 17 -909 17 -926 0z m66 -51 c4 -20 -25 -34 -40 -19 -15 15 -1
44 19 40 10 -2 19 -11 21 -21z m90 0 c4 -20 -25 -34 -40 -19 -15 15 -1 44 19
40 10 -2 19 -11 21 -21z m80 0 c4 -20 -25 -34 -40 -19 -15 15 -1 44 19 40 10
-2 19 -11 21 -21z m90 0 c4 -20 -25 -34 -40 -19 -15 15 -1 44 19 40 10 -2 19
-11 21 -21z m80 0 c4 -20 -25 -34 -40 -19 -15 15 -1 44 19 40 10 -2 19 -11 21
-21z m85 11 c6 -18 -3 -38 -17 -38 -18 0 -35 21 -29 36 6 17 40 18 46 2z m373
-6 c36 -25 11 -85 -34 -80 -33 4 -53 48 -32 72 13 17 47 21 66 8z m-796 -82
c0 -27 -19 -35 -38 -17 -12 13 -13 19 -3 31 16 19 41 10 41 -14z m340 0 c0
-24 -25 -33 -40 -14 -10 11 -10 17 0 28 15 19 40 10 40 -14z m-254 9 c3 -6 0
-18 -9 -26 -18 -18 -37 -9 -37 18 0 21 34 27 46 8z m84 -8 c0 -24 -25 -34 -40
-16 -15 18 -5 35 21 35 12 0 19 -7 19 -19z m86 8 c3 -6 0 -18 -9 -26 -18 -18
-37 -9 -37 18 0 21 34 27 46 8z m170 0 c3 -6 -1 -18 -10 -27 -15 -15 -17 -15
-32 0 -19 19 -11 38 16 38 10 0 22 -5 26 -11z m-428 -87 c3 -16 -2 -22 -17
-22 -24 0 -35 15 -27 36 9 23 40 13 44 -14z m90 5 c4 -20 -25 -34 -40 -19 -15
15 -1 44 19 40 10 -2 19 -11 21 -21z m80 0 c4 -20 -25 -34 -40 -19 -15 15 -1
44 19 40 10 -2 19 -11 21 -21z m87 -2 c0 -13 -8 -21 -22 -23 -17 -3 -23 2 -23
16 0 10 3 22 7 26 13 13 38 1 38 -19z m83 2 c4 -20 -25 -34 -40 -19 -15 15 -1
44 19 40 10 -2 19 -11 21 -21z m84 11 c8 -21 -2 -38 -22 -38 -22 0 -33 23 -17
39 15 15 34 14 39 -1z m-422 -88 c0 -24 -26 -38 -42 -22 -16 16 -2 42 22 42
13 0 20 -7 20 -20z m88 -3 c4 -20 -25 -34 -40 -19 -15 15 -1 44 19 40 10 -2
19 -11 21 -21z m80 0 c4 -20 -25 -34 -40 -19 -15 15 -1 44 19 40 10 -2 19 -11
21 -21z m88 12 c3 -6 0 -18 -9 -26 -18 -18 -37 -9 -37 18 0 21 34 27 46 8z
m82 -12 c4 -20 -25 -34 -40 -19 -15 15 -1 44 19 40 10 -2 19 -11 21 -21z m85
9 c9 -22 -19 -42 -37 -26 -19 15 -10 40 14 40 10 0 20 -6 23 -14z"/>
<path d="M4531 369 c-46 -28 -68 -56 -82 -104 -30 -106 56 -215 170 -215 81 0
161 86 161 171 -1 126 -145 212 -249 148z"/>
<path d="M5632 374 c-130 -66 -128 -246 2 -305 52 -23 90 -23 142 0 55 25 87
71 92 135 5 66 -15 115 -63 151 -46 36 -124 44 -173 19z"/>
</g>
</svg>
