<?xml version="1.0" standalone="no"?>
<!DOCTYPE svg PUBLIC "-//W3C//DTD SVG 20010904//EN"
 "http://www.w3.org/TR/2001/REC-SVG-20010904/DTD/svg10.dtd">
<svg version="1.0" xmlns="http://www.w3.org/2000/svg"
 width="1156.000000pt" height="2020.000000pt" viewBox="0 0 1156.000000 2020.000000"
 preserveAspectRatio="xMidYMid meet">

<g transform="translate(0.000000,2020.000000) scale(0.100000,-0.100000)"
fill="#000000" stroke="none">
<path d="M6080 20174 c-212 -56 -391 -245 -426 -449 -7 -44 -14 -92 -14 -107
l0 -28 114 0 c110 0 115 1 118 21 4 30 33 47 56 33 9 -6 18 -21 20 -33 3 -19
9 -21 73 -21 l69 0 0 85 0 85 -35 0 c-60 0 -45 29 62 124 54 47 103 86 111 86
21 0 207 -170 207 -189 0 -11 -11 -17 -37 -19 l-38 -3 0 -85 0 -84 74 0 c69 0
75 2 78 21 7 48 68 51 68 4 l0 -25 116 0 117 0 -7 67 c-17 162 -70 268 -190
380 -72 68 -176 124 -264 142 -73 15 -206 13 -272 -5z"/>
<path d="M8411 19619 c-124 -24 -249 -119 -303 -231 -147 -300 81 -640 419
-627 130 5 282 107 350 235 169 316 -113 693 -466 623z m233 -363 c54 -27 126
-97 126 -123 0 -25 -80 -101 -133 -124 -45 -21 -68 -24 -162 -24 -97 0 -116 3
-160 25 -60 29 -125 92 -125 121 0 32 36 76 86 105 75 44 120 54 221 50 75 -3
102 -8 147 -30z"/>
<path d="M8324 19210 c-59 -29 -91 -66 -78 -88 14 -22 82 -68 113 -77 23 -7
23 -7 7 16 -20 29 -21 101 -1 139 18 35 13 37 -41 10z"/>
<path d="M8584 19211 c26 -28 32 -93 12 -132 -9 -18 -14 -34 -12 -37 9 -8 106
51 120 73 14 21 12 25 -17 53 -52 49 -143 87 -103 43z"/>
<path d="M8500 19166 c0 -29 24 -40 44 -20 20 20 9 44 -20 44 -19 0 -24 -5
-24 -24z"/>
<path d="M3243 18710 c-139 -12 -225 -41 -388 -133 -51 -29 -172 -157 -220
-232 -127 -198 -161 -435 -94 -660 25 -85 89 -210 132 -259 l32 -37 468 3 468
3 -76 63 -76 64 -63 -11 c-225 -39 -443 24 -579 168 -85 91 -111 153 -112 272
0 79 3 91 38 161 189 383 861 382 1049 0 31 -62 33 -74 33 -167 0 -91 -3 -105
-30 -160 -17 -35 -56 -86 -92 -122 l-63 -62 0 -59 c0 -33 3 -80 6 -106 l7 -46
118 0 118 0 30 38 c43 51 104 172 131 257 31 98 38 273 16 382 -54 266 -239
490 -487 590 -57 23 -236 65 -262 62 -7 -1 -54 -5 -104 -9z"/>
<path d="M9770 18274 c-245 -66 -431 -285 -448 -526 l-5 -78 212 0 c116 0 211
1 212 3 0 1 4 63 8 138 6 126 8 139 34 177 63 96 175 127 280 79 55 -25 117
-91 117 -124 0 -11 12 -14 47 -12 57 4 65 -11 23 -41 -46 -33 -55 -65 -30
-105 11 -18 27 -36 35 -39 8 -3 15 -13 15 -22 0 -14 -7 -15 -40 -10 -38 6 -40
5 -40 -19 l0 -25 171 0 172 0 -7 73 c-9 87 -43 189 -88 264 -73 122 -229 235
-370 268 -80 19 -226 18 -298 -1z"/>
<path d="M3062 18161 c-8 -4 -12 -19 -10 -32 l3 -24 245 0 245 0 3 24 c2 13
-2 28 -10 32 -7 5 -114 9 -238 9 -124 0 -231 -4 -238 -9z"/>
<path d="M7735 18150 c-147 -26 -272 -76 -385 -153 -44 -30 -225 -196 -225
-207 0 -3 -22 -39 -48 -81 -42 -68 -82 -152 -101 -216 l-7 -23 161 0 c158 0
163 1 192 25 28 23 37 25 142 25 l113 0 12 52 c22 97 82 172 174 220 63 32
175 36 248 9 104 -39 186 -137 205 -243 l6 -38 112 0 c107 0 114 -1 136 -25
23 -25 26 -25 187 -25 l163 0 -24 63 c-80 212 -226 384 -440 519 -6 4 -51 23
-101 42 -170 66 -354 85 -520 56z"/>
<path d="M3057 17994 c-13 -13 -7 -52 9 -58 24 -9 457 -7 472 3 8 4 12 19 10
32 l-3 24 -241 3 c-132 1 -243 -1 -247 -4z"/>
<path d="M10026 17934 c-24 -24 -20 -61 9 -80 23 -15 27 -15 50 0 27 18 34 63
13 84 -17 17 -54 15 -72 -4z"/>
<path d="M3057 17824 c-14 -14 -7 -43 12 -54 12 -6 105 -10 233 -10 226 0 254
5 246 46 -3 18 -15 19 -244 22 -132 1 -243 -1 -247 -4z"/>
<path d="M7805 17727 c-78 -37 -130 -100 -149 -179 l-6 -28 250 0 250 0 -6 28
c-37 152 -207 243 -339 179z"/>
<path d="M1787 16849 c-114 -22 -226 -97 -292 -195 -22 -32 -43 -61 -47 -64
-4 -3 -9 -17 -12 -30 -2 -14 -9 -45 -15 -70 -6 -25 -11 -62 -11 -82 l0 -38 69
0 68 0 7 38 c12 76 93 110 153 65 21 -15 29 -30 31 -61 l3 -42 65 0 64 0 0 40
c0 22 -5 40 -10 40 -25 0 -60 50 -60 85 0 50 15 74 57 91 64 27 133 -17 133
-86 0 -32 -27 -78 -50 -85 -16 -5 -20 -15 -20 -46 l0 -39 60 0 c58 0 60 1 60
25 0 73 68 119 136 90 38 -15 54 -41 54 -84 l0 -31 60 0 60 0 0 50 c0 58 -30
154 -65 211 -14 21 -25 42 -25 47 0 13 -120 107 -169 131 -85 44 -204 59 -304
40z"/>
<path d="M410 16079 c-30 -5 -78 -20 -107 -34 -93 -42 -200 -161 -228 -252 -6
-22 -4 -23 54 -23 l61 0 0 33 c0 18 5 38 12 45 9 9 88 12 293 12 205 0 284 -3
293 -12 7 -7 12 -27 12 -45 0 -33 0 -33 50 -33 l50 0 -17 43 c-38 97 -128 192
-218 233 -47 20 -160 46 -190 43 -5 -1 -35 -5 -65 -10z"/>
<path d="M2538 15921 c-283 -53 -508 -220 -638 -474 -26 -51 -50 -101 -53
-112 -4 -11 -10 -26 -13 -32 -4 -10 30 -13 156 -13 l161 0 52 57 c120 133 119
133 231 23 71 -69 87 -80 118 -80 28 0 37 5 47 26 11 26 14 26 79 22 39 -3 85
-14 111 -27 29 -13 64 -21 100 -21 l54 0 -22 24 c-49 52 -189 105 -278 106
-22 0 -36 6 -43 19 -38 72 38 101 175 66 98 -25 183 -74 257 -147 l67 -68 216
0 c127 0 215 4 215 9 0 5 -5 22 -11 38 -6 15 -12 39 -14 52 -1 13 -7 26 -12
30 -5 3 -28 39 -52 80 -55 93 -182 227 -273 287 -67 45 -217 113 -248 114 -9
0 -21 5 -26 10 -14 14 -295 22 -356 11z"/>
<path d="M237 15814 c-4 -4 -7 -16 -7 -26 0 -18 6 -19 103 -14 129 8 197 8
320 0 l99 -5 -4 23 -3 23 -251 3 c-138 1 -253 -1 -257 -4z"/>
<path d="M5735 15448 c-77 -4 -149 -8 -160 -8 -11 0 -29 -4 -40 -9 -11 -5 -63
-23 -115 -41 -342 -115 -613 -384 -724 -721 -104 -312 -79 -638 69 -918 19
-36 35 -71 35 -78 0 -6 8 -18 18 -25 9 -7 37 -39 61 -71 24 -32 79 -91 123
-132 397 -373 985 -420 1443 -114 69 46 300 259 282 259 -4 0 11 28 34 61 61
90 126 235 157 346 24 90 26 114 26 293 1 206 -1 214 -59 401 -25 82 -94 206
-168 304 -47 63 -241 255 -257 255 -5 0 -35 16 -65 36 -128 81 -277 132 -495
167 -14 3 -88 0 -165 -5z m630 -644 c63 -30 65 -43 65 -424 0 -291 -2 -347
-16 -375 -25 -54 -62 -65 -215 -65 l-133 0 -33 -36 c-27 -30 -33 -45 -33 -80
l0 -44 -172 2 -173 3 -5 50 c-3 31 -14 62 -26 78 l-22 27 -206 0 c-233 0 -257
6 -282 65 -21 51 -21 700 1 751 27 64 17 63 648 64 498 0 573 -2 602 -16z
m-365 -1174 l0 -100 -175 0 -175 0 0 100 0 100 175 0 175 0 0 -100z"/>
<path d="M5197 14723 c-4 -3 -7 -159 -7 -345 0 -267 3 -340 13 -344 7 -2 88
-3 179 -2 l167 3 -59 100 c-33 55 -62 114 -66 131 -9 46 10 74 50 74 37 0 59
-20 102 -95 l29 -50 3 214 c3 240 6 251 68 251 56 0 64 -24 64 -182 l0 -137
34 6 c29 4 39 1 59 -21 15 -16 28 -23 32 -16 18 29 95 -3 95 -40 0 -11 3 -11
12 -2 7 7 27 12 44 12 52 0 64 -27 64 -147 l0 -103 125 0 c121 0 125 1 130 23
3 12 4 168 3 347 l-3 325 -566 3 c-311 1 -569 -1 -572 -5z"/>
<path d="M8715 15075 c-69 -15 -131 -39 -194 -74 -60 -33 -172 -141 -211 -201
-34 -52 -97 -195 -97 -220 0 -8 -4 -48 -8 -87 l-8 -73 81 0 80 0 7 53 c23 171
45 218 144 309 194 180 478 183 682 8 59 -50 118 -139 124 -185 3 -19 9 -54
15 -77 5 -24 10 -58 10 -75 l0 -33 81 0 82 0 -6 68 c-9 86 -33 203 -45 211 -5
3 -23 33 -41 66 -38 72 -145 189 -204 222 -167 95 -330 124 -492 88z"/>
<path d="M8740 14804 c-96 -26 -207 -115 -247 -199 -9 -19 -25 -37 -34 -40
-20 -7 -39 -61 -39 -112 0 -43 28 -44 55 -1 51 79 108 85 126 12 l11 -44 239
0 238 0 11 40 c6 22 19 44 30 50 28 15 77 -12 97 -55 24 -50 53 -48 53 4 0 58
-11 101 -25 101 -8 0 -34 31 -60 70 -102 154 -279 221 -455 174z"/>
<path d="M10865 13810 c-100 -22 -176 -62 -242 -127 -67 -67 -93 -105 -113
-160 l-18 -53 121 0 120 0 -21 23 -22 23 43 42 43 42 21 -21 c20 -21 23 -21
60 -7 31 13 39 21 41 47 3 30 4 31 57 31 53 0 54 -1 57 -31 2 -26 10 -34 41
-47 37 -14 40 -14 60 7 l21 21 43 -42 43 -42 -22 -23 -21 -23 121 0 122 0 -15
38 c-59 139 -160 237 -294 283 -64 23 -188 32 -246 19z"/>
<path d="M10880 13490 l-35 -19 110 0 110 0 -35 19 c-19 11 -53 19 -75 19 -22
0 -56 -8 -75 -19z"/>
<path d="M2395 13249 c-198 -11 -348 -58 -513 -160 -98 -60 -232 -185 -304
-282 -29 -40 -56 -74 -59 -77 -16 -12 -102 -231 -122 -309 -17 -70 -21 -117
-22 -246 0 -198 6 -248 44 -353 51 -137 118 -261 194 -354 13 -16 35 -18 203
-17 181 0 188 1 164 17 -122 84 -217 192 -285 327 -217 430 -38 951 396 1154
243 114 520 109 757 -13 208 -108 358 -291 428 -521 24 -79 27 -107 28 -230 1
-169 -14 -235 -84 -380 -66 -136 -165 -251 -290 -337 -24 -16 -17 -17 170 -17
l196 -1 56 74 c101 133 178 337 198 530 14 129 1 275 -36 404 -27 94 -118 298
-144 322 -9 8 -34 38 -56 65 -121 156 -317 293 -504 354 -65 21 -256 62 -275
59 -5 0 -68 -5 -140 -9z"/>
<path d="M2320 12952 c-28 -6 -31 -9 -16 -15 10 -4 16 -13 13 -21 -6 -16 32
-11 80 10 41 18 88 18 107 -1 8 -8 19 -15 25 -15 15 0 14 -13 -4 -36 -8 -10
-15 -31 -15 -46 0 -46 -18 -77 -52 -92 -41 -18 -72 -44 -87 -73 -14 -28 -46
-20 -61 17 -9 22 -9 33 0 50 9 16 9 25 1 33 -6 6 -11 19 -11 29 0 13 -8 18
-28 18 -16 0 -31 3 -34 6 -10 9 4 44 17 44 7 0 15 7 19 15 8 23 -22 4 -71 -44
-23 -22 -54 -41 -69 -43 -41 -5 -39 -23 3 -26 32 -2 53 -17 59 -42 2 -12 16
-46 25 -62 11 -21 2 -48 -16 -48 -8 0 -17 -9 -20 -20 -5 -15 -12 -19 -26 -15
-15 5 -19 2 -19 -15 0 -14 5 -20 18 -18 13 2 17 -4 18 -28 1 -17 5 -37 10 -45
4 -8 9 -33 11 -56 2 -40 1 -41 -20 -34 -12 5 -21 16 -21 25 1 9 -2 16 -6 16
-5 0 -17 3 -27 6 -14 4 -15 4 -4 -4 7 -5 10 -15 7 -21 -4 -6 0 -11 8 -11 9 0
16 -5 16 -10 0 -13 -46 -31 -62 -25 -20 7 -77 -32 -88 -59 -5 -13 -18 -27 -29
-31 -13 -4 -21 -15 -21 -28 0 -12 -4 -29 -10 -37 -9 -15 -8 -17 -25 36 -3 9
-11 14 -19 11 -7 -3 -18 -1 -23 4 -17 17 -42 -2 -49 -38 -7 -40 8 -65 28 -45
21 21 31 13 25 -18 -4 -17 -2 -30 3 -30 6 0 10 -18 10 -40 0 -22 5 -40 10 -40
6 0 10 9 10 21 0 22 22 49 39 49 6 0 11 5 11 11 0 14 60 2 81 -17 8 -8 27 -14
42 -14 15 0 36 -11 50 -26 16 -17 38 -27 68 -31 77 -10 77 -11 78 -118 0 -66
-4 -99 -13 -108 -8 -7 -16 -36 -19 -63 -8 -73 -18 -114 -28 -114 -10 0 -7 -76
4 -86 4 -4 7 -18 7 -30 0 -13 10 -32 22 -44 21 -19 34 -20 250 -20 186 0 235
3 268 16 40 16 40 16 40 70 0 44 4 59 23 75 56 51 92 79 101 79 5 0 17 7 27
16 20 18 57 11 55 -11 -2 -22 19 -18 22 5 4 22 18 27 24 8 6 -16 60 58 93 127
l26 51 -20 45 c-12 24 -21 50 -21 57 0 23 22 8 40 -26 16 -29 18 -30 23 -12 3
12 -1 23 -9 28 -8 5 -16 33 -21 72 -6 63 -27 109 -49 110 -18 0 -64 -55 -64
-77 0 -11 -7 -26 -15 -33 -12 -10 -16 -8 -25 15 -5 14 -10 39 -10 54 0 16 -7
34 -15 41 -8 7 -15 18 -15 26 0 7 -5 16 -12 20 -7 4 -8 3 -4 -4 11 -17 -44
-83 -81 -99 -39 -16 -44 -28 -8 -19 18 5 25 2 25 -8 0 -25 -23 -69 -57 -110
-29 -35 -33 -46 -33 -101 0 -49 -4 -66 -20 -80 -11 -10 -20 -26 -20 -36 0 -9
-12 -40 -26 -68 -22 -41 -34 -53 -62 -61 -42 -11 -48 -8 -55 27 -3 16 -11 48
-18 73 -6 25 -11 76 -10 113 1 49 -3 76 -14 94 -9 13 -15 34 -13 46 1 12 -2
24 -7 25 -6 2 -15 8 -21 13 -6 5 -30 5 -57 0 -40 -7 -48 -6 -65 13 -37 40 -50
71 -50 123 -1 43 4 58 29 89 16 20 29 41 29 47 0 6 8 19 17 29 15 17 15 19 0
31 -11 8 -15 23 -13 42 2 24 8 31 30 33 27 3 35 25 14 38 -7 5 -5 12 8 22 17
13 17 14 1 9 -11 -4 -20 -1 -23 8 -3 7 -12 11 -20 8 -16 -6 -19 18 -5 45 5 9
12 25 15 35 8 24 40 18 45 -8 4 -25 38 -69 43 -55 1 5 25 14 52 19 35 6 55 17
71 37 21 26 21 30 7 52 -11 17 -12 26 -3 35 6 6 11 16 11 22 0 5 -9 -3 -20
-20 -11 -16 -18 -36 -15 -43 7 -19 -13 -62 -29 -62 -7 0 -17 7 -20 16 -3 9
-12 14 -20 11 -17 -7 -36 11 -36 35 0 10 18 34 39 54 22 19 38 41 35 48 -7 18
43 56 72 56 21 0 75 -26 114 -54 18 -14 36 -13 75 3 17 7 42 15 58 18 39 8 41
18 11 42 -31 25 -46 19 -38 -15 7 -28 -15 -34 -36 -9 -10 12 -10 21 -1 41 6
14 11 27 11 29 0 10 -139 74 -205 95 -53 17 -100 23 -195 25 -69 2 -141 0
-160 -3z m465 -82 c3 -5 -3 -15 -14 -21 -10 -7 -17 -19 -14 -26 3 -7 -1 -13
-8 -13 -8 0 -23 -3 -35 -6 -15 -4 -23 1 -33 22 -6 15 -8 30 -4 35 19 17 98 24
108 9z m-288 -176 c7 -19 -12 -34 -44 -34 -24 0 -37 14 -30 33 7 20 66 20 74
1z m-547 -529 c0 -2 3 -10 6 -19 8 -21 -6 -20 -34 4 -28 23 -21 46 9 30 10 -6
19 -12 19 -15z m930 -338 c0 -30 -30 -117 -40 -117 -36 0 -34 77 4 117 27 29
36 29 36 0z"/>
<path d="M2077 12863 c-11 -10 -8 -63 3 -63 6 0 8 11 4 26 -4 17 -2 29 7 35 8
5 9 9 3 9 -6 0 -14 -3 -17 -7z"/>
<path d="M2020 12830 c-9 -6 -10 -10 -3 -10 6 0 15 5 18 10 8 12 4 12 -15 0z"/>
<path d="M1991 12802 c-15 -2 -20 -6 -12 -11 6 -4 13 -25 15 -46 4 -41 22 -58
32 -31 3 8 -1 23 -11 32 -15 15 -15 18 0 34 19 21 11 28 -24 22z"/>
<path d="M2066 12722 c-8 -34 -2 -53 12 -36 5 5 6 23 2 39 l-6 30 -8 -33z"/>
<path d="M2117 12693 c-4 -3 -7 -12 -7 -20 0 -21 -40 -55 -57 -49 -14 6 -73
-22 -73 -34 0 -3 11 -22 25 -42 14 -20 25 -45 25 -54 0 -13 5 -11 20 9 11 14
20 31 20 37 0 7 10 26 22 43 13 18 22 33 20 35 -2 2 8 12 22 23 21 17 24 24
16 40 -11 20 -22 24 -33 12z"/>
<path d="M2737 12433 c-4 -3 -7 -13 -7 -22 0 -12 11 -16 46 -18 44 -1 45 -1
29 17 -9 10 -24 16 -32 13 -8 -3 -18 -1 -22 6 -4 6 -10 8 -14 4z"/>
<path d="M2625 12400 c10 -11 20 -20 23 -20 3 0 -3 9 -13 20 -10 11 -20 20
-23 20 -3 0 3 -9 13 -20z"/>
<path d="M2515 12367 c-24 -34 -25 -38 -7 -28 11 6 34 11 51 11 24 0 31 -4 31
-20 0 -25 52 -54 68 -38 7 7 19 7 41 0 38 -14 71 -5 71 19 0 14 -7 19 -26 19
-17 0 -28 6 -31 20 -3 11 -9 20 -14 20 -5 0 -6 -6 -3 -14 9 -23 -25 -27 -37
-4 -10 19 -12 19 -21 5 -11 -20 -32 -23 -25 -3 7 16 -31 54 -54 53 -8 0 -28
-18 -44 -40z"/>
<path d="M1685 12309 c-3 -30 -6 -63 -6 -74 1 -11 0 -29 0 -40 -7 -205 65
-392 210 -548 34 -37 47 -45 57 -36 11 9 16 6 23 -13 5 -13 27 -36 50 -51 23
-15 41 -31 41 -36 0 -7 108 -61 122 -61 3 0 -8 27 -23 60 -16 33 -29 66 -29
73 0 8 -3 17 -7 20 -3 4 -20 51 -38 104 -25 79 -36 100 -57 110 -14 7 -45 32
-68 55 -35 35 -44 52 -49 93 -5 32 -11 49 -19 47 -7 -1 -20 14 -28 35 -9 20
-37 58 -63 83 -39 37 -49 53 -54 91 -3 25 -17 68 -31 94 l-24 49 -7 -55z"/>
<path d="M2890 12232 c0 -7 3 -12 8 -13 4 0 17 -2 29 -3 12 -1 20 1 17 6 -4 5
-12 7 -19 4 -7 -2 -18 1 -24 7 -8 8 -11 8 -11 -1z"/>
<path d="M2810 12140 c6 -11 13 -20 16 -20 2 0 0 9 -6 20 -6 11 -13 20 -16 20
-2 0 0 -9 6 -20z"/>
<path d="M3190 12058 c1 -7 7 -24 14 -37 l13 -24 5 25 c3 17 -1 29 -14 37 -14
9 -18 8 -18 -1z"/>
<path d="M5550 11474 c-350 -33 -667 -205 -866 -472 -32 -42 -63 -81 -69 -87
-19 -17 -112 -225 -134 -300 -33 -110 -51 -238 -51 -357 0 -107 23 -302 41
-343 5 -11 22 -56 39 -100 106 -272 308 -498 575 -642 229 -123 541 -167 805
-113 107 22 252 73 327 116 23 13 46 24 52 24 16 0 138 98 224 180 93 89 140
148 207 261 27 46 55 90 61 97 6 8 15 28 20 45 4 18 20 70 34 117 106 347 47
748 -152 1036 -229 330 -572 521 -965 538 -56 2 -123 2 -148 0z m586 -597 l24
-28 0 -310 0 -311 -29 -29 c-27 -27 -35 -29 -100 -29 -56 0 -71 -3 -71 -15 0
-12 15 -15 79 -15 69 0 83 -3 105 -22 30 -28 156 -299 156 -337 0 -15 -5 -32
-12 -39 -17 -17 -1269 -17 -1286 0 -7 7 -12 25 -12 41 0 40 128 314 158 338
20 15 41 19 103 19 64 0 79 3 79 15 0 12 -14 15 -70 15 -63 0 -73 3 -102 29
l-33 29 -3 294 c-2 264 -1 296 15 328 31 61 23 60 521 58 l454 -3 24 -28z"/>
<path d="M5217 10813 c-4 -3 -7 -129 -7 -280 l0 -273 433 2 432 3 0 275 0 275
-426 3 c-234 1 -429 -1 -432 -5z"/>
<path d="M5451 9918 c-5 -13 -12 -38 -16 -55 l-7 -33 210 0 c115 0 211 2 214
5 9 9 -12 89 -25 97 -7 4 -92 8 -190 8 -175 0 -178 0 -186 -22z"/>
<path d="M4240 7989 c-304 -27 -596 -229 -726 -504 -16 -33 -32 -62 -36 -65
-4 -3 -9 -20 -13 -38 -3 -18 -12 -58 -20 -90 -9 -31 -18 -99 -22 -149 l-6 -93
271 0 c235 0 272 2 272 15 0 9 -9 15 -22 15 -34 0 -50 15 -46 41 2 19 10 25
36 27 l32 3 0 64 0 64 -32 3 c-26 2 -34 8 -36 27 -4 26 12 41 46 41 21 0 22 4
22 75 0 121 -17 115 346 115 166 0 310 -3 319 -6 26 -10 45 -59 45 -116 l0
-52 68 67 c40 39 76 67 88 67 25 0 54 -29 54 -54 0 -10 -47 -68 -105 -129
l-105 -112 0 -77 0 -78 290 0 290 0 0 43 c0 56 -20 207 -30 232 -5 11 -21 52
-36 90 -75 196 -244 385 -424 475 -25 13 -48 27 -51 32 -10 16 -231 65 -314
70 -44 2 -114 1 -155 -3z"/>
<path d="M4027 7473 c-14 -13 -7 -120 8 -133 8 -7 15 -18 15 -25 0 -7 -7 -18
-15 -25 -10 -9 -15 -32 -15 -75 0 -47 4 -64 15 -69 8 -3 15 -15 15 -26 0 -11
-7 -23 -15 -26 -8 -4 -15 -15 -15 -25 0 -19 8 -19 177 -17 128 2 177 6 180 15
3 9 -29 13 -128 15 -108 3 -134 6 -142 19 -6 9 -7 24 -4 33 6 14 28 16 174 16
l168 1 78 75 78 75 -3 87 -3 87 -281 3 c-154 1 -283 -1 -287 -5z m513 -144 c9
-15 8 -24 -1 -35 -10 -12 -47 -14 -217 -12 -178 3 -206 5 -215 20 -8 12 -7 21
2 32 12 14 43 16 217 16 195 0 204 -1 214 -21z"/>
<path d="M4555 7090 l-39 -40 42 0 42 0 0 40 c0 22 -1 40 -3 40 -2 0 -21 -18
-42 -40z"/>
<path d="M3679 5606 c-89 -32 -149 -89 -194 -188 -86 -189 -30 -422 128 -534
l28 -19 -44 -32 c-116 -81 -177 -261 -143 -421 20 -96 58 -164 127 -225 l56
-51 -38 -28 c-116 -84 -179 -266 -146 -424 19 -90 46 -144 104 -205 48 -52
104 -83 171 -94 l44 -7 -25 -27 c-147 -160 -152 -443 -11 -600 78 -87 94 -91
363 -91 l233 0 87 -82 c108 -103 257 -219 426 -333 110 -75 161 -119 332 -290
221 -221 237 -233 374 -262 121 -25 488 -25 609 0 143 31 154 38 384 266 160
158 233 222 301 266 145 92 349 250 449 346 l94 89 229 0 c227 0 229 0 282 26
63 32 120 99 153 181 19 49 23 76 23 178 0 138 -17 193 -84 282 l-40 52 52 11
c104 22 177 85 230 198 39 84 48 210 22 308 -22 83 -83 174 -141 212 l-44 30
34 21 c50 32 95 86 130 161 29 61 31 72 31 180 0 96 -4 124 -23 171 -25 63
-77 128 -135 170 -22 16 -35 29 -29 29 23 0 119 101 144 152 40 82 51 138 46
236 -7 124 -35 191 -113 269 -103 103 136 93 -2304 93 -1720 -1 -2143 -3
-2172 -14z m3831 -724 c102 -4 164 -11 163 -17 -4 -16 -288 -22 -1378 -30
-708 -6 -1195 -4 -1630 4 -555 11 -672 18 -624 35 59 22 2956 28 3469 8z
m-600 -712 c579 -10 770 -17 770 -29 0 -13 -250 -20 -1059 -32 -967 -14 -2591
6 -2591 32 0 30 1792 49 2880 29z m585 -758 c109 -4 180 -11 180 -17 0 -16
-285 -23 -1405 -30 -736 -6 -1232 -4 -1640 4 -522 11 -638 18 -589 35 60 22
2907 28 3454 8z"/>
</g>
</svg>
