<?xml version="1.0" encoding="UTF-8"?>
<svg id="Layer_1" data-name="Layer 1" xmlns="http://www.w3.org/2000/svg" xmlns:xlink="http://www.w3.org/1999/xlink" viewBox="0 0 231.19 74.09">
  <defs>
    <style>
      .cls-1 {
        fill: url(#linear-gradient-2);
      }

      .cls-2 {
        fill: #eb601c;
      }

      .cls-3 {
        fill: url(#linear-gradient-17);
      }

      .cls-4 {
        fill: url(#linear-gradient-43);
      }

      .cls-5 {
        fill: url(#linear-gradient-15);
      }

      .cls-6 {
        fill: url(#linear-gradient-18);
      }

      .cls-7 {
        fill: url(#linear-gradient-40);
      }

      .cls-8 {
        fill: url(#linear-gradient-28);
      }

      .cls-9 {
        fill: url(#linear-gradient-14);
      }

      .cls-10 {
        fill: url(#linear-gradient-36);
      }

      .cls-11 {
        fill: url(#linear-gradient-20);
      }

      .cls-12 {
        fill: url(#linear-gradient-6);
      }

      .cls-13 {
        fill: url(#linear-gradient-35);
      }

      .cls-14 {
        fill: url(#linear-gradient-32);
      }

      .cls-15 {
        fill: url(#linear-gradient-11);
      }

      .cls-16 {
        fill: url(#linear-gradient-39);
      }

      .cls-17 {
        fill: url(#linear-gradient-10);
      }

      .cls-18 {
        fill: url(#linear-gradient-37);
      }

      .cls-19 {
        fill: url(#linear-gradient-16);
      }

      .cls-20 {
        fill: url(#linear-gradient-31);
      }

      .cls-21 {
        fill: url(#linear-gradient-41);
      }

      .cls-22 {
        fill: url(#linear-gradient-21);
      }

      .cls-23 {
        fill: url(#linear-gradient-25);
      }

      .cls-24 {
        fill: url(#linear-gradient-5);
      }

      .cls-25 {
        fill: url(#linear-gradient-34);
      }

      .cls-26 {
        fill: url(#linear-gradient-7);
      }

      .cls-27 {
        fill: url(#linear-gradient-24);
      }

      .cls-28 {
        fill: url(#linear-gradient-9);
      }

      .cls-29 {
        fill: url(#linear-gradient-22);
      }

      .cls-30 {
        fill: url(#linear-gradient-42);
      }

      .cls-31 {
        fill: url(#linear-gradient-3);
      }

      .cls-32 {
        fill: url(#linear-gradient);
      }

      .cls-33 {
        fill: url(#linear-gradient-27);
      }

      .cls-34 {
        fill: url(#linear-gradient-33);
      }

      .cls-35 {
        fill: url(#linear-gradient-38);
      }

      .cls-36 {
        fill: url(#linear-gradient-29);
      }

      .cls-37 {
        fill: url(#linear-gradient-30);
      }

      .cls-38 {
        fill: url(#linear-gradient-23);
      }

      .cls-39 {
        fill: url(#linear-gradient-19);
      }

      .cls-40 {
        fill: url(#linear-gradient-4);
      }

      .cls-41 {
        fill: url(#linear-gradient-8);
      }

      .cls-42 {
        fill: url(#linear-gradient-44);
      }

      .cls-43 {
        fill: url(#linear-gradient-12);
      }

      .cls-44 {
        fill: url(#linear-gradient-13);
      }

      .cls-45 {
        fill: url(#linear-gradient-26);
      }
    </style>
    <linearGradient id="linear-gradient" x1="0" y1="18.99" x2="23.01" y2="18.99" gradientUnits="userSpaceOnUse">
      <stop offset="0" stop-color="#eb601c"/>
      <stop offset="1" stop-color="#ef7b48"/>
    </linearGradient>
    <linearGradient id="linear-gradient-2" x1="26.07" y1="18.99" x2="48.78" y2="18.99" xlink:href="#linear-gradient"/>
    <linearGradient id="linear-gradient-3" x1="51.41" y1="23.81" x2="75.47" y2="23.81" xlink:href="#linear-gradient"/>
    <linearGradient id="linear-gradient-4" x1="78.31" y1="28.29" x2="103.33" y2="28.29" xlink:href="#linear-gradient"/>
    <linearGradient id="linear-gradient-5" x1="105.65" y1="23.81" x2="114.57" y2="23.81" xlink:href="#linear-gradient"/>
    <linearGradient id="linear-gradient-6" x1="147.11" y1="23.81" x2="169.07" y2="23.81" xlink:href="#linear-gradient"/>
    <linearGradient id="linear-gradient-7" x1="171.96" y1="23.48" x2="187.97" y2="23.48" xlink:href="#linear-gradient"/>
    <linearGradient id="linear-gradient-8" x1="189.5" y1="23.81" x2="207.74" y2="23.81" xlink:href="#linear-gradient"/>
    <linearGradient id="linear-gradient-9" x1="209.23" y1="23.81" x2="231.19" y2="23.81" xlink:href="#linear-gradient"/>
    <linearGradient id="linear-gradient-10" x1="105.01" y1="4.17" x2="115.21" y2="4.17" gradientTransform="translate(19.28 -58.22) rotate(32.32)" xlink:href="#linear-gradient"/>
    <linearGradient id="linear-gradient-11" x1="116.48" y1="20.15" x2="148.73" y2="20.15" xlink:href="#linear-gradient"/>
    <linearGradient id="linear-gradient-12" x1="93.12" y1="47.2" x2="98.19" y2="47.2" xlink:href="#linear-gradient"/>
    <linearGradient id="linear-gradient-13" x1="100.55" y1="47.04" x2="105.62" y2="47.04" xlink:href="#linear-gradient"/>
    <linearGradient id="linear-gradient-14" x1="107.83" y1="45.75" x2="109.86" y2="45.75" xlink:href="#linear-gradient"/>
    <linearGradient id="linear-gradient-15" x1="111.63" y1="47.12" x2="117.35" y2="47.12" xlink:href="#linear-gradient"/>
    <linearGradient id="linear-gradient-16" x1="118.74" y1="47.12" x2="123.97" y2="47.12" xlink:href="#linear-gradient"/>
    <linearGradient id="linear-gradient-17" x1="126.15" y1="47.07" x2="129.81" y2="47.07" xlink:href="#linear-gradient"/>
    <linearGradient id="linear-gradient-18" x1="131.55" y1="47.12" x2="135.97" y2="47.12" xlink:href="#linear-gradient"/>
    <linearGradient id="linear-gradient-19" x1="137.86" y1="47.12" x2="143.09" y2="47.12" xlink:href="#linear-gradient"/>
    <linearGradient id="linear-gradient-20" x1="148.31" y1="47.12" x2="153.99" y2="47.12" xlink:href="#linear-gradient"/>
    <linearGradient id="linear-gradient-21" x1="155.58" y1="45.62" x2="159.95" y2="45.62" xlink:href="#linear-gradient"/>
    <linearGradient id="linear-gradient-22" x1="164.54" y1="47.12" x2="169.77" y2="47.12" xlink:href="#linear-gradient"/>
    <linearGradient id="linear-gradient-23" x1="171.82" y1="47.12" x2="176.47" y2="47.12" xlink:href="#linear-gradient"/>
    <linearGradient id="linear-gradient-24" x1="178.3" y1="47.12" x2="183.98" y2="47.12" xlink:href="#linear-gradient"/>
    <linearGradient id="linear-gradient-25" x1="186.09" y1="47.04" x2="194.28" y2="47.04" xlink:href="#linear-gradient"/>
    <linearGradient id="linear-gradient-26" x1="196.59" y1="47.04" x2="204.78" y2="47.04" xlink:href="#linear-gradient"/>
    <linearGradient id="linear-gradient-27" x1="206.85" y1="47.12" x2="212.08" y2="47.12" xlink:href="#linear-gradient"/>
    <linearGradient id="linear-gradient-28" x1="214.26" y1="47.07" x2="217.92" y2="47.07" xlink:href="#linear-gradient"/>
    <linearGradient id="linear-gradient-29" x1="219.48" y1="47.12" x2="224.13" y2="47.12" xlink:href="#linear-gradient"/>
    <linearGradient id="linear-gradient-30" x1="225.96" y1="47.12" x2="231.19" y2="47.12" xlink:href="#linear-gradient"/>
    <linearGradient id="linear-gradient-31" x1=".03" y1="68.43" x2="9.01" y2="68.43" xlink:href="#linear-gradient"/>
    <linearGradient id="linear-gradient-32" x1="16.82" y1="68.54" x2="26" y2="68.54" xlink:href="#linear-gradient"/>
    <linearGradient id="linear-gradient-33" x1="33.57" y1="68.4" x2="42.7" y2="68.4" xlink:href="#linear-gradient"/>
    <linearGradient id="linear-gradient-34" x1="50.52" y1="68.43" x2="52.23" y2="68.43" xlink:href="#linear-gradient"/>
    <linearGradient id="linear-gradient-35" x1="60.82" y1="68.43" x2="70.01" y2="68.43" xlink:href="#linear-gradient"/>
    <linearGradient id="linear-gradient-36" x1="78.6" y1="68.43" x2="86.59" y2="68.43" xlink:href="#linear-gradient"/>
    <linearGradient id="linear-gradient-37" x1="93.8" y1="68.4" x2="102.94" y2="68.4" xlink:href="#linear-gradient"/>
    <linearGradient id="linear-gradient-38" x1="109.87" y1="68.4" x2="119" y2="68.4" xlink:href="#linear-gradient"/>
    <linearGradient id="linear-gradient-39" x1="135.65" y1="68.4" x2="144.78" y2="68.4" xlink:href="#linear-gradient"/>
    <linearGradient id="linear-gradient-40" x1="151.93" y1="68.45" x2="161.7" y2="68.45" xlink:href="#linear-gradient"/>
    <linearGradient id="linear-gradient-41" x1="169.33" y1="68.43" x2="178.49" y2="68.43" xlink:href="#linear-gradient"/>
    <linearGradient id="linear-gradient-42" x1="186.42" y1="68.45" x2="197.48" y2="68.45" xlink:href="#linear-gradient"/>
    <linearGradient id="linear-gradient-43" x1="204.74" y1="68.45" x2="215.81" y2="68.45" xlink:href="#linear-gradient"/>
    <linearGradient id="linear-gradient-44" x1="223.73" y1="68.43" x2="231.16" y2="68.43" xlink:href="#linear-gradient"/>
  </defs>
  <g>
    <g>
      <g>
        <path class="cls-32" d="M23.01,25.82c0,5.99-4.46,9.58-12.69,9.58-3.54,0-7.17-.66-9.62-1.71v-8.75c2.93,1.62,6.43,2.49,9.14,2.49s4.24-.48,4.24-1.62c0-1.31-2.06-1.92-5.42-3.24C3.59,20.61,0,18.51,0,12.48S4.86,2.59,12.34,2.59c3.15,0,6.39,.57,8.57,1.49V12.48c-1.92-1.27-4.86-2.01-7.79-2.01-2.58,0-4.16,.74-4.16,2.01,0,1.14,1.92,1.92,5.12,3.24,5.07,2.1,8.92,4.24,8.92,10.11Z"/>
        <path class="cls-1" d="M48.78,34.74h-8.92v-12.34c0-1.36-.74-2.19-1.84-2.19-1.88,0-3.02,1.4-3.02,3.5v11.02h-8.92V3.24h8.71V15.41c1.27-1.71,3.81-3.19,6.3-3.19,4.46,0,7.7,2.8,7.7,8.88v13.65Z"/>
        <path class="cls-31" d="M51.41,23.81c0-6.65,5.03-11.59,12.03-11.59s12.03,4.94,12.03,11.59-5.03,11.59-12.03,11.59-12.03-4.94-12.03-11.59Zm8.31,0c0,2.62,1.71,4.24,3.72,4.24s3.72-1.62,3.72-4.24-1.71-4.24-3.72-4.24-3.72,1.62-3.72,4.24Z"/>
        <path class="cls-40" d="M87.19,32.99h-.09s.13,.53,.13,1.84v9.54h-8.92V12.87h8.05l.17,1.44c.09,.79-.04,1.31-.04,1.31h.09c.88-1.97,3.63-3.41,6.52-3.41,5.51,0,10.24,4.07,10.24,11.59s-4.72,11.59-10.02,11.59c-2.84,0-5.03-1.05-6.12-2.41Zm.39-9.19c0,2.62,1.71,4.24,3.72,4.24s3.72-1.62,3.72-4.24-1.71-4.24-3.72-4.24-3.72,1.62-3.72,4.24Z"/>
        <path class="cls-24" d="M105.65,34.74V12.87h8.92v21.87h-8.92Z"/>
        <path class="cls-12" d="M169.07,22.49c0,1.4-.17,2.71-.26,3.11h-12.47c.39,1.71,2.06,2.41,4.55,2.41,3.24,0,6.65-.96,7.26-1.18v7.35c-1.05,.44-3.98,1.22-8.14,1.22-8.14,0-12.91-4.94-12.91-11.59s4.99-11.59,11.51-11.59c7.04,0,10.46,4.81,10.46,10.28Zm-10.54-3.5c-1.53,0-2.27,1.18-2.27,2.8h4.46c.09-1.62-.66-2.8-2.19-2.8Z"/>
        <path class="cls-26" d="M171.96,12.87h8.05l.35,2.49c1.31-1.62,3.67-3.15,6.17-3.15,.74,0,1.44,.09,1.44,.09v8.71s-.66-.35-1.71-.35c-2.45,0-5.38,1.27-5.38,4.99v9.1h-8.92V12.87Z"/>
        <path class="cls-41" d="M207.74,28.31c0,4.46-3.67,7.09-9.97,7.09-3.81,0-6.39-.83-7.79-1.4v-7.7c2.01,1.14,5.51,2.23,7.7,2.23,.96,0,1.92-.09,1.92-.66,0-.52-1.05-.74-2.76-1.18-4.29-1.05-7.35-2.8-7.35-7.31s3.19-7.17,8.84-7.17c3.89,0,6.82,.92,7.96,1.36v7.48c-1.79-.92-5.08-1.88-7.17-1.88-.52,0-1.49,.04-1.49,.66,0,.48,.66,.83,2.36,1.22,5.29,1.27,7.74,3.06,7.74,7.26Z"/>
        <path class="cls-28" d="M231.19,22.49c0,1.4-.17,2.71-.26,3.11h-12.47c.39,1.71,2.06,2.41,4.55,2.41,3.24,0,6.65-.96,7.26-1.18v7.35c-1.05,.44-3.98,1.22-8.14,1.22-8.14,0-12.91-4.94-12.91-11.59s4.99-11.59,11.51-11.59c7.04,0,10.46,4.81,10.46,10.28Zm-10.54-3.5c-1.53,0-2.27,1.18-2.27,2.8h4.46c.09-1.62-.66-2.8-2.19-2.8Z"/>
        <ellipse class="cls-17" cx="110.11" cy="4.17" rx="5.63" ry="3.42" transform="translate(14.83 59.51) rotate(-32.32)"/>
      </g>
      <path class="cls-15" d="M127.67,35.4l-11.19-30.49h10.83l5.42,19.66,5.38-19.66h10.63l-11.19,30.49h-9.87Z"/>
    </g>
    <g>
      <path class="cls-43" d="M94.87,49.86c-.57,0-1-.18-1.3-.54s-.45-.9-.45-1.6v-3.18h1.82v2.81c0,.31,.05,.53,.17,.68s.29,.22,.53,.22,.42-.08,.55-.25,.2-.41,.2-.72v-2.73h1.81v5.16h-1.78l-.02-.64c-.13,.25-.33,.45-.59,.59-.26,.14-.57,.21-.93,.21Z"/>
      <path class="cls-44" d="M100.55,49.7v-5.16h1.78l.02,.64c.13-.25,.33-.45,.59-.59,.26-.14,.56-.21,.9-.21,.58,0,1.02,.19,1.32,.56,.3,.37,.46,.91,.46,1.62v3.14h-1.81v-2.8c0-.61-.23-.91-.69-.91-.25,0-.43,.08-.56,.25s-.2,.41-.2,.72v2.73h-1.81Z"/>
      <path class="cls-9" d="M108.85,43.73c-.29,0-.53-.09-.72-.28s-.29-.41-.29-.68c0-.28,.1-.51,.29-.7s.44-.28,.72-.28,.53,.09,.72,.28,.29,.42,.29,.7-.1,.49-.29,.68-.43,.28-.72,.28Zm-.91,5.97v-5.16h1.81v5.16h-1.81Z"/>
      <path class="cls-5" d="M113.53,49.7l-1.9-5.16h2.01l.87,3.42,.95-3.42h1.89l-1.91,5.16h-1.91Z"/>
      <path class="cls-19" d="M121.85,49.86c-.65,0-1.2-.11-1.67-.33-.46-.22-.82-.54-1.07-.95s-.38-.9-.38-1.46,.11-1.02,.34-1.43,.54-.74,.95-.96c.41-.23,.88-.35,1.41-.35s.97,.11,1.35,.32,.67,.51,.88,.89c.2,.38,.3,.84,.3,1.38,0,.09,0,.19,0,.28s-.02,.19-.03,.29h-3.43c.08,.35,.25,.6,.51,.75,.26,.16,.62,.24,1.08,.24,.28,0,.57-.03,.87-.1,.3-.06,.56-.15,.79-.25l.16,1.3c-.28,.13-.6,.22-.96,.29-.36,.07-.72,.1-1.09,.1Zm-.44-4.25c-.52,0-.83,.31-.94,.94h1.82c0-.07,0-.14-.02-.19-.05-.23-.14-.42-.29-.55-.15-.13-.34-.2-.57-.2Z"/>
      <path class="cls-3" d="M126.15,49.7v-5.16h1.76l.02,.91c.11-.32,.27-.57,.5-.75s.49-.26,.79-.26c.23,0,.42,.03,.59,.1l-.15,1.71c-.09-.03-.19-.06-.32-.08s-.24-.04-.35-.04c-.69,0-1.03,.45-1.03,1.36v2.21h-1.81Z"/>
      <path class="cls-6" d="M133.63,49.86c-.4,0-.79-.05-1.17-.14-.38-.09-.68-.22-.91-.37l.2-1.28c.26,.17,.54,.29,.85,.38,.31,.09,.61,.13,.91,.13,.45,0,.68-.12,.68-.35,0-.12-.05-.21-.15-.28-.1-.06-.31-.14-.63-.22-.64-.17-1.09-.39-1.37-.65-.27-.26-.4-.61-.4-1.05,0-.52,.2-.92,.59-1.21,.39-.29,.93-.44,1.62-.44,.35,0,.69,.04,1.03,.11s.62,.17,.85,.3l-.19,1.26c-.53-.26-1.06-.39-1.57-.39-.39,0-.58,.11-.58,.33,0,.11,.05,.2,.16,.26,.11,.07,.32,.15,.63,.24,.64,.17,1.1,.39,1.38,.67,.28,.27,.42,.62,.42,1.06,0,.52-.21,.92-.62,1.21-.41,.29-.99,.43-1.72,.43Z"/>
      <path class="cls-39" d="M140.97,49.86c-.65,0-1.2-.11-1.67-.33-.46-.22-.82-.54-1.07-.95s-.38-.9-.38-1.46,.11-1.02,.34-1.43,.54-.74,.95-.96c.41-.23,.88-.35,1.41-.35s.97,.11,1.35,.32,.67,.51,.88,.89c.2,.38,.3,.84,.3,1.38,0,.09,0,.19,0,.28s-.02,.19-.03,.29h-3.43c.08,.35,.25,.6,.51,.75,.26,.16,.62,.24,1.08,.24,.28,0,.57-.03,.87-.1,.3-.06,.56-.15,.79-.25l.16,1.3c-.28,.13-.6,.22-.96,.29-.36,.07-.72,.1-1.09,.1Zm-.44-4.25c-.52,0-.83,.31-.94,.94h1.82c0-.07,0-.14-.02-.19-.05-.23-.14-.42-.29-.55-.15-.13-.34-.2-.57-.2Z"/>
      <path class="cls-11" d="M151.15,49.86c-.55,0-1.03-.12-1.46-.36-.43-.24-.76-.56-1.01-.97-.25-.41-.37-.88-.37-1.41s.12-1,.37-1.41c.25-.41,.58-.74,1.01-.97s.92-.36,1.46-.36,1.03,.12,1.46,.36,.76,.56,1.01,.97c.25,.41,.37,.88,.37,1.42s-.12,1-.37,1.41c-.25,.41-.58,.74-1.01,.97-.43,.24-.92,.36-1.46,.36Zm0-1.61c.3,0,.55-.11,.74-.32,.19-.21,.29-.48,.29-.81s-.1-.6-.29-.81c-.19-.21-.44-.32-.74-.32s-.56,.1-.75,.32c-.19,.21-.29,.48-.29,.81s.1,.6,.29,.81c.19,.21,.44,.32,.75,.32Z"/>
      <path class="cls-22" d="M156.41,49.7v-3.71h-.83v-1.45h.83v-.5c0-.79,.2-1.41,.59-1.84,.39-.43,.95-.65,1.68-.65,.22,0,.45,.02,.7,.07,.24,.04,.43,.1,.57,.17l-.17,1.46c-.09-.03-.21-.06-.34-.09s-.25-.04-.36-.04c-.29,0-.51,.08-.65,.25-.14,.17-.21,.43-.21,.79v.38h1.22v1.45h-1.22v3.71h-1.81Z"/>
      <path class="cls-29" d="M167.65,49.86c-.65,0-1.2-.11-1.67-.33-.46-.22-.82-.54-1.07-.95s-.38-.9-.38-1.46,.11-1.02,.34-1.43,.54-.74,.95-.96c.41-.23,.88-.35,1.41-.35s.97,.11,1.35,.32,.67,.51,.88,.89c.2,.38,.3,.84,.3,1.38,0,.09,0,.19,0,.28s-.02,.19-.03,.29h-3.43c.08,.35,.25,.6,.51,.75,.26,.16,.62,.24,1.08,.24,.28,0,.57-.03,.87-.1,.3-.06,.56-.15,.79-.25l.16,1.3c-.28,.13-.6,.22-.96,.29-.36,.07-.72,.1-1.09,.1Zm-.44-4.25c-.52,0-.83,.31-.94,.94h1.82c0-.07,0-.14-.02-.19-.05-.23-.14-.42-.29-.55-.15-.13-.34-.2-.57-.2Z"/>
      <path class="cls-38" d="M174.68,49.84c-.58,0-1.08-.11-1.51-.33-.43-.22-.76-.54-1-.94-.24-.41-.35-.88-.35-1.42s.12-1.02,.36-1.43c.24-.41,.57-.73,1-.96,.43-.23,.92-.34,1.48-.34,.31,0,.64,.04,.96,.11,.33,.07,.6,.17,.82,.28l-.22,1.51c-.23-.1-.45-.17-.67-.22-.22-.05-.44-.07-.65-.07-.41,0-.72,.1-.95,.29s-.34,.47-.34,.82,.12,.62,.35,.81,.56,.29,.97,.29,.88-.1,1.35-.29l.18,1.48c-.23,.13-.51,.24-.82,.32-.32,.08-.64,.11-.96,.11Z"/>
      <path class="cls-27" d="M181.14,49.86c-.55,0-1.03-.12-1.46-.36-.43-.24-.76-.56-1.01-.97-.25-.41-.37-.88-.37-1.41s.12-1,.37-1.41c.25-.41,.58-.74,1.01-.97s.92-.36,1.46-.36,1.03,.12,1.46,.36,.76,.56,1.01,.97c.25,.41,.37,.88,.37,1.42s-.12,1-.37,1.41c-.25,.41-.58,.74-1.01,.97-.43,.24-.92,.36-1.46,.36Zm0-1.61c.3,0,.55-.11,.74-.32,.19-.21,.29-.48,.29-.81s-.1-.6-.29-.81c-.19-.21-.44-.32-.74-.32s-.56,.1-.75,.32c-.19,.21-.29,.48-.29,.81s.1,.6,.29,.81c.19,.21,.44,.32,.75,.32Z"/>
      <path class="cls-23" d="M186.09,49.7v-5.16h1.76l.02,.63c.14-.25,.34-.45,.6-.58,.26-.14,.55-.21,.88-.21,.71,0,1.22,.28,1.51,.85,.15-.27,.36-.48,.65-.62,.28-.15,.6-.23,.96-.23,.59,0,1.04,.19,1.35,.56s.46,.91,.46,1.62v3.14h-1.8v-2.8c0-.61-.22-.91-.67-.91-.49,0-.73,.33-.73,.98v2.73h-1.8v-2.8c0-.61-.22-.91-.67-.91-.48,0-.72,.33-.72,.98v2.73h-1.8Z"/>
      <path class="cls-45" d="M196.59,49.7v-5.16h1.76l.02,.63c.14-.25,.34-.45,.6-.58,.26-.14,.55-.21,.88-.21,.71,0,1.22,.28,1.51,.85,.15-.27,.36-.48,.65-.62,.28-.15,.6-.23,.96-.23,.59,0,1.04,.19,1.35,.56s.46,.91,.46,1.62v3.14h-1.8v-2.8c0-.61-.22-.91-.67-.91-.49,0-.73,.33-.73,.98v2.73h-1.8v-2.8c0-.61-.22-.91-.67-.91-.48,0-.72,.33-.72,.98v2.73h-1.8Z"/>
      <path class="cls-33" d="M209.96,49.86c-.65,0-1.2-.11-1.67-.33-.46-.22-.82-.54-1.07-.95s-.38-.9-.38-1.46,.11-1.02,.34-1.43,.54-.74,.95-.96c.41-.23,.88-.35,1.41-.35s.97,.11,1.35,.32,.67,.51,.88,.89c.2,.38,.3,.84,.3,1.38,0,.09,0,.19,0,.28s-.02,.19-.03,.29h-3.43c.08,.35,.25,.6,.51,.75,.26,.16,.62,.24,1.08,.24,.28,0,.57-.03,.87-.1,.3-.06,.56-.15,.79-.25l.16,1.3c-.28,.13-.6,.22-.96,.29-.36,.07-.72,.1-1.09,.1Zm-.44-4.25c-.52,0-.83,.31-.94,.94h1.82c0-.07,0-.14-.02-.19-.05-.23-.14-.42-.29-.55-.15-.13-.34-.2-.57-.2Z"/>
      <path class="cls-8" d="M214.26,49.7v-5.16h1.76l.02,.91c.11-.32,.27-.57,.5-.75s.49-.26,.79-.26c.23,0,.42,.03,.59,.1l-.15,1.71c-.09-.03-.19-.06-.32-.08s-.24-.04-.35-.04c-.69,0-1.03,.45-1.03,1.36v2.21h-1.81Z"/>
      <path class="cls-36" d="M222.34,49.84c-.58,0-1.08-.11-1.51-.33-.43-.22-.76-.54-1-.94-.24-.41-.35-.88-.35-1.42s.12-1.02,.36-1.43c.24-.41,.57-.73,1-.96,.43-.23,.92-.34,1.48-.34,.31,0,.64,.04,.96,.11,.33,.07,.6,.17,.82,.28l-.22,1.51c-.23-.1-.45-.17-.67-.22-.22-.05-.44-.07-.65-.07-.41,0-.72,.1-.95,.29s-.34,.47-.34,.82,.12,.62,.35,.81,.56,.29,.97,.29,.88-.1,1.35-.29l.18,1.48c-.23,.13-.51,.24-.82,.32-.32,.08-.64,.11-.96,.11Z"/>
      <path class="cls-37" d="M229.07,49.86c-.65,0-1.2-.11-1.67-.33-.46-.22-.82-.54-1.07-.95s-.38-.9-.38-1.46,.11-1.02,.34-1.43,.54-.74,.95-.96c.41-.23,.88-.35,1.41-.35s.97,.11,1.35,.32,.67,.51,.88,.89c.2,.38,.3,.84,.3,1.38,0,.09,0,.19,0,.28s-.02,.19-.03,.29h-3.43c.08,.35,.25,.6,.51,.75,.26,.16,.62,.24,1.08,.24,.28,0,.57-.03,.87-.1,.3-.06,.56-.15,.79-.25l.16,1.3c-.28,.13-.6,.22-.96,.29-.36,.07-.72,.1-1.09,.1Zm-.44-4.25c-.52,0-.83,.31-.94,.94h1.82c0-.07,0-.14-.02-.19-.05-.23-.14-.42-.29-.55-.15-.13-.34-.2-.57-.2Z"/>
    </g>
  </g>
  <g>
    <path class="cls-20" d="M4.99,63.02c2.06,0,3.68,.94,3.68,3.09,0,.91-.48,1.73-1.5,2.15,1.3,.39,1.84,1.67,1.84,2.49,0,2.36-1.89,3.09-4.02,3.09H.03v-10.82H4.99Zm-3.25,4.48h3.26c1.3,0,1.95-.51,1.95-1.36,0-.76-.66-1.56-1.96-1.56H1.74v2.92Zm0,4.73h3.25c.96,0,2.29-.31,2.29-1.5s-1.28-1.68-2.27-1.68H1.74v3.18Z"/>
    <path class="cls-14" d="M26,63.04v6.32c0,3.18-2.1,4.78-4.71,4.68-2.41-.06-4.47-1.61-4.47-4.68v-6.32h1.72v6.32c0,1.96,1.14,3.03,2.75,3.09,1.73,.09,3-1.04,3-3.09v-6.32h1.72Z"/>
    <path class="cls-34" d="M40.91,65.42c-.51-.74-1.55-1.19-2.67-1.21-1.45,0-2.5,.6-2.5,1.64s1.21,1.34,2.63,1.55c2.23,.31,4.34,.93,4.34,3.35-.02,2.43-2.23,3.34-4.48,3.34-2.07,0-3.66-.63-4.65-2.46l1.3-.87c.77,1.31,2.12,1.78,3.37,1.78s2.74-.43,2.74-1.79c0-1.17-1.25-1.58-2.77-1.78-2.15-.29-4.19-.83-4.19-3.15-.02-2.24,2.23-3.11,4.17-3.11,1.56,0,3.12,.37,4.03,1.82l-1.31,.88Z"/>
    <path class="cls-25" d="M50.52,73.84v-10.82h1.72v10.82h-1.72Z"/>
    <path class="cls-13" d="M68.28,70.72v-7.7h1.73v10.82h-1.31l-6.14-7.64v7.64h-1.75v-10.82h1.33l6.14,7.7Z"/>
    <path class="cls-10" d="M86.59,73.84h-7.99v-10.82h7.94v1.68h-6.21v2.92h5.97v1.61h-5.97v2.91h6.26v1.7Z"/>
    <path class="cls-18" d="M101.14,65.42c-.51-.74-1.55-1.19-2.67-1.21-1.45,0-2.5,.6-2.5,1.64s1.21,1.34,2.63,1.55c2.23,.31,4.34,.93,4.34,3.35-.02,2.43-2.23,3.34-4.48,3.34-2.07,0-3.66-.63-4.65-2.46l1.3-.87c.77,1.31,2.12,1.78,3.37,1.78s2.74-.43,2.74-1.79c0-1.17-1.25-1.58-2.77-1.78-2.15-.29-4.19-.83-4.19-3.15-.02-2.24,2.23-3.11,4.17-3.11,1.56,0,3.12,.37,4.03,1.82l-1.31,.88Z"/>
    <path class="cls-35" d="M117.21,65.42c-.51-.74-1.55-1.19-2.67-1.21-1.45,0-2.5,.6-2.5,1.64s1.21,1.34,2.63,1.55c2.23,.31,4.34,.93,4.34,3.35-.02,2.43-2.23,3.34-4.48,3.34-2.07,0-3.66-.63-4.65-2.46l1.3-.87c.77,1.31,2.12,1.78,3.37,1.78s2.74-.43,2.74-1.79c0-1.17-1.25-1.58-2.77-1.78-2.15-.29-4.19-.83-4.19-3.15-.02-2.24,2.23-3.11,4.17-3.11,1.56,0,3.12,.37,4.03,1.82l-1.31,.88Z"/>
    <path class="cls-16" d="M142.99,65.42c-.51-.74-1.55-1.19-2.67-1.21-1.45,0-2.5,.6-2.5,1.64s1.21,1.34,2.63,1.55c2.23,.31,4.34,.93,4.34,3.35-.02,2.43-2.23,3.34-4.48,3.34-2.07,0-3.66-.63-4.65-2.46l1.3-.87c.77,1.31,2.12,1.78,3.37,1.78s2.74-.43,2.74-1.79c0-1.17-1.25-1.58-2.77-1.78-2.15-.29-4.19-.83-4.19-3.15-.02-2.24,2.23-3.11,4.17-3.11,1.56,0,3.12,.37,4.03,1.82l-1.31,.88Z"/>
    <path class="cls-7" d="M161.7,72.45c-1.11,1.1-2.55,1.61-4.06,1.61-3.93,0-5.69-2.71-5.7-5.55-.02-2.84,1.84-5.67,5.7-5.67,1.45,0,2.86,.54,3.96,1.64l-1.16,1.11c-.77-.76-1.79-1.11-2.8-1.11-2.75,0-4,2.02-3.99,4.02,.02,1.98,1.19,3.94,3.99,3.94,1,0,2.12-.42,2.88-1.17l1.19,1.19Z"/>
    <path class="cls-21" d="M176.78,73.84v-4.5h-5.72v4.5h-1.73v-10.82h1.73v4.71h5.72v-4.71h1.72v10.82h-1.72Z"/>
    <path class="cls-30" d="M197.48,68.48c0,2.92-1.78,5.6-5.53,5.6s-5.53-2.74-5.53-5.58c0-3.29,2.3-5.67,5.56-5.67,3.69,.02,5.5,2.74,5.5,5.66Zm-5.53,4c2.69,0,3.82-1.9,3.82-3.97s-1.14-4.07-3.79-4.11c-2.5,0-3.85,1.75-3.85,4.11,.03,1.92,1.14,3.97,3.82,3.97Z"/>
    <path class="cls-4" d="M215.81,68.48c0,2.92-1.78,5.6-5.53,5.6s-5.53-2.74-5.53-5.58c0-3.29,2.3-5.67,5.56-5.67,3.69,.02,5.5,2.74,5.5,5.66Zm-5.53,4c2.69,0,3.82-1.9,3.82-3.97s-1.14-4.07-3.79-4.11c-2.5,0-3.85,1.75-3.85,4.11,.03,1.92,1.14,3.97,3.82,3.97Z"/>
    <path class="cls-42" d="M225.46,63.02v9.21h5.7v1.61h-7.43v-10.82h1.73Z"/>
  </g>
  <rect class="cls-2" x=".1" y="55.81" width="231" height=".5"/>
</svg>