<?xml version="1.0" encoding="UTF-8"?>
<svg id="Layer_1" data-name="Layer 1" xmlns="http://www.w3.org/2000/svg" viewBox="0 0 500 240">
  <path d="m243.28,86.03c4.7-2.98,7.06-7.7,5.25-10.56-1.81-2.86-7.08-2.76-11.79.22-4.7,2.98-7.05,7.7-5.25,10.56,1.81,2.85,7.09,2.76,11.79-.22Z"/>
  <path d="m68.05,101.53c-5.72-2.35-9.16-3.76-9.16-5.8,0-2.27,2.82-3.6,7.44-3.6,5.25,0,10.5,1.33,13.94,3.6v-15.04c-3.92-1.65-9.71-2.66-15.35-2.66-13.4,0-22.09,7.13-22.09,17.7s6.42,14.57,15.51,18.1c6.03,2.35,9.71,3.45,9.71,5.8,0,2.04-2.66,2.9-7.6,2.9s-11.12-1.57-16.37-4.46v15.67c4.39,1.88,10.89,3.05,17.23,3.05,14.73,0,22.72-6.42,22.72-17.16s-6.89-14.34-15.98-18.1Z"/>
  <path d="m116.39,95.26c-4.46,0-9.01,2.66-11.28,5.72v-21.78h-15.59v56.4h15.98v-19.74c0-3.76,2.04-6.27,5.4-6.27,1.96,0,3.29,1.49,3.29,3.92v22.09h15.98v-24.44c0-10.89-5.8-15.9-13.79-15.9Z"/>
  <path d="m156.42,95.26c-12.53,0-21.54,8.85-21.54,20.76s9.01,20.76,21.54,20.76,21.54-8.85,21.54-20.76-9.01-20.76-21.54-20.76Zm0,28.36c-3.6,0-6.66-2.9-6.66-7.6s3.05-7.6,6.66-7.6,6.66,2.9,6.66,7.6-3.05,7.6-6.66,7.6Z"/>
  <path d="m209.93,136.78c9.48,0,17.94-7.29,17.94-20.76s-8.46-20.76-18.33-20.76c-5.17,0-10.11,2.59-11.67,6.11h-.16s.24-.94.08-2.35l-.31-2.59h-14.41v56.4h15.98v-17.08c0-2.35-.23-3.29-.23-3.29h.16c1.96,2.43,5.88,4.31,10.97,4.31Zm-3.6-28.36c3.6,0,6.66,2.9,6.66,7.6s-3.06,7.6-6.66,7.6-6.66-2.9-6.66-7.6,3.05-7.6,6.66-7.6Z"/>
  <rect x="232.02" y="96.44" width="15.98" height="39.17"/>
  <path d="m343.93,134.59v-13.16c-1.1.39-7.21,2.12-13,2.12-4.46,0-7.44-1.25-8.15-4.31h22.33c.16-.7.47-3.06.47-5.56,0-9.79-6.11-18.41-18.72-18.41-11.67,0-20.6,8.85-20.6,20.76s8.54,20.76,23.11,20.76c7.44,0,12.69-1.41,14.57-2.19Zm-17.23-27.18c2.74,0,4.07,2.12,3.92,5.01h-7.99c0-2.9,1.33-5.01,4.07-5.01Z"/>
  <path d="m379.43,95.42s-1.25-.16-2.59-.16c-4.46,0-8.69,2.74-11.05,5.64l-.63-4.46h-14.41v39.17h15.98v-16.3c0-6.66,5.25-8.93,9.64-8.93,1.88,0,3.06.63,3.06.63v-15.59Z"/>
  <path d="m400.97,111.09c-3.05-.7-4.23-1.33-4.23-2.19,0-1.1,1.72-1.18,2.66-1.18,3.76,0,9.64,1.72,12.85,3.37v-13.39c-2.04-.78-7.29-2.43-14.26-2.43-10.11,0-15.82,4.78-15.82,12.85s5.48,11.2,13.16,13.08c3.05.78,4.94,1.17,4.94,2.11,0,1.02-1.72,1.17-3.45,1.17-3.92,0-10.18-1.96-13.79-4v13.79c2.51,1.02,7.13,2.51,13.94,2.51,11.28,0,17.86-4.7,17.86-12.69,0-7.52-4.39-10.73-13.87-13Z"/>
  <path d="m440.61,136.78c7.44,0,12.69-1.41,14.57-2.19v-13.16c-1.1.39-7.21,2.12-13,2.12-4.46,0-7.44-1.25-8.15-4.31h22.33c.16-.7.47-3.06.47-5.56,0-9.79-6.11-18.41-18.72-18.41-11.67,0-20.6,8.85-20.6,20.76s8.54,20.76,23.11,20.76Zm-2.66-29.38c2.74,0,4.07,2.12,3.92,5.01h-7.99c0-2.9,1.33-5.01,4.07-5.01Z"/>
  <polygon points="289.13 136.78 309.17 82.19 290.13 82.19 280.51 117.39 270.81 82.19 251.42 82.19 271.46 136.78 289.13 136.78"/>
  <path d="m214.25,156.56c-.56-.15-.93-.29-1.12-.42-.19-.12-.28-.28-.28-.47,0-.39.34-.59,1.03-.59.91,0,1.84.23,2.79.69l.32-2.24c-.39-.22-.89-.4-1.49-.53-.6-.13-1.21-.2-1.83-.2-1.22,0-2.18.26-2.88.77s-1.05,1.23-1.05,2.16c0,.79.24,1.42.72,1.87.48.46,1.29.84,2.42,1.14.57.15.94.29,1.12.4.18.11.27.27.27.49,0,.41-.4.62-1.21.62-.53,0-1.07-.08-1.62-.23s-1.05-.38-1.51-.67l-.35,2.27c.4.27.94.49,1.61.66.68.17,1.37.25,2.08.25,1.3,0,2.32-.25,3.04-.76.73-.51,1.09-1.22,1.09-2.15,0-.78-.24-1.41-.73-1.89-.49-.48-1.3-.87-2.43-1.18Z"/>
  <path d="m226.57,157.94c0,.56-.12.99-.35,1.29s-.56.45-.99.45c-.83,0-1.24-.53-1.24-1.6v-4.99h-3.21v5.64c0,1.24.27,2.19.8,2.83.53.65,1.3.97,2.31.97.61,0,1.16-.12,1.63-.36.47-.24.83-.59,1.06-1.04l.04,1.12h3.16v-9.16h-3.21v4.85Z"/>
  <path d="m241.59,153.43c-.61-.41-1.31-.61-2.1-.61-1.29,0-2.23.5-2.82,1.49l-.04-1.21h-3v13.51h3.21v-5.27c.59.8,1.44,1.21,2.56,1.21.79,0,1.5-.22,2.12-.65.62-.43,1.12-1.02,1.48-1.76.37-.74.55-1.57.55-2.49s-.17-1.78-.52-2.51c-.35-.73-.83-1.3-1.44-1.7Zm-1.75,5.69c-.34.38-.79.57-1.33.57s-.99-.19-1.33-.57c-.34-.38-.51-.86-.51-1.44s.17-1.07.51-1.45c.34-.37.79-.56,1.33-.56s.99.19,1.33.56c.34.37.51.85.51,1.45s-.17,1.06-.51,1.44Z"/>
  <path d="m253.74,153.37c-.67-.37-1.47-.56-2.4-.56s-1.78.2-2.5.61c-.72.41-1.28.98-1.69,1.71-.4.73-.6,1.58-.6,2.54,0,1.01.22,1.87.67,2.6.44.73,1.08,1.29,1.9,1.68.82.39,1.81.59,2.95.59.66,0,1.31-.06,1.94-.18.63-.12,1.2-.29,1.69-.51l-.28-2.31c-.4.19-.87.34-1.4.45-.53.11-1.04.17-1.53.17-.8,0-1.44-.14-1.91-.42-.47-.28-.77-.72-.91-1.34h6.09c.02-.18.04-.35.05-.51.01-.17.02-.33.02-.5,0-.95-.18-1.76-.54-2.44-.36-.68-.88-1.21-1.55-1.58Zm-4.12,3.29c.19-1.12.75-1.69,1.67-1.69.41,0,.75.12,1.01.36.26.24.43.57.51.99.02.11.04.22.04.34h-3.23Z"/>
  <path d="m263.41,153.4c-.4.32-.7.77-.9,1.35l-.02-1.65h-3.12v9.16h3.21v-3.92c0-1.61.61-2.41,1.83-2.41.19,0,.4.02.62.06.22.04.41.09.57.15l.27-3.04c-.3-.12-.64-.18-1.05-.18-.54,0-1.01.16-1.41.48Z"/>
  <path d="m275.15,154.27c-.26-.46-.63-.82-1.1-1.07s-1.01-.38-1.6-.38c-.78,0-1.49.22-2.11.65s-1.12,1.01-1.49,1.75c-.37.73-.55,1.57-.55,2.5s.17,1.78.51,2.51c.34.73.82,1.3,1.43,1.7.61.41,1.31.61,2.1.61,1.31,0,2.25-.49,2.8-1.47l.04,1.19h3.03v-9.16h-3.03l-.04,1.17Zm-.5,4.85c-.34.38-.78.57-1.31.57s-.99-.19-1.33-.57c-.34-.38-.51-.86-.51-1.44s.17-1.07.51-1.45c.34-.37.79-.56,1.33-.56s.97.19,1.31.56c.34.37.51.85.51,1.45s-.17,1.06-.51,1.44Z"/>
  <path d="m290.03,153.43c-.61-.41-1.31-.61-2.1-.61-1.29,0-2.23.5-2.82,1.49l-.04-1.21h-3v13.51h3.21v-5.27c.59.8,1.44,1.21,2.56,1.21.79,0,1.5-.22,2.12-.65.62-.43,1.12-1.02,1.48-1.76.37-.74.55-1.57.55-2.49s-.17-1.78-.52-2.51c-.35-.73-.83-1.3-1.44-1.7Zm-1.75,5.69c-.34.38-.79.57-1.33.57s-.99-.19-1.33-.57c-.34-.38-.51-.86-.51-1.44s.17-1.07.51-1.45c.34-.37.79-.56,1.33-.56s.99.19,1.33.56c.34.37.51.85.51,1.45s-.17,1.06-.51,1.44Z"/>
  <path d="m303.37,153.43c-.61-.41-1.31-.61-2.1-.61-1.29,0-2.23.5-2.82,1.49l-.04-1.21h-3v13.51h3.21v-5.27c.59.8,1.44,1.21,2.56,1.21.79,0,1.5-.22,2.12-.65.62-.43,1.12-1.02,1.48-1.76.37-.74.55-1.57.55-2.49s-.17-1.78-.52-2.51c-.35-.73-.83-1.3-1.44-1.7Zm-1.75,5.69c-.34.38-.79.57-1.33.57s-.99-.19-1.33-.57c-.34-.38-.51-.86-.51-1.44s.17-1.07.51-1.45c.34-.37.79-.56,1.33-.56s.99.19,1.33.56c.34.37.51.85.51,1.45s-.17,1.06-.51,1.44Z"/>
  <path d="m321.44,153.44c-.75-.42-1.61-.63-2.58-.63s-1.82.21-2.58.63c-.76.42-1.36,1-1.8,1.73-.44.73-.66,1.57-.66,2.5s.22,1.77.66,2.5c.44.73,1.04,1.31,1.79,1.73.76.42,1.62.63,2.59.63s1.82-.21,2.57-.63c.76-.42,1.35-1,1.79-1.73.44-.73.66-1.57.66-2.5s-.22-1.78-.66-2.51c-.44-.73-1.03-1.3-1.78-1.72Zm-1.27,5.67c-.34.38-.78.57-1.31.57s-.99-.19-1.33-.57c-.34-.38-.51-.86-.51-1.44s.17-1.07.51-1.45c.34-.37.79-.56,1.33-.56s.97.19,1.31.56c.34.37.51.85.51,1.45s-.17,1.06-.51,1.44Z"/>
  <path d="m331.89,147.79c-1.29,0-2.28.38-2.98,1.15-.7.77-1.05,1.86-1.05,3.27v.89h-1.47v2.57h1.47v6.58h3.21v-6.58h2.17v-2.57h-2.17v-.67c0-1.24.51-1.86,1.53-1.86.19,0,.4.02.64.07.24.05.43.11.59.18l.32-2.59c-.26-.13-.6-.23-1.03-.31-.43-.08-.83-.12-1.22-.12Z"/>
  <path d="m348.8,153.37c-.67-.37-1.47-.56-2.4-.56s-1.78.2-2.5.61c-.72.41-1.28.98-1.69,1.71-.4.73-.6,1.58-.6,2.54,0,1.01.22,1.87.67,2.6.44.73,1.08,1.29,1.9,1.68.82.39,1.81.59,2.95.59.66,0,1.31-.06,1.94-.18.63-.12,1.2-.29,1.69-.51l-.28-2.31c-.4.19-.87.34-1.4.45-.53.11-1.04.17-1.53.17-.8,0-1.44-.14-1.91-.42-.47-.28-.77-.72-.91-1.34h6.09c.02-.18.04-.35.05-.51.01-.17.02-.33.02-.5,0-.95-.18-1.76-.54-2.44-.36-.68-.88-1.21-1.55-1.58Zm-4.12,3.29c.19-1.12.75-1.69,1.67-1.69.41,0,.75.12,1.01.36.26.24.43.57.51.99.02.11.04.22.04.34h-3.23Z"/>
  <path d="m360.9,159.51c-.38.09-.77.13-1.16.13-.73,0-1.31-.17-1.72-.52-.41-.35-.62-.83-.62-1.45s.2-1.11.6-1.46c.4-.34.96-.51,1.69-.51.38,0,.76.04,1.15.12.39.08.79.21,1.19.39l.37-2.68c-.37-.2-.84-.37-1.43-.5-.59-.13-1.16-.2-1.71-.2-.99,0-1.87.2-2.64.61-.76.41-1.36.98-1.78,1.71-.43.73-.64,1.58-.64,2.54s.21,1.8.63,2.52c.42.72,1.01,1.28,1.77,1.68.76.4,1.65.59,2.68.59.58,0,1.15-.07,1.71-.2.56-.14,1.05-.32,1.46-.56l-.32-2.63c-.44.18-.85.31-1.23.4Z"/>
  <path d="m372.97,153.44c-.75-.42-1.61-.63-2.58-.63s-1.82.21-2.58.63c-.76.42-1.36,1-1.8,1.73-.44.73-.66,1.57-.66,2.5s.22,1.77.66,2.5c.44.73,1.04,1.31,1.79,1.73.76.42,1.62.63,2.59.63s1.82-.21,2.57-.63c.76-.42,1.35-1,1.79-1.73.44-.73.66-1.57.66-2.5s-.22-1.78-.66-2.51c-.44-.73-1.03-1.3-1.78-1.72Zm-1.27,5.67c-.34.38-.78.57-1.31.57s-.99-.19-1.33-.57c-.34-.38-.51-.86-.51-1.44s.17-1.07.51-1.45c.34-.37.79-.56,1.33-.56s.97.19,1.31.56c.34.37.51.85.51,1.45s-.17,1.06-.51,1.44Z"/>
  <path d="m390.16,152.81c-.64,0-1.21.14-1.72.41-.51.27-.89.65-1.15,1.12-.51-1.02-1.4-1.53-2.66-1.53-.6,0-1.13.12-1.59.37-.46.25-.8.6-1.04,1.05l-.04-1.14h-3.12v9.16h3.18v-4.85c0-1.16.43-1.74,1.3-1.74.41,0,.72.13.91.39.2.26.29.67.29,1.23v4.97h3.18v-4.85c0-1.16.43-1.74,1.3-1.74.79,0,1.19.54,1.19,1.62v4.97h3.19v-5.57c0-1.27-.27-2.23-.82-2.88-.54-.66-1.34-.99-2.4-.99Z"/>
  <path d="m408.45,152.81c-.64,0-1.21.14-1.72.41-.51.27-.89.65-1.15,1.12-.51-1.02-1.4-1.53-2.66-1.53-.6,0-1.13.12-1.59.37-.46.25-.8.6-1.04,1.05l-.04-1.14h-3.12v9.16h3.18v-4.85c0-1.16.43-1.74,1.3-1.74.41,0,.72.13.91.39.2.26.29.67.29,1.23v4.97h3.18v-4.85c0-1.16.43-1.74,1.3-1.74.79,0,1.19.54,1.19,1.62v4.97h3.19v-5.57c0-1.27-.27-2.23-.82-2.88-.54-.66-1.34-.99-2.4-.99Z"/>
  <path d="m422.19,153.37c-.67-.37-1.47-.56-2.4-.56s-1.78.2-2.5.61c-.72.41-1.28.98-1.69,1.71-.4.73-.6,1.58-.6,2.54,0,1.01.22,1.87.67,2.6.44.73,1.08,1.29,1.9,1.68.82.39,1.81.59,2.95.59.66,0,1.31-.06,1.94-.18.63-.12,1.2-.29,1.69-.51l-.28-2.31c-.4.19-.87.34-1.4.45-.53.11-1.04.17-1.53.17-.8,0-1.44-.14-1.91-.42-.47-.28-.77-.72-.91-1.34h6.09c.02-.18.04-.35.05-.51s.02-.33.02-.5c0-.95-.18-1.76-.54-2.44-.36-.68-.88-1.21-1.55-1.58Zm-4.12,3.29c.19-1.12.75-1.69,1.67-1.69.41,0,.75.12,1.01.36.26.24.43.57.51.99.02.11.04.22.04.34h-3.23Z"/>
  <path d="m431.85,153.4c-.4.32-.7.77-.9,1.35l-.02-1.65h-3.12v9.16h3.21v-3.92c0-1.61.61-2.41,1.83-2.41.19,0,.4.02.62.06.22.04.41.09.57.15l.27-3.04c-.3-.12-.64-.18-1.05-.18-.54,0-1.01.16-1.41.48Z"/>
  <path d="m443.44,159.51c-.38.09-.77.13-1.16.13-.73,0-1.31-.17-1.72-.52-.41-.35-.62-.83-.62-1.45s.2-1.11.6-1.46c.4-.34.96-.51,1.69-.51.38,0,.76.04,1.15.12.39.08.79.21,1.19.39l.37-2.68c-.37-.2-.84-.37-1.43-.5-.59-.13-1.16-.2-1.71-.2-.99,0-1.87.2-2.64.61-.76.41-1.36.98-1.78,1.71-.43.73-.64,1.58-.64,2.54s.21,1.8.63,2.52c.42.72,1.01,1.28,1.77,1.68.76.4,1.65.59,2.68.59.58,0,1.15-.07,1.71-.2.56-.14,1.05-.32,1.46-.56l-.32-2.63c-.44.18-.85.31-1.23.4Z"/>
  <path d="m456.63,154.95c-.36-.68-.88-1.21-1.55-1.58-.67-.37-1.47-.56-2.4-.56s-1.78.2-2.5.61c-.72.41-1.28.98-1.69,1.71-.4.73-.6,1.58-.6,2.54,0,1.01.22,1.87.67,2.6.44.73,1.08,1.29,1.9,1.68.82.39,1.81.59,2.95.59.66,0,1.31-.06,1.94-.18.63-.12,1.2-.29,1.69-.51l-.28-2.31c-.4.19-.87.34-1.4.45-.53.11-1.04.17-1.53.17-.8,0-1.44-.14-1.91-.42-.47-.28-.77-.72-.91-1.34h6.09c.02-.18.04-.35.05-.51.01-.17.02-.33.02-.5,0-.95-.18-1.76-.54-2.44Zm-5.67,1.71c.19-1.12.75-1.69,1.67-1.69.41,0,.75.12,1.01.36.26.24.43.57.51.99.02.11.04.22.04.34h-3.23Z"/>
</svg>